<svg width="24" height="25" viewBox="0 0 24 25" fill="none" xmlns="http://www.w3.org/2000/svg">
<path d="M12.0776 16.6968C8.72644 16.6968 6 19.4264 6 22.7816C6 22.9757 6.00952 23.1676 6.02747 23.357C7.84369 24.4223 9.91681 24.9909 12.0776 24.9909C14.2385 24.9909 16.3116 24.4223 18.1278 23.357C18.1458 23.1674 18.1553 22.9757 18.1553 22.7816C18.1553 19.4264 15.4288 16.6968 12.0776 16.6968Z" fill="#686868"/>
<path d="M20.4853 4.44706C18.2188 2.17792 15.2054 0.928223 12 0.928223C8.79456 0.928223 5.78119 2.17792 3.51471 4.44706C1.24823 6.71621 0 9.73311 0 12.9423C0 16.1514 1.24823 19.1684 3.51471 21.4376C3.83734 21.7608 4.17572 22.0623 4.5271 22.3434C4.68439 19.3934 6.55389 16.8912 9.15619 15.817C7.72577 14.8833 6.7782 13.2677 6.7782 11.4343C6.7782 8.55161 9.12067 6.20639 12 6.20639C14.8793 6.20639 17.2218 8.55161 17.2218 11.4343C17.2218 13.2677 16.2742 14.8833 14.8438 15.817C17.4461 16.8912 19.3156 19.3934 19.4729 22.3434C19.8243 22.0623 20.1627 21.7606 20.4853 21.4376C22.7518 19.1684 24 16.1514 24 12.9423C24 9.73311 22.7518 6.71621 20.4853 4.44706Z" fill="#686868"/>
<path d="M15.8157 11.4343C15.8157 9.32776 14.104 7.61426 12.0001 7.61426C9.89624 7.61426 8.18457 9.32794 8.18457 11.4343C8.18457 13.5406 9.89624 15.2543 12.0001 15.2543C14.104 15.2543 15.8157 13.5406 15.8157 11.4343Z" fill="#686868"/>
</svg>
