<svg width="24" height="25" viewBox="0 0 24 25" fill="none" xmlns="http://www.w3.org/2000/svg">
<path d="M21.0001 10.5106C20.8012 10.5106 20.6104 10.5897 20.4698 10.7303C20.3291 10.871 20.2501 11.0617 20.2501 11.2606V13.4506L16.2401 9.44065C15.9055 9.1227 15.4616 8.94541 15.0001 8.94541C14.5386 8.94541 14.0947 9.1227 13.7601 9.44065L9.0001 14.1996L8.2401 13.4406C7.90554 13.1227 7.46164 12.9454 7.0001 12.9454C6.53856 12.9454 6.09465 13.1227 5.7601 13.4406L3.7501 15.4496V7.26065C3.7501 5.68365 4.4231 5.01065 6.0001 5.01065H14.0001C14.199 5.01065 14.3898 4.93163 14.5304 4.79098C14.6711 4.65032 14.7501 4.45956 14.7501 4.26065C14.7501 4.06173 14.6711 3.87097 14.5304 3.73032C14.3898 3.58966 14.199 3.51065 14.0001 3.51065H6.0001C5.49344 3.45192 4.98006 3.50852 4.49836 3.67621C4.01666 3.84391 3.57912 4.11835 3.21846 4.47901C2.8578 4.83967 2.58336 5.27721 2.41567 5.75891C2.24797 6.24061 2.19137 6.75399 2.2501 7.26065V17.2606C2.19137 17.7673 2.24797 18.2807 2.41567 18.7624C2.58336 19.2441 2.8578 19.6816 3.21846 20.0423C3.57912 20.4029 4.01666 20.6774 4.49836 20.8451C4.98006 21.0128 5.49344 21.0694 6.0001 21.0106H18.0001C18.5068 21.0694 19.0201 21.0128 19.5018 20.8451C19.9835 20.6774 20.4211 20.4029 20.7817 20.0423C21.1424 19.6816 21.4168 19.2441 21.5845 18.7624C21.7522 18.2807 21.8088 17.7673 21.7501 17.2606V11.2606C21.7501 11.0617 21.6711 10.871 21.5304 10.7303C21.3898 10.5897 21.199 10.5106 21.0001 10.5106ZM18.0001 19.5106H6.0001C4.5281 19.5106 3.8521 18.9106 3.7671 17.5536L6.8201 14.5006C6.84011 14.4714 6.86696 14.4474 6.89833 14.4308C6.92969 14.4143 6.96463 14.4056 7.0001 14.4056C7.03557 14.4056 7.0705 14.4143 7.10187 14.4308C7.13324 14.4474 7.16009 14.4714 7.1801 14.5006L8.1191 15.4406C8.3571 15.6656 8.67214 15.7909 8.9996 15.7909C9.32705 15.7909 9.64209 15.6656 9.8801 15.4406L14.8201 10.5006C14.8401 10.4714 14.867 10.4474 14.8983 10.4308C14.9297 10.4143 14.9646 10.4056 15.0001 10.4056C15.0356 10.4056 15.0705 10.4143 15.1019 10.4308C15.1332 10.4474 15.1601 10.4714 15.1801 10.5006L20.2501 15.5716V17.2606C20.2501 18.8376 19.5771 19.5106 18.0001 19.5106ZM17.4701 5.29065C17.4004 5.22108 17.3452 5.13847 17.3075 5.04752C17.2698 4.95658 17.2503 4.8591 17.2503 4.76065C17.2503 4.6622 17.2698 4.56471 17.3075 4.47377C17.3452 4.38283 17.4004 4.30021 17.4701 4.23065L18.9701 2.73065C19.1109 2.59044 19.3014 2.51172 19.5001 2.51172C19.6988 2.51172 19.8893 2.59044 20.0301 2.73065L21.5301 4.23065C21.6038 4.29931 21.6629 4.38211 21.7039 4.47411C21.7449 4.56611 21.7669 4.66542 21.7687 4.76612C21.7705 4.86683 21.7519 4.96686 21.7142 5.06024C21.6765 5.15363 21.6204 5.23847 21.5491 5.30968C21.4779 5.3809 21.3931 5.43705 21.2997 5.47477C21.2063 5.51249 21.1063 5.53101 21.0056 5.52924C20.9049 5.52746 20.8056 5.50542 20.7136 5.46443C20.6216 5.42344 20.5388 5.36433 20.4701 5.29065L20.2501 5.07165V7.26065C20.2501 7.45956 20.1711 7.65032 20.0304 7.79098C19.8898 7.93163 19.699 8.01065 19.5001 8.01065C19.3012 8.01065 19.1104 7.93163 18.9698 7.79098C18.8291 7.65032 18.7501 7.45956 18.7501 7.26065V5.07165L18.5301 5.29065C18.4605 5.36031 18.3779 5.41558 18.287 5.45328C18.196 5.49099 18.0985 5.5104 18.0001 5.5104C17.9016 5.5104 17.8042 5.49099 17.7132 5.45328C17.6223 5.41558 17.5397 5.36031 17.4701 5.29065ZM8.0001 8.01065C8.24732 8.01065 8.489 8.08396 8.69456 8.22131C8.90012 8.35866 9.06034 8.55388 9.15495 8.78229C9.24956 9.0107 9.27431 9.26203 9.22608 9.50451C9.17785 9.74699 9.0588 9.96972 8.88398 10.1445C8.70917 10.3193 8.48644 10.4384 8.24396 10.4866C8.00148 10.5349 7.75015 10.5101 7.52174 10.4155C7.29334 10.3209 7.09811 10.1607 6.96076 9.95511C6.82341 9.74955 6.7501 9.50787 6.7501 9.26065C6.7501 8.92913 6.88179 8.61118 7.11621 8.37676C7.35064 8.14234 7.66858 8.01065 8.0001 8.01065Z" fill="black"/>
</svg>
