<svg width="37" height="25" viewBox="0 0 37 25" fill="none" xmlns="http://www.w3.org/2000/svg">
<path d="M3.90179 0.0869141H32.4732C32.961 0.0869141 33.444 0.183432 33.8946 0.370956C34.3452 0.558481 34.7547 0.83334 35.0996 1.17984C35.4445 1.52634 35.7181 1.9377 35.9048 2.39042C36.0914 2.84314 36.1875 3.32837 36.1875 3.8184V21.0406C36.1875 21.5306 36.0914 22.0159 35.9048 22.4686C35.7181 22.9213 35.4445 23.3327 35.0996 23.6792C34.7547 24.0257 34.3452 24.3005 33.8946 24.4881C33.444 24.6756 32.961 24.7721 32.4732 24.7721H3.90179C3.41402 24.7721 2.93103 24.6756 2.48039 24.4881C2.02975 24.3005 1.62029 24.0257 1.27539 23.6792C0.930486 23.3327 0.656893 22.9213 0.470233 22.4686C0.283573 22.0159 0.1875 21.5306 0.1875 21.0406V3.8184C0.1875 2.82874 0.578825 1.87963 1.27539 1.17984C1.97195 0.480051 2.9167 0.0869141 3.90179 0.0869141ZM32.4732 23.0499C33.0036 23.0499 33.5124 22.8382 33.8874 22.4614C34.2625 22.0846 34.4732 21.5735 34.4732 21.0406V3.8184C34.4732 3.28551 34.2625 2.77444 33.8874 2.39763C33.5124 2.02083 33.0036 1.80914 32.4732 1.80914H3.90179C3.37135 1.80914 2.86264 2.02083 2.48757 2.39763C2.1125 2.77444 1.90179 3.28551 1.90179 3.8184V21.0406C1.90179 21.5735 2.1125 22.0846 2.48757 22.4614C2.86264 22.8382 3.37135 23.0499 3.90179 23.0499H32.4732Z" fill="black"/>
<path d="M11.3804 9.15571C11.2548 9.31462 11.0946 9.44234 10.912 9.52895C10.7294 9.61557 10.5294 9.65875 10.3275 9.65515C10.3146 9.45671 10.3411 9.25766 10.4057 9.06964C10.4702 8.88163 10.5713 8.70841 10.7032 8.56011C10.9686 8.25088 11.3429 8.05695 11.7475 8.01904C11.7766 8.43144 11.6449 8.83904 11.3804 9.15571ZM11.7432 9.72978C11.1632 9.69677 10.6661 10.0613 10.3904 10.0613C10.1146 10.0613 9.68893 9.74701 9.22893 9.75562C8.92988 9.76332 8.63805 9.8495 8.38242 10.0056C8.12679 10.1617 7.91628 10.3823 7.77179 10.6454C7.53511 11.2282 7.45153 11.8623 7.52908 12.4868C7.60664 13.1114 7.84271 13.7054 8.21464 14.2119C8.51179 14.6424 8.86607 15.1261 9.33464 15.1103C9.7775 15.0931 9.95321 14.8233 10.4875 14.8233C11.0218 14.8233 11.1804 15.1103 11.6489 15.1103C12.1175 15.1103 12.4389 14.6797 12.7346 14.2377C12.9441 13.9284 13.1072 13.5899 13.2189 13.2331C12.9402 13.1112 12.7027 12.9108 12.5351 12.6561C12.3675 12.4013 12.277 12.1032 12.2746 11.7979C12.2787 11.5264 12.3509 11.2603 12.4845 11.0242C12.6181 10.7882 12.8088 10.5898 13.0389 10.4474C12.8919 10.2371 12.6984 10.064 12.4736 9.94147C12.2488 9.81896 11.9988 9.75043 11.7432 9.74127M15.1032 8.51849V15.0601H16.1032V12.824H17.5018C17.7887 12.8394 18.0757 12.7945 18.3444 12.6922C18.6131 12.5899 18.8577 12.4324 19.0624 12.2299C19.2671 12.0273 19.4276 11.7841 19.5335 11.5157C19.6394 11.2473 19.6884 10.9597 19.6775 10.6713C19.6918 10.3848 19.6462 10.0984 19.5436 9.83069C19.441 9.56298 19.2837 9.31986 19.0817 9.11701C18.8798 8.91416 18.6378 8.75609 18.3713 8.653C18.1049 8.5499 17.8198 8.50408 17.5346 8.51849H15.1032ZM16.1146 9.3796H17.2804C17.4592 9.35463 17.6414 9.37005 17.8136 9.42475C17.9857 9.47944 18.1436 9.57203 18.2757 9.69577C18.4077 9.81951 18.5107 9.97128 18.577 10.14C18.6433 10.3088 18.6713 10.4903 18.6589 10.6713C18.6719 10.8532 18.6443 11.0357 18.5781 11.2055C18.5119 11.3753 18.4087 11.5281 18.2762 11.6527C18.1436 11.7774 17.9851 11.8707 17.812 11.9258C17.639 11.981 17.4559 11.9966 17.2761 11.9715H16.1032L16.1146 9.3796ZM21.5432 15.1203C21.8436 15.1285 22.1406 15.0552 22.403 14.9083C22.6654 14.7613 22.8836 14.546 23.0346 14.2851H23.0561V15.0701H23.9918V11.8036C23.9918 10.8593 23.2404 10.2508 22.0832 10.2508C21.6388 10.1937 21.19 10.3156 20.8348 10.5899C20.4796 10.8642 20.2469 11.2685 20.1875 11.7146H21.0975C21.15 11.5061 21.2758 11.3236 21.4517 11.201C21.6277 11.0783 21.8418 11.0237 22.0546 11.0473C22.6732 11.0473 23.0189 11.3343 23.0189 11.8696V12.2299L21.7575 12.3059C20.5832 12.3777 19.9489 12.8599 19.9489 13.6995C19.9511 13.8997 19.995 14.0972 20.0778 14.2794C20.1605 14.4615 20.2803 14.6242 20.4293 14.7571C20.5784 14.89 20.7535 14.99 20.9434 15.0509C21.1332 15.1117 21.3337 15.1319 21.5318 15.1103L21.5432 15.1203ZM21.8146 14.3439C21.2761 14.3439 20.9332 14.0841 20.9332 13.6852C20.9332 13.2862 21.2632 13.035 21.8932 12.9977L23.0161 12.9259V13.2948C23.0082 13.4447 22.97 13.5914 22.9038 13.7259C22.8375 13.8604 22.7447 13.98 22.6309 14.0773C22.5171 14.1745 22.3847 14.2474 22.2419 14.2916C22.0991 14.3357 21.9489 14.3501 21.8004 14.3339L21.8146 14.3439ZM25.2432 16.8483C26.2289 16.8483 26.6932 16.4708 27.1004 15.3256L28.8561 10.3153H27.8289L26.6389 14.1803H26.6175L25.4261 10.3153H24.3689L26.0832 15.0773L25.9918 15.3643C25.9607 15.5654 25.8551 15.7473 25.6961 15.8735C25.5372 15.9996 25.3366 16.0608 25.1346 16.0446C25.0546 16.0446 24.9004 16.036 24.8375 16.0274V16.8124C24.9662 16.8306 25.0961 16.8397 25.2261 16.8397L25.2432 16.8483Z" fill="black"/>
<path d="M11.8761 7.87549L11.8889 8.00465C11.922 8.45481 11.779 8.90018 11.4903 9.24609C11.3583 9.4104 11.1932 9.54483 11.0059 9.64054C10.8185 9.73626 10.6131 9.79112 10.4032 9.80151H10.3146L10.1989 9.79146L10.1846 9.67521C10.1697 9.45619 10.1983 9.23638 10.269 9.02863C10.3396 8.82089 10.4508 8.62939 10.5961 8.46535C10.8865 8.12732 11.2962 7.91583 11.7389 7.87549H11.8761ZM10.4618 9.51878C10.7797 9.47796 11.0696 9.31488 11.2703 9.06382C11.4766 8.81428 11.596 8.50381 11.6103 8.17975C11.3023 8.2471 11.0242 8.41273 10.8175 8.65192C10.6059 8.8906 10.4806 9.19397 10.4618 9.51303V9.51878ZM14.9603 8.37493H17.5461C17.8501 8.36039 18.1537 8.40983 18.4376 8.52008C18.7215 8.63034 18.9793 8.79897 19.1945 9.01517C19.4097 9.23137 19.5775 9.49037 19.6873 9.77556C19.797 10.0607 19.8462 10.3658 19.8318 10.6712C19.8435 10.9788 19.7913 11.2854 19.6785 11.5715C19.5657 11.8577 19.3948 12.117 19.1766 12.3331C18.9584 12.5492 18.6978 12.7172 18.4114 12.8264C18.125 12.9356 17.8191 12.9837 17.5132 12.9675H16.2461V15.2035H14.9603V8.37493ZM17.5132 12.6805C17.7811 12.6948 18.0491 12.6529 18.3 12.5575C18.5509 12.462 18.7792 12.3151 18.9705 12.126C19.1618 11.937 19.3117 11.71 19.4108 11.4595C19.5099 11.2091 19.556 10.9406 19.5461 10.6712C19.5619 10.4032 19.521 10.1349 19.426 9.88392C19.3311 9.63295 19.1843 9.40504 18.9954 9.21519C18.8064 9.02535 18.5795 8.87789 18.3297 8.78254C18.0799 8.68718 17.8128 8.64609 17.5461 8.66197H15.2461V14.9165H15.9603V12.6805H17.5132ZM15.9603 9.2303H17.2689C17.4665 9.20598 17.6671 9.22559 17.8563 9.28776C18.0456 9.34992 18.2189 9.45312 18.3641 9.59005C18.5092 9.72697 18.6227 9.89428 18.6963 10.0801C18.77 10.266 18.8021 10.4658 18.7903 10.6655C18.8035 10.8661 18.7725 11.0673 18.6995 11.2545C18.6266 11.4418 18.5135 11.6106 18.3682 11.749C18.223 11.8873 18.0492 11.9919 17.8592 12.0551C17.6692 12.1184 17.4677 12.1389 17.2689 12.115H15.9603V9.2303ZM17.2646 11.828C17.4255 11.8527 17.5898 11.8406 17.7453 11.7925C17.9008 11.7445 18.0435 11.6618 18.1628 11.5505C18.282 11.4393 18.3747 11.3025 18.4339 11.1502C18.4931 10.9979 18.5173 10.8342 18.5046 10.6712C18.5163 10.5092 18.4916 10.3467 18.4322 10.1956C18.3728 10.0445 18.2804 9.90883 18.1617 9.79855C18.043 9.68827 17.9011 9.60624 17.7465 9.55856C17.592 9.51087 17.4288 9.49875 17.2689 9.52308H16.2461V11.8337L17.2646 11.828ZM11.6675 9.5891H11.7518C12.0294 9.59731 12.3012 9.6711 12.5452 9.80449C12.7892 9.93789 12.9984 10.1271 13.1561 10.3569L13.2318 10.4703L13.1232 10.5521L13.1032 10.5693C12.8955 10.6982 12.7236 10.8778 12.6035 11.0913C12.4833 11.3049 12.4189 11.5454 12.4161 11.7907C12.4174 12.0671 12.4982 12.3373 12.6487 12.5688C12.7993 12.8002 13.0131 12.983 13.2646 13.0953C13.2843 13.1032 13.3023 13.1149 13.3175 13.1297L13.3803 13.1928L13.3532 13.2775C13.2366 13.6466 13.0673 13.9966 12.8503 14.3166C12.5646 14.7285 12.2218 15.2423 11.6489 15.2523H11.6275C11.4288 15.2475 11.2336 15.1985 11.0561 15.1088C10.8819 15.0182 10.6893 14.9691 10.4932 14.9653C10.2883 14.9679 10.0866 15.017 9.9032 15.1088C9.72868 15.193 9.53935 15.2417 9.34605 15.2523H9.30891C8.79177 15.2523 8.42605 14.7773 8.09605 14.2908C7.70886 13.7633 7.46406 13.1442 7.38546 12.4937C7.30686 11.8431 7.39712 11.1831 7.64748 10.5779C7.80432 10.2933 8.03251 10.0548 8.30942 9.88615C8.58632 9.71747 8.90232 9.62447 9.22605 9.61637H9.24605C9.50969 9.63042 9.76818 9.69522 10.0075 9.80725C10.1279 9.86519 10.2566 9.90392 10.3889 9.92206C10.5155 9.90262 10.6387 9.86491 10.7546 9.81012C11.0421 9.67868 11.352 9.60366 11.6675 9.5891ZM12.8361 10.4072C12.6986 10.2477 12.5295 10.1189 12.3396 10.0289C12.1496 9.93894 11.9431 9.88984 11.7332 9.88475H11.6675C11.3881 9.9004 11.1143 9.96906 10.8603 10.0871C10.7125 10.1581 10.5534 10.2028 10.3903 10.2191C10.2212 10.2041 10.0561 10.1584 9.9032 10.0842C9.69725 9.98342 9.47439 9.92209 9.24605 9.9034H9.23177C8.95755 9.91056 8.68997 9.9897 8.45563 10.133C8.2213 10.2762 8.02838 10.4786 7.89605 10.72C7.67414 11.2797 7.5977 11.887 7.67393 12.4845C7.75015 13.0821 7.97654 13.6504 8.33177 14.1358C8.61748 14.5663 8.93177 14.9725 9.31034 14.9725H9.32891C9.48752 14.9615 9.6424 14.919 9.78463 14.8476C10.0034 14.7411 10.243 14.6847 10.4861 14.6826C10.7205 14.6843 10.9515 14.7392 11.1618 14.8433C11.3056 14.9179 11.4643 14.9591 11.6261 14.9639H11.6432C12.0375 14.9639 12.3046 14.6079 12.6132 14.153C12.7917 13.8894 12.9358 13.6039 13.0418 13.3034C12.7848 13.1689 12.5663 12.9705 12.4073 12.7272C12.2482 12.4839 12.1538 12.2037 12.133 11.9134C12.1122 11.623 12.1658 11.3322 12.2886 11.0685C12.4114 10.8048 12.6008 10.5772 12.8361 10.4072ZM22.0689 10.1072C23.3146 10.1072 24.1203 10.7731 24.1203 11.8036V15.2035H22.8989V14.6883C22.7202 14.8699 22.5069 15.0136 22.2718 15.1107C22.0367 15.2079 21.7845 15.2565 21.5303 15.2538C21.3126 15.2763 21.0926 15.2531 20.8843 15.1856C20.676 15.1181 20.484 15.0079 20.3203 14.8619C20.1567 14.7158 20.0251 14.5372 19.9339 14.3374C19.8426 14.1375 19.7937 13.9208 19.7903 13.7009C19.7903 12.7867 20.4803 12.2413 21.7332 12.1638L22.8603 12.0964V11.871C22.8603 11.4204 22.5832 11.1922 22.0389 11.1922C21.86 11.1706 21.6792 11.2141 21.5295 11.315C21.3799 11.4159 21.2712 11.5673 21.2232 11.7419L21.2018 11.8596H20.0246V11.716C20.0535 11.4756 20.1292 11.2432 20.2475 11.0322C20.3658 10.8211 20.5244 10.6356 20.7141 10.4862C20.9038 10.3368 21.121 10.2264 21.3532 10.1614C21.5855 10.0963 21.8282 10.0779 22.0675 10.1072H22.0689ZM23.8346 14.9165V11.8036C23.8346 10.9425 23.1418 10.3942 22.0689 10.3942C21.687 10.3495 21.3017 10.4436 20.9828 10.6594C20.664 10.8753 20.4325 11.1987 20.3303 11.5711H20.9732C21.0554 11.3589 21.2038 11.1793 21.3962 11.059C21.5886 10.9386 21.8146 10.8842 22.0403 10.9037C22.7446 10.9037 23.1475 11.2553 23.1475 11.8696V12.3676L21.7518 12.4509C20.9875 12.4968 20.0775 12.7522 20.0775 13.7009C20.0807 13.8832 20.122 14.0628 20.1989 14.228C20.2757 14.3932 20.3864 14.5403 20.5236 14.6597C20.6607 14.7791 20.8214 14.8682 20.9951 14.9211C21.1688 14.974 21.3517 14.9895 21.5318 14.9667C21.8059 14.975 22.0773 14.909 22.3173 14.7757C22.5573 14.6424 22.7572 14.4466 22.8961 14.209L22.9361 14.1315H23.1861V14.9165H23.8346ZM24.1661 10.1718H25.5318L26.6275 13.7282L27.7232 10.1718H29.0589L27.2161 15.3657C26.7875 16.5612 26.2732 16.9846 25.2275 16.9846C25.0841 16.9854 24.9408 16.9754 24.7989 16.9545L24.6989 16.9172V15.8652L24.8603 15.8867C24.9146 15.8939 25.0632 15.9025 25.1375 15.9025C25.5261 15.9025 25.7203 15.746 25.8518 15.3284L25.9289 15.0844L24.1661 10.1718ZM25.3203 10.4588H24.5718L26.2318 15.0744L26.1246 15.4102C26.0831 15.639 25.9597 15.8447 25.7775 15.9883C25.5954 16.1319 25.3672 16.2035 25.1361 16.1895H24.9818V16.6918C25.0603 16.6918 25.1632 16.7004 25.2232 16.7004C26.1432 16.7004 26.5603 16.3531 26.9375 15.2724L28.6518 10.4617H27.9375L26.7475 14.3266H26.5161L25.3203 10.4588ZM23.1461 12.7637V13.2861C23.1387 13.4543 23.0977 13.6192 23.0255 13.7711C22.9532 13.9229 22.8513 14.0586 22.7256 14.1699C22.6 14.2813 22.4533 14.366 22.2943 14.4191C22.1353 14.4721 21.9673 14.4924 21.8003 14.4788C21.1875 14.4788 20.7761 14.1559 20.7761 13.6765C20.7761 13.3895 20.9189 12.9015 21.8718 12.8455L23.1461 12.7637ZM21.8003 14.1917C21.9298 14.206 22.0609 14.1935 22.1854 14.1551C22.3099 14.1167 22.4253 14.0532 22.5246 13.9684C22.6238 13.8836 22.7048 13.7794 22.7625 13.6621C22.8202 13.5447 22.8535 13.4168 22.8603 13.2861V13.0694L21.8889 13.1311C21.3403 13.1641 21.0618 13.3478 21.0618 13.6765C21.0618 14.0052 21.3461 14.1917 21.8003 14.1917Z" fill="black"/>
</svg>
