<svg width="26" height="25" viewBox="0 0 26 25" fill="none" xmlns="http://www.w3.org/2000/svg">
<g clip-path="url(#clip0_35_305)">
<path d="M9.29914 18.06L15.2913 12.267C15.3154 12.2438 15.3345 12.2162 15.3476 12.1858C15.3606 12.1554 15.3673 12.1229 15.3673 12.09C15.3673 12.0571 15.3606 12.0246 15.3476 11.9942C15.3345 11.9638 15.3154 11.9362 15.2913 11.913L9.29914 6.12C9.1621 5.97782 9.0875 5.78978 9.09105 5.59548C9.09459 5.40117 9.17601 5.21579 9.31815 5.07838C9.46029 4.94096 9.65205 4.86225 9.85303 4.85882C10.054 4.85539 10.2485 4.92752 10.3956 5.06L16.3878 10.853C16.5559 11.0155 16.6892 11.2084 16.7802 11.4208C16.8712 11.6331 16.918 11.8607 16.918 12.0905C16.918 12.3203 16.8712 12.5479 16.7802 12.7602C16.6892 12.9726 16.5559 13.1655 16.3878 13.328L10.3956 19.12C10.2485 19.2525 10.054 19.3246 9.85303 19.3212C9.65205 19.3177 9.46029 19.239 9.31815 19.1016C9.17601 18.9642 9.09459 18.7788 9.09105 18.5845C9.0875 18.3902 9.1621 18.2022 9.29914 18.06Z" fill="black"/>
</g>
<defs>
<clipPath id="clip0_35_305">
<rect width="24.8252" height="24" fill="white" transform="translate(0.796509 0.0898438)"/>
</clipPath>
</defs>
</svg>
