<svg width="8" height="14" viewBox="0 0 8 14" fill="none" xmlns="http://www.w3.org/2000/svg">
<path d="M7.44217 12.5094L2.097 7.16418C2.07552 7.14276 2.05847 7.1173 2.04684 7.08928C2.03521 7.06125 2.02923 7.03121 2.02923 7.00087C2.02923 6.97053 2.03521 6.94048 2.04684 6.91246C2.05847 6.88443 2.07552 6.85898 2.097 6.83755L7.44217 1.49237C7.50648 1.42811 7.55749 1.3518 7.5923 1.26781C7.62711 1.18382 7.64502 1.0938 7.64502 1.00288C7.64502 0.911968 7.62711 0.821944 7.5923 0.737955C7.55749 0.653966 7.50648 0.577658 7.44217 0.513392C7.37791 0.449085 7.3016 0.398072 7.21761 0.363267C7.13362 0.328461 7.0436 0.310547 6.95268 0.310547C6.86177 0.310547 6.77175 0.328461 6.68776 0.363267C6.60377 0.398072 6.52746 0.449085 6.46319 0.513392L1.11802 5.85857C0.96806 6.00851 0.849106 6.18652 0.767949 6.38244C0.686791 6.57836 0.64502 6.78834 0.64502 7.00041C0.64502 7.21247 0.686791 7.42245 0.767949 7.61837C0.849106 7.81429 0.96806 7.9923 1.11802 8.14224L6.46412 13.4874C6.59387 13.617 6.76976 13.6898 6.95315 13.6898C7.13653 13.6898 7.31242 13.617 7.44217 13.4874C7.57177 13.3577 7.64456 13.1818 7.64456 12.9984C7.64456 12.815 7.57177 12.6391 7.44217 12.5094Z" fill="black"/>
</svg>
