<svg width="20" height="23" viewBox="0 0 20 23" fill="none" xmlns="http://www.w3.org/2000/svg">
<path d="M18.5243 1.02491C18.1263 0.626 17.5968 0.40625 17.0336 0.40625H16.0987V1.34375C16.0987 2.37762 15.2585 3.21875 14.2257 3.21875H5.79761C4.76486 3.21875 3.92467 2.37762 3.92467 1.34375V0.40625H2.98666C1.82613 0.40625 0.880939 1.35144 0.879626 2.51328L0.859376 20.8883C0.85872 21.4521 1.07763 21.9824 1.47564 22.3813C1.87375 22.7803 2.40316 23 2.96641 23H17.0133C18.1738 23 19.1191 22.0548 19.1203 20.893L19.1406 2.51797C19.1413 1.95411 18.9224 1.42386 18.5243 1.02491ZM10.2388 7.4375H15.2288C15.6167 7.4375 15.9311 7.75231 15.9311 8.14062C15.9311 8.52894 15.6167 8.84375 15.2288 8.84375H10.2388C9.85089 8.84375 9.53646 8.52894 9.53646 8.14062C9.53646 7.75231 9.85089 7.4375 10.2388 7.4375ZM10.2388 12.125H15.2288C15.6167 12.125 15.9311 12.4398 15.9311 12.8281C15.9311 13.2164 15.6167 13.5312 15.2288 13.5312H10.2388C9.85089 13.5312 9.53646 13.2164 9.53646 12.8281C9.53646 12.4398 9.85089 12.125 10.2388 12.125ZM10.2388 16.8125H15.2488C15.6367 16.8125 15.9512 17.1273 15.9512 17.5156C15.9512 17.9039 15.6367 18.2188 15.2488 18.2188H10.2388C9.85089 18.2188 9.53646 17.9039 9.53646 17.5156C9.53646 17.1273 9.85089 16.8125 10.2388 16.8125ZM4.25458 7.46525C4.52889 7.19066 4.97355 7.19066 5.24786 7.46525L5.62975 7.84761L7.24947 6.22611C7.52378 5.95156 7.96844 5.95147 8.24271 6.22611C8.51697 6.50066 8.51697 6.94587 8.24271 7.22047L6.12635 9.33912C5.99463 9.47098 5.81599 9.54509 5.6297 9.54509C5.44342 9.54509 5.26478 9.47103 5.13306 9.33912L4.25453 8.45956C3.98027 8.18502 3.98027 7.7398 4.25458 7.46525ZM4.25458 12.5107C4.52889 12.2361 4.97355 12.2361 5.24786 12.5107L5.62975 12.893L7.24947 11.2715C7.52374 10.997 7.96844 10.997 8.24271 11.2715C8.51697 11.5461 8.51697 11.9913 8.24271 12.2659L6.12635 14.3846C5.99467 14.5165 5.81599 14.5906 5.6297 14.5906C5.44342 14.5906 5.26478 14.5165 5.13306 14.3846L4.25453 13.505C3.98027 13.2305 3.98027 12.7853 4.25458 12.5107ZM4.25458 17.1982C4.52889 16.9236 4.97355 16.9236 5.24786 17.1982L5.62975 17.5805L7.24947 15.959C7.52374 15.6845 7.96844 15.6845 8.24271 15.959C8.51697 16.2336 8.51697 16.6788 8.24271 16.9534L6.12635 19.0721C5.99467 19.204 5.81599 19.2781 5.6297 19.2781C5.44342 19.2781 5.26478 19.204 5.13306 19.0721L4.25453 18.1925C3.98027 17.918 3.98027 17.4728 4.25458 17.1982Z" fill="#686868"/>
</svg>
