<svg width="18" height="21" viewBox="0 0 18 21" fill="none" xmlns="http://www.w3.org/2000/svg">
<path fill-rule="evenodd" clip-rule="evenodd" d="M0.6875 8.43934C0.6875 3.83947 4.53138 0.121582 9.18095 0.121582C13.8436 0.121582 17.6875 3.83947 17.6875 8.43934C17.6875 10.7573 16.8445 12.9092 15.457 14.7332C13.9263 16.7451 12.0397 18.498 9.91604 19.874C9.43001 20.192 8.99137 20.216 8.45795 19.874C6.32224 18.498 4.43559 16.7451 2.918 14.7332C1.52948 12.9092 0.6875 10.7573 0.6875 8.43934ZM6.38184 8.69787C6.38184 10.2388 7.63927 11.4508 9.18105 11.4508C10.7238 11.4508 11.9934 10.2388 11.9934 8.69787C11.9934 7.16891 10.7238 5.89795 9.18105 5.89795C7.63927 5.89795 6.38184 7.16891 6.38184 8.69787Z" fill="#F3C87A"/>
</svg>
