<svg width="10" height="10" viewBox="0 0 10 10" fill="none" xmlns="http://www.w3.org/2000/svg">
<path d="M0.211371 0.162708C0.163401 0.214374 0.125347 0.275722 0.0993846 0.343245C0.0734218 0.410769 0.0600586 0.483144 0.0600586 0.556235C0.0600586 0.629327 0.0734218 0.701702 0.0993846 0.769225C0.125347 0.836748 0.163401 0.898096 0.211371 0.949763L3.97628 5.00744L0.211371 9.06437C0.120187 9.16983 0.0705457 9.30933 0.0729053 9.45346C0.0752649 9.59759 0.129441 9.73511 0.22402 9.83705C0.318599 9.93898 0.446196 9.99737 0.57993 9.99991C0.713665 10.0025 0.843094 9.94895 0.94095 9.85068L4.70586 5.79301L8.47076 9.85068C8.56862 9.94895 8.69805 10.0025 8.83178 9.99991C8.96552 9.99737 9.09311 9.93898 9.18769 9.83705C9.28227 9.73511 9.33645 9.59759 9.33881 9.45346C9.34117 9.30933 9.29153 9.16983 9.20034 9.06437L5.43612 5.00669L9.20103 0.949021C9.29502 0.844044 9.34699 0.703481 9.34575 0.557607C9.34451 0.411732 9.29016 0.272219 9.1944 0.169115C9.09865 0.0660102 8.96915 0.00756487 8.8338 0.0063665C8.69845 0.00516813 8.56808 0.0613126 8.47076 0.162708L4.70586 4.21964L0.94095 0.162708C0.84416 0.0585207 0.712957 0 0.57616 0C0.439364 0 0.308161 0.0585207 0.211371 0.162708Z" fill="black"/>
</svg>
