<svg width="25" height="24" viewBox="0 0 25 24" fill="none" xmlns="http://www.w3.org/2000/svg">
<path fill-rule="evenodd" clip-rule="evenodd" d="M4.62038 5.44798C4.10536 6.15562 4.14136 7.06216 4.69438 8.27653C4.86538 8.65334 4.69938 9.09711 4.32237 9.26903C3.94436 9.43994 3.50135 9.27502 3.32934 8.89722C2.54232 7.1711 2.55732 5.72984 3.37334 4.61741C3.67735 4.10867 5.5884 1.8968 7.22944 2.00375C7.74546 2.04673 8.21747 2.28661 8.66048 2.71838C9.13249 3.17915 11.1145 5.58991 11.2735 6.35252C11.4444 7.17238 11.0762 7.81265 10.8072 8.28031L10.8065 8.28153C10.5415 8.7423 10.4495 8.9392 10.5405 9.18807C11.2095 10.8242 12.2436 12.1615 13.6046 13.133C13.9416 13.3749 14.0186 13.8427 13.7776 14.1795C13.6316 14.3834 13.4016 14.4933 13.1676 14.4933C13.0156 14.4933 12.8636 14.4474 12.7316 14.3534C11.1375 13.213 9.92951 11.6568 9.14049 9.72679C8.79348 8.77228 9.20549 8.05665 9.5065 7.53392C9.73251 7.14212 9.85751 6.90824 9.80451 6.65836C9.6645 6.29755 8.20247 4.36754 7.61245 3.79283C7.43045 3.61392 7.25944 3.50898 7.13244 3.49898C6.41642 3.48199 4.95238 4.89727 4.62038 5.44798ZM18.3973 13.4734C19.1633 13.6323 21.5723 15.6133 22.0334 16.084C22.4674 16.5278 22.7074 17.0006 22.7484 17.4873C22.8134 19.3294 20.3463 21.2544 20.0633 21.4163C19.5253 21.8041 18.8943 22 18.1843 22C17.4782 22 16.6942 21.8061 15.8452 21.4103C12.5801 20.055 7.64198 15.6603 4.86391 11.6273C4.62891 11.2865 4.71491 10.8197 5.05592 10.5849C5.39793 10.353 5.86494 10.4369 6.09895 10.7778C8.69401 14.5448 13.4341 18.7857 16.4502 20.039C17.6702 20.6057 18.5783 20.6407 19.2543 20.156C19.7813 19.8371 21.2783 18.3499 21.2513 17.5763C21.2423 17.4853 21.1383 17.3144 20.9613 17.1335C20.3853 16.5438 18.4523 15.0816 18.0483 14.9296C17.7292 14.8617 17.3972 15.0556 16.8912 15.3744L16.6352 15.5333C16.2802 15.7462 15.8192 15.6333 15.6052 15.2775C15.3922 14.9236 15.5062 14.4629 15.8612 14.249L16.0922 14.1061C16.6522 13.7532 17.4252 13.2715 18.3973 13.4734Z" fill="#567AB8"/>
</svg>
