<svg width="21" height="20" viewBox="0 0 21 20" fill="none" xmlns="http://www.w3.org/2000/svg">
<path d="M0.851562 6V5C0.851562 4.20435 1.16763 3.44129 1.73024 2.87868C2.29285 2.31607 3.05591 2 3.85156 2H4.85156V0H6.85156V2H9.51856V0H11.5186V2H14.1856V0H16.1856V2H17.1856C17.9812 2 18.7443 2.31607 19.3069 2.87868C19.8695 3.44129 20.1856 4.20435 20.1856 5V6H0.851562Z" fill="#F3C87A"/>
<path d="M20.1846 8V17C20.1846 17.7956 19.8685 18.5587 19.3059 19.1213C18.7433 19.6839 17.9802 20 17.1846 20H3.85156C3.05591 20 2.29285 19.6839 1.73024 19.1213C1.16763 18.5587 0.851563 17.7956 0.851562 17V8H20.1846ZM6.85156 14.667H4.85156V16.667H6.85156V14.667ZM6.85156 10.667H4.85156V12.667H6.85156V10.667ZM11.5186 14.667H9.51856V16.667H11.5186V14.667ZM11.5186 10.667H9.51856V12.667H11.5186V10.667ZM16.1856 14.667H14.1856V16.667H16.1856V14.667ZM16.1856 10.667H14.1856V12.667H16.1856V10.667Z" fill="#F3C87A"/>
</svg>
