<svg width="19" height="21" viewBox="0 0 19 21" fill="none" xmlns="http://www.w3.org/2000/svg">
<path fill-rule="evenodd" clip-rule="evenodd" d="M13.7091 1.71656C13.4224 0.872447 12.6775 0.326172 11.8339 0.326172H7.70594L7.54902 0.332503C6.71922 0.399665 6.01113 0.995138 5.79306 1.8315L5.54545 3.0943L5.51644 3.20546C5.40186 3.55331 5.08849 3.79833 4.72587 3.81445H1.50141L1.40216 3.8213C1.04517 3.87096 0.77002 4.18477 0.77002 4.56448C0.77002 4.97871 1.09747 5.31451 1.50141 5.31451H4.65268C4.6643 5.31507 4.67598 5.31535 4.68774 5.31535C4.7086 5.31535 4.72941 5.31507 4.75017 5.31451H14.7897C14.8104 5.31507 14.8312 5.31535 14.8521 5.31535C14.8639 5.31535 14.8755 5.31507 14.8872 5.31451H18.0386L18.1379 5.30766C18.4949 5.258 18.77 4.94419 18.77 4.56448C18.77 4.15025 18.4426 3.81445 18.0386 3.81445H14.8392L14.7401 3.80794C14.3725 3.75937 14.0687 3.47489 13.9943 3.094L13.7574 1.87826L13.7091 1.71656ZM12.684 3.81445C12.6509 3.73004 12.6222 3.64309 12.5983 3.55385L12.56 3.38826L12.3336 2.21897C12.2807 2.01609 12.1174 1.86755 11.9202 1.83359L11.8339 1.82623H7.70594C7.50072 1.82623 7.31831 1.9494 7.24254 2.1042L7.21684 2.17221L6.97981 3.38856C6.95095 3.53635 6.90918 3.67869 6.85586 3.81445H12.684ZM16.7484 7.04543C17.1175 7.07595 17.4004 7.38242 17.42 7.75131L17.4105 7.957L17.096 11.8082L16.7661 15.5666C16.6963 16.3169 16.6338 16.9498 16.5799 17.4479C16.3925 19.184 15.2655 20.2576 13.5666 20.2894C10.9194 20.3383 8.37479 20.3378 5.90375 20.2843C4.254 20.2497 3.14369 19.1645 2.95957 17.455L2.83232 16.1954L2.60997 13.7523L2.38219 11.0713L2.12174 7.85314C2.08938 7.44024 2.38954 7.07861 2.79217 7.04542C3.16126 7.01499 3.48833 7.2711 3.56521 7.63203L3.59513 7.92699L3.83968 10.944L4.10671 14.0711C4.22648 15.4249 4.33036 16.5205 4.41349 17.2901C4.51841 18.2643 5.0314 18.7657 5.93414 18.7846C8.38588 18.8376 10.9115 18.8381 13.5401 18.7896C14.4977 18.7717 15.0189 18.2752 15.126 17.2826L15.2527 16.0298C15.2898 15.6438 15.3294 15.2175 15.3714 14.7545L15.6387 11.6791L15.9606 7.73276C15.9904 7.35428 16.2892 7.06416 16.649 7.04408L16.7484 7.04543Z" fill="#FF5555"/>
</svg>
