<svg width="25" height="25" viewBox="0 0 25 25" fill="none" xmlns="http://www.w3.org/2000/svg">
<path fill-rule="evenodd" clip-rule="evenodd" d="M16.4391 4.22046C16.1523 3.37635 15.4075 2.83008 14.5639 2.83008H10.4359L10.279 2.83641C9.4492 2.90357 8.74111 3.49904 8.52304 4.3354L8.27543 5.59821L8.24642 5.70937C8.13184 6.05722 7.81847 6.30223 7.45585 6.31836H4.23139L4.13214 6.32521C3.77515 6.37487 3.5 6.68868 3.5 7.06839C3.5 7.48262 3.82745 7.81841 4.23139 7.81841H7.38266C7.39428 7.81898 7.40596 7.81926 7.41772 7.81926C7.43858 7.81926 7.45939 7.81898 7.48015 7.81841H17.5197C17.5404 7.81898 17.5612 7.81926 17.5821 7.81926C17.5938 7.81926 17.6055 7.81898 17.6171 7.81841H20.7686L20.8679 7.81157C21.2248 7.7619 21.5 7.4481 21.5 7.06839C21.5 6.65416 21.1725 6.31836 20.7686 6.31836H17.5692L17.4701 6.31185C17.1025 6.26327 16.7987 5.9788 16.7243 5.59791L16.4874 4.38216L16.4391 4.22046ZM15.414 6.31836C15.3808 6.23395 15.3521 6.14699 15.3282 6.05776L15.29 5.89216L15.0636 4.72288C15.0107 4.51999 14.8473 4.37146 14.6502 4.3375L14.5639 4.33013H10.4359C10.2307 4.33013 10.0483 4.4533 9.97252 4.6081L9.94682 4.67612L9.70979 5.89246C9.68093 6.04025 9.63916 6.1826 9.58584 6.31836H15.414ZM19.4784 9.54934C19.8475 9.57985 20.1304 9.88632 20.15 10.2552L20.1405 10.4609L19.826 14.3121L19.4961 18.0705C19.4263 18.8208 19.3638 19.4537 19.3099 19.9518C19.1225 21.6879 17.9955 22.7615 16.2966 22.7933C13.6494 22.8422 11.1048 22.8417 8.63376 22.7882C6.98401 22.7536 5.8737 21.6684 5.68958 19.9589L5.56234 18.6993L5.33998 16.2562L5.1122 13.5752L4.85176 10.357C4.81939 9.94415 5.11955 9.58252 5.52218 9.54933C5.89127 9.5189 6.21834 9.77501 6.29522 10.1359L6.32515 10.4309L6.5697 13.4479L6.83673 16.575C6.9565 17.9288 7.06037 19.0244 7.1435 19.794C7.24842 20.7682 7.76141 21.2696 8.66415 21.2885C11.1159 21.3415 13.6415 21.342 16.2701 21.2935C17.2277 21.2756 17.7489 20.7791 17.856 19.7865L17.9827 18.5337C18.0198 18.1477 18.0595 17.7214 18.1014 17.2585L18.3687 14.183L18.6906 10.2367C18.7204 9.85819 19.0193 9.56807 19.379 9.54799L19.4784 9.54934Z" fill="white"/>
</svg>
