<svg width="25" height="25" viewBox="0 0 25 25" fill="none" xmlns="http://www.w3.org/2000/svg">
<path fill-rule="evenodd" clip-rule="evenodd" d="M8.63788 2.85742H16.3534C19.5668 2.85742 21.4913 4.80886 21.5 8.06713V17.6477C21.5 20.906 19.5842 22.8574 16.3621 22.8574H13.5058C13.1395 22.8165 12.8622 22.5026 12.8622 22.1289C12.8622 21.7553 13.1395 21.4414 13.5058 21.4005H16.3534C18.8091 21.4005 20.0457 20.1378 20.0457 17.6477V8.06713C20.0457 5.57707 18.8091 4.31438 16.3534 4.31438H8.63788C6.18215 4.31438 4.93686 5.57707 4.93686 8.06713V17.6477C4.93686 20.1378 6.18215 21.4005 8.63788 21.4005C9.00419 21.4414 9.28145 21.7553 9.28145 22.1289C9.28145 22.5026 9.00419 22.8165 8.63788 22.8574C5.42453 22.8574 3.5 20.906 3.5 17.6477V8.06713C3.5 4.80003 5.42453 2.85742 8.63788 2.85742ZM8.8904 9.35539H11.6335C11.9998 9.31444 12.2771 9.00059 12.2771 8.62691C12.2771 8.25324 11.9998 7.93939 11.6335 7.89844H8.8904C8.52409 7.93939 8.24683 8.25324 8.24683 8.62691C8.24683 9.00059 8.52409 9.31444 8.8904 9.35539ZM16.0921 13.5864H8.89032H8.88161C8.5153 13.5454 8.23804 13.2316 8.23804 12.8579C8.23804 12.4842 8.5153 12.1704 8.88161 12.1294H16.0921C16.3676 12.0986 16.6363 12.2303 16.7836 12.4685C16.9309 12.7066 16.9309 13.0092 16.7836 13.2473C16.6363 13.4855 16.3676 13.6172 16.0921 13.5864ZM16.0922 17.8155H8.89042H8.88171C8.48734 17.8155 8.16763 17.4913 8.16763 17.0914C8.16763 16.6915 8.48734 16.3674 8.88171 16.3674H16.0922C16.4865 16.3674 16.8062 16.6915 16.8062 17.0914C16.8062 17.4913 16.4865 17.8155 16.0922 17.8155Z" fill="white"/>
</svg>
