<svg width="25" height="25" viewBox="0 0 25 25" fill="none" xmlns="http://www.w3.org/2000/svg">
<path d="M12.1795 3.55273H8.4405C5.3655 3.55273 3.4375 5.72973 3.4375 8.81173V17.1257C3.4375 20.2077 5.3565 22.3847 8.4405 22.3847H17.2645C20.3495 22.3847 22.2685 20.2077 22.2685 17.1257V13.0977" stroke="#07183B" stroke-width="1.5" stroke-linecap="round" stroke-linejoin="round"/>
<path fill-rule="evenodd" clip-rule="evenodd" d="M9.51513 11.6847L16.9881 4.21166C17.9191 3.28166 19.4281 3.28166 20.3591 4.21166L21.5761 5.42866C22.5071 6.35966 22.5071 7.86966 21.5761 8.79966L14.0671 16.3087C13.6601 16.7157 13.1081 16.9447 12.5321 16.9447H8.78613L8.88013 13.1647C8.89413 12.6087 9.12113 12.0787 9.51513 11.6847Z" stroke="#07183B" stroke-width="1.5" stroke-linecap="round" stroke-linejoin="round"/>
<path d="M15.8525 5.36621L20.4185 9.93221" stroke="#07183B" stroke-width="1.5" stroke-linecap="round" stroke-linejoin="round"/>
</svg>
