<svg width="24" height="25" viewBox="0 0 24 25" fill="none" xmlns="http://www.w3.org/2000/svg">
<path fill-rule="evenodd" clip-rule="evenodd" d="M3.96867 14.7712L13.6592 5.27209C14.906 4.04993 16.9283 4.04993 18.175 5.27209L19.4694 6.54086C20.7162 7.76302 20.7162 9.74531 19.4694 10.9675L9.74061 20.5041C9.1843 21.0494 8.43007 21.3554 7.64282 21.3554H3.65854C3.28841 21.3554 2.99098 21.0565 3.00021 20.6938L3.10043 16.7529C3.12036 16.0081 3.43127 15.298 3.96867 14.7712ZM18.5381 7.45378L17.2437 6.185C16.5113 5.46703 15.323 5.46703 14.5905 6.185L13.8379 6.92275L17.7859 10.7919L18.5381 10.0546C19.2705 9.33659 19.2705 8.17175 18.5381 7.45378ZM4.89998 15.6841L12.9066 7.83566L16.8546 11.7048L8.8093 19.5911L8.70228 19.6872C8.4067 19.9299 8.03222 20.0643 7.64282 20.0643L4.33345 20.0639L4.41707 16.7859C4.42814 16.3723 4.60126 15.9769 4.89998 15.6841ZM21 20.7099C21 20.3534 20.7052 20.0644 20.3415 20.0644H13.471L13.3816 20.0703C13.0602 20.1131 12.8125 20.3831 12.8125 20.7099C12.8125 21.0665 13.1073 21.3555 13.471 21.3555H20.3415L20.4308 21.3496C20.7523 21.3068 21 21.0367 21 20.7099Z" fill="white"/>
</svg>
