<svg width="25" height="24" viewBox="0 0 25 24" fill="none" xmlns="http://www.w3.org/2000/svg">
<path fill-rule="evenodd" clip-rule="evenodd" d="M8.15774 12.1942L8.06459 15.9042C8.06058 16.1022 8.1357 16.2932 8.27393 16.4352C8.41316 16.5782 8.60347 16.6582 8.80179 16.6582H12.4878C13.2541 16.6582 13.9753 16.3602 14.5181 15.8182L21.9022 8.4461C22.4852 7.86509 22.8047 7.09208 22.8047 6.27006C22.8047 5.45005 22.4852 4.67604 21.9022 4.09503L20.7053 2.90001C19.5033 1.7 17.5491 1.7 16.3481 2.90001L8.99811 10.2381C8.47526 10.7601 8.17677 11.4551 8.15774 12.1942ZM9.63218 12.2315C9.6422 11.8725 9.78644 11.5335 10.0419 11.2795L15.7432 5.58644L17.6162 7.45847C17.7605 7.60147 17.9488 7.67347 18.1381 7.67347C18.3264 7.67347 18.5157 7.60147 18.6599 7.45847C18.9474 7.16946 18.9474 6.70445 18.6599 6.41645L16.7859 4.54542L17.3909 3.94141C18.0169 3.3164 19.0356 3.3164 19.6626 3.94141L20.8595 5.13743C21.4856 5.76244 21.4856 6.77946 20.8595 7.40547L13.4755 14.7776C13.211 15.0416 12.8605 15.1856 12.4879 15.1856H9.55906L9.63218 12.2315ZM3.54309 12.4431C3.94976 12.4431 4.2803 12.1131 4.2803 11.707V7.93799C4.2803 5.24795 5.92198 3.50992 8.46314 3.50992H12.1402C12.5478 3.50992 12.8784 3.18092 12.8784 2.77391C12.8784 2.36791 12.5478 2.0379 12.1402 2.0379H8.46314C5.07861 2.0379 2.80489 4.40894 2.80489 7.93799V11.707C2.80489 12.1131 3.13543 12.4431 3.54309 12.4431ZM22.0632 11.6582C21.6555 11.6582 21.326 11.9872 21.326 12.3942V16.3483C21.326 19.0383 19.6833 20.7753 17.1411 20.7753H8.46294C5.92178 20.7753 4.2811 19.0383 4.2811 16.3483C4.2811 15.9423 3.95056 15.6123 3.54289 15.6123C3.13623 15.6123 2.80469 15.9423 2.80469 16.3483C2.80469 19.8773 5.07841 22.2484 8.46294 22.2484H17.1411C20.5267 22.2484 22.8004 19.8773 22.8004 16.3483V12.3942C22.8004 11.9872 22.4698 11.6582 22.0632 11.6582Z" fill="#567AB8"/>
</svg>
