<svg width="17" height="18" viewBox="0 0 17 18" fill="none" xmlns="http://www.w3.org/2000/svg">
<path d="M0.951285 17.187C0.819684 17.1866 0.689808 17.157 0.571031 17.1004C0.452254 17.0437 0.347542 16.9614 0.264453 16.8593C0.181364 16.7573 0.121972 16.638 0.090565 16.5102C0.059158 16.3824 0.0565196 16.2493 0.0828403 16.1203L1.02595 11.4092C1.06015 11.2372 1.14496 11.0793 1.26951 10.9559L10.5042 1.71676C10.7518 1.46908 11.0458 1.27262 11.3694 1.13858C11.6929 1.00454 12.0397 0.935547 12.39 0.935547C12.7402 0.935547 13.087 1.00454 13.4105 1.13858C13.7341 1.27262 14.0281 1.46908 14.2757 1.71676L15.5291 2.97453C15.7767 3.22216 15.9732 3.51615 16.1072 3.83972C16.2413 4.16328 16.3103 4.51008 16.3103 4.86031C16.3103 5.21054 16.2413 5.55734 16.1072 5.8809C15.9732 6.20447 15.7767 6.49846 15.5291 6.74609L6.2944 15.9834C6.17014 16.107 6.01211 16.1912 5.84017 16.2252L1.12906 17.1674C1.07059 17.1798 1.01104 17.1863 0.951285 17.187ZM9.08995 5.0172L2.30417 11.803L1.5184 15.7319L5.4464 14.9452L12.2322 8.16031L9.08995 5.0172ZM12.3895 2.26964C12.2143 2.26908 12.0407 2.30328 11.8789 2.37026C11.717 2.43724 11.57 2.53568 11.4464 2.65987L10.0331 4.07409L13.1753 7.21631L14.5895 5.80209C14.8395 5.55205 14.9799 5.21297 14.9799 4.85942C14.9799 4.50587 14.8395 4.16679 14.5895 3.91675L13.3317 2.66076C13.2083 2.53651 13.0615 2.43797 12.8998 2.37084C12.7381 2.30371 12.5646 2.26931 12.3895 2.26964Z" fill="white"/>
</svg>
