<svg width="109" height="109" viewBox="0 0 109 109" fill="none" xmlns="http://www.w3.org/2000/svg">
<path d="M58.3452 59.875V33C58.3452 31.9308 57.9205 30.9055 57.1645 30.1495C56.4085 29.3935 55.3831 28.9688 54.314 28.9688C53.2448 28.9688 52.2194 29.3935 51.4634 30.1495C50.7074 30.9055 50.2827 31.9308 50.2827 33V59.875C50.2827 60.9442 50.7074 61.9695 51.4634 62.7255C52.2194 63.4815 53.2448 63.9062 54.314 63.9062C55.3831 63.9062 56.4085 63.4815 57.1645 62.7255C57.9205 61.9695 58.3452 60.9442 58.3452 59.875Z" fill="#FF5555"/>
<path d="M54.314 81.375C53.2509 81.375 52.2117 81.0598 51.3278 80.4692C50.4439 79.8785 49.7549 79.0391 49.3481 78.0569C48.9413 77.0748 48.8349 75.994 49.0422 74.9514C49.2496 73.9087 49.7616 72.951 50.5133 72.1993C51.265 71.4476 52.2227 70.9357 53.2654 70.7283C54.308 70.5209 55.3887 70.6273 56.3709 71.0341C57.353 71.441 58.1925 72.1299 58.7831 73.0138C59.3737 73.8977 59.689 74.9369 59.689 76C59.689 77.4255 59.1227 78.7927 58.1147 79.8007C57.1067 80.8087 55.7395 81.375 54.314 81.375Z" fill="#FF5555"/>
<path d="M54.314 108.25C43.6832 108.25 33.2912 105.098 24.4521 99.1915C15.6129 93.2854 8.72367 84.8908 4.65546 75.0693C0.587254 65.2477 -0.477175 54.4404 1.59678 44.0139C3.67074 33.5874 8.78993 24.0101 16.307 16.493C23.8241 8.97596 33.4014 3.85677 43.8279 1.78282C54.2544 -0.29114 65.0617 0.773289 74.8832 4.8415C84.7048 8.90971 93.0993 15.799 99.0055 24.6381C104.912 33.4773 108.064 43.8693 108.064 54.5C108.048 68.7506 102.38 82.413 92.3037 92.4897C82.227 102.566 68.5646 108.234 54.314 108.25ZM54.314 8.81252C45.2779 8.81252 36.4446 11.492 28.9314 16.5123C21.4181 21.5325 15.5622 28.6679 12.1042 37.0162C8.64626 45.3645 7.7415 54.5507 9.50436 63.4132C11.2672 72.2757 15.6185 80.4165 22.008 86.806C28.3976 93.1955 36.5383 97.5468 45.4008 99.3097C54.2633 101.073 63.4495 100.168 71.7978 96.7098C80.1461 93.2518 87.2815 87.3959 92.3018 79.8826C97.322 72.3694 100.001 63.5362 100.001 54.5C99.9887 42.3869 95.1711 30.7735 86.6058 22.2082C78.0405 13.6429 66.4271 8.82533 54.314 8.81252Z" fill="#FF5555"/>
</svg>
