<svg width="100" height="100" viewBox="0 0 100 100" fill="none" xmlns="http://www.w3.org/2000/svg">
<path d="M50.048 100C43.3182 100 36.7883 98.6771 30.6391 96.0699C24.7018 93.5518 19.3692 89.9464 14.7916 85.356C10.214 80.7656 6.6187 75.4179 4.10768 69.4639C1.50666 63.2964 0.1875 56.7481 0.1875 49.9995C0.1875 43.2508 1.50666 36.7025 4.10658 30.5361C6.6176 24.5821 10.2129 19.2345 14.7905 14.644C19.3681 10.0536 24.7007 6.44816 30.638 3.93009C36.7872 1.32177 43.3172 0 50.0469 0C56.7766 0 63.3065 1.32287 69.4557 3.93009C75.393 6.44816 80.7257 10.0536 85.3032 14.644C89.8808 19.2345 93.4761 24.5821 95.9871 30.5361C98.5882 36.7025 99.9062 43.2508 99.9062 49.9995C99.9062 56.7481 98.5871 63.2964 95.9871 69.4628C93.4761 75.4168 89.8808 80.7645 85.3032 85.3549C80.7257 89.9453 75.393 93.5507 69.4557 96.0688C63.3065 98.6771 56.7766 99.9989 50.0469 99.9989L50.048 100Z" fill="#C62C2C"/>
<path d="M55.4003 49.9995L70.3325 35.0253C71.8108 33.5428 71.8108 31.1392 70.3325 29.6568C68.8542 28.1743 66.4573 28.1743 64.979 29.6568L50.0468 44.631L35.1145 29.6568C33.6362 28.1743 31.2394 28.1743 29.7611 29.6568C28.2828 31.1392 28.2828 33.5428 29.7611 35.0253L44.6933 49.9995L29.7611 64.9737C28.2828 66.4561 28.2828 68.8597 29.7611 70.3422C30.5008 71.084 31.4687 71.4538 32.4378 71.4538C33.4069 71.4538 34.3748 71.0829 35.1145 70.3422L50.0468 55.368L64.979 70.3422C65.7176 71.0829 66.6867 71.4538 67.6558 71.4538C68.6248 71.4538 69.5928 71.0829 70.3325 70.3422C71.8108 68.8597 71.8108 66.4561 70.3325 64.9737L55.4003 49.9995Z" fill="white"/>
</svg>
