<svg width="25" height="25" viewBox="0 0 25 25" fill="none" xmlns="http://www.w3.org/2000/svg">
<path d="M13.0001 24.3976C12.7349 24.3976 12.4806 24.2922 12.293 24.1047C12.1055 23.9172 12.0001 23.6628 12.0001 23.3976V15.3086L6.14713 10.7086C5.78879 10.429 5.49914 10.0712 5.30034 9.66253C5.10154 9.25383 4.99885 8.80508 5.00013 8.35059V6.80859C5.00013 6.27816 5.21085 5.76945 5.58592 5.39438C5.96099 5.01931 6.4697 4.80859 7.00013 4.80859H23.0001C23.5306 4.80859 24.0393 5.01931 24.4143 5.39438C24.7894 5.76945 25.0001 6.27816 25.0001 6.80859V8.35059C25.0016 8.8051 24.8989 9.25391 24.7001 9.66263C24.5013 10.0714 24.2116 10.4291 23.8531 10.7086L18.0001 15.3086V21.9896C18.0001 22.1966 17.9358 22.3985 17.8161 22.5674C17.6965 22.7363 17.5274 22.8639 17.3321 22.9326L13.3321 24.3406C13.2255 24.3782 13.1132 24.3975 13.0001 24.3976ZM7.00013 6.30859C6.86753 6.30859 6.74035 6.36127 6.64658 6.45504C6.55281 6.54881 6.50013 6.67599 6.50013 6.80859V8.35059C6.49928 8.57796 6.55047 8.80251 6.64979 9.00704C6.74911 9.21157 6.89392 9.39066 7.07313 9.53059L12.9261 14.1306C13.1053 14.2702 13.2501 14.4489 13.3496 14.6531C13.4491 14.8573 13.5006 15.0815 13.5001 15.3086V22.6906L16.5001 21.6346V15.3086C16.4994 15.0813 16.5507 14.8568 16.65 14.6522C16.7493 14.4477 16.894 14.2686 17.0731 14.1286L22.9271 9.52859C23.1062 9.38856 23.251 9.20945 23.3503 9.00494C23.4496 8.80044 23.5008 8.57594 23.5001 8.34859V6.80859C23.5001 6.67599 23.4475 6.54881 23.3537 6.45504C23.2599 6.36127 23.1327 6.30859 23.0001 6.30859H7.00013Z" fill="#567AB8"/>
<circle cx="6.67676" cy="6.7793" r="6" fill="#F3C87A"/>
</svg>
