<svg width="20" height="20" viewBox="0 0 20 20" fill="none" xmlns="http://www.w3.org/2000/svg">
<path d="M8.00001 19.7946C7.7348 19.7946 7.48044 19.6892 7.29291 19.5017C7.10537 19.3141 7.00001 19.0598 7.00001 18.7946V10.7056L1.14701 6.10557C0.788672 5.82601 0.499022 5.4682 0.300219 5.0595C0.101416 4.65081 -0.00127135 4.20205 1.18802e-05 3.74757V2.20557C1.18802e-05 1.67513 0.210726 1.16643 0.585798 0.791353C0.960871 0.41628 1.46958 0.205566 2.00001 0.205566L18 0.205566C18.5304 0.205566 19.0392 0.41628 19.4142 0.791353C19.7893 1.16643 20 1.67513 20 2.20557V3.74757C20.0014 4.20208 19.8988 4.65088 19.7 5.0596C19.5012 5.46833 19.2115 5.82612 18.853 6.10557L13 10.7056V17.3866C13 17.5936 12.9357 17.7954 12.816 17.9643C12.6964 18.1332 12.5273 18.2608 12.332 18.3296L8.33201 19.7376C8.22536 19.7752 8.1131 19.7945 8.00001 19.7946ZM2.00001 1.70557C1.8674 1.70557 1.74023 1.75824 1.64646 1.85201C1.55269 1.94578 1.50001 2.07296 1.50001 2.20557V3.74757C1.49916 3.97494 1.55035 4.19948 1.64967 4.40402C1.74899 4.60855 1.8938 4.78764 2.07301 4.92757L7.92601 9.52757C8.10514 9.66719 8.24998 9.84591 8.34946 10.0501C8.44895 10.2542 8.50044 10.4785 8.50001 10.7056V18.0876L11.5 17.0316V10.7056C11.4993 10.4782 11.5506 10.2537 11.6499 10.0492C11.7492 9.84471 11.8939 9.6656 12.073 9.52557L17.927 4.92557C18.1061 4.78553 18.2508 4.60642 18.3501 4.40192C18.4495 4.19741 18.5007 3.97291 18.5 3.74557V2.20557C18.5 2.07296 18.4473 1.94578 18.3536 1.85201C18.2598 1.75824 18.1326 1.70557 18 1.70557H2.00001Z" fill="#567AB8"/>
</svg>
