<svg width="36" height="26" viewBox="0 0 36 26" fill="none" xmlns="http://www.w3.org/2000/svg">
<rect x="0.5" y="0.586914" width="35" height="24" rx="3.5" fill="white" stroke="#D9D9D9"/>
<path fill-rule="evenodd" clip-rule="evenodd" d="M17.0024 16.5013V13.3545H18.6061C19.2633 13.3545 19.818 13.1315 20.2701 12.6917L20.3787 12.5802C21.2046 11.6696 21.1504 10.251 20.2701 9.40857C19.83 8.96256 19.2271 8.72098 18.6061 8.73336H16.0317V16.5013H17.0024ZM17.0025 12.4005V9.68734H18.6306C18.9804 9.68734 19.312 9.82362 19.5592 10.0714C20.0839 10.5917 20.0959 11.459 19.5894 11.9979C19.3422 12.2643 18.9924 12.4129 18.6306 12.4005H17.0025ZM24.9065 11.6014C24.4905 11.2112 23.9238 11.013 23.2063 11.013C22.2839 11.013 21.5905 11.3599 21.1323 12.0475L21.9885 12.5988C22.302 12.128 22.73 11.8926 23.2726 11.8926C23.6163 11.8926 23.9479 12.0227 24.2071 12.2581C24.4604 12.4811 24.6051 12.8032 24.6051 13.1439V13.3731C24.2313 13.1625 23.761 13.051 23.1822 13.051C22.507 13.051 21.9643 13.212 21.5604 13.5403C21.1565 13.8687 20.9515 14.3023 20.9515 14.8536C20.9394 15.3553 21.1504 15.8323 21.5242 16.1544C21.9041 16.5013 22.3864 16.6748 22.9531 16.6748C23.6223 16.6748 24.1529 16.3712 24.5568 15.7642H24.599V16.5013H25.5275V13.2244C25.5275 12.5368 25.3225 11.9917 24.9065 11.6014ZM22.272 15.5226C22.073 15.3739 21.9524 15.1323 21.9524 14.8721C21.9524 14.581 22.0851 14.3394 22.3444 14.1474C22.6097 13.9553 22.9413 13.8562 23.3333 13.8562C23.876 13.85 24.2981 13.9739 24.5996 14.2217C24.5996 14.6429 24.4368 15.0084 24.1172 15.3181C23.8277 15.6155 23.4358 15.7827 23.0257 15.7827C22.7544 15.7889 22.4891 15.696 22.272 15.5226ZM27.6135 18.8367L30.8572 11.1864H29.8021L28.3009 15.0023H28.2828L26.7454 11.1864H25.6903L27.8185 16.1606L26.6127 18.8367H27.6135Z" fill="#3C4043"/>
<path d="M13.6514 12.6734C13.6514 12.3699 13.6273 12.0664 13.5791 11.769H9.48535V13.4849H11.8306C11.7342 14.0362 11.4207 14.5318 10.9625 14.8415V15.9566H12.3612C13.1811 15.1822 13.6514 14.0362 13.6514 12.6734Z" fill="#4285F4"/>
<path d="M9.48555 17.0339C10.6552 17.0339 11.6439 16.6375 12.3614 15.9561L10.9627 14.8411C10.5708 15.1136 10.0704 15.2685 9.48555 15.2685C8.3521 15.2685 7.39348 14.4818 7.04983 13.4287H5.60889V14.5809C6.34443 16.0862 7.84566 17.0339 9.48555 17.0339Z" fill="#34A853"/>
<path d="M7.05005 13.4289C6.86915 12.8776 6.86915 12.2767 7.05005 11.7192V10.5732H5.60888C4.98779 11.8307 4.98779 13.3174 5.60888 14.5749L7.05005 13.4289Z" fill="#FBBC04"/>
<path d="M9.48555 9.87948C10.1065 9.86709 10.7034 10.1087 11.1496 10.5485L12.3915 9.27242C11.6017 8.51668 10.5648 8.10165 9.48555 8.11404C7.84566 8.11404 6.34443 9.068 5.60889 10.5733L7.04983 11.7255C7.39348 10.6662 8.3521 9.87948 9.48555 9.87948Z" fill="#EA4335"/>
</svg>
