<svg width="34" height="34" viewBox="0 0 34 34" fill="none" xmlns="http://www.w3.org/2000/svg">
<path d="M17.824 8.34863C13.4152 8.34863 9.82397 11.9399 9.82397 16.3486C9.82397 20.7574 13.4152 24.3486 17.824 24.3486C22.2327 24.3486 25.824 20.7574 25.824 16.3486C25.824 11.9399 22.2327 8.34863 17.824 8.34863ZM17.824 21.4738C14.995 21.4738 12.6988 19.1776 12.6988 16.3486C12.6988 13.5197 14.995 11.2235 17.824 11.2235C20.6529 11.2235 22.9491 13.5197 22.9491 16.3486C22.9491 19.1776 20.6529 21.4738 17.824 21.4738Z" fill="#151515"/>
<path d="M23.9119 33.3486H10.7361C5.27184 33.3486 0.823975 28.9008 0.823975 23.4365V10.2608C0.823975 4.7965 5.27184 0.348633 10.7361 0.348633H23.9119C29.3761 0.348633 33.824 4.7965 33.824 10.2608V23.4365C33.824 28.9008 29.3761 33.3486 23.9119 33.3486ZM10.7454 3.46307C6.9969 3.46307 3.93841 6.51224 3.93841 10.2701V23.4458C3.93841 27.1944 6.98758 30.2528 10.7454 30.2528H23.9212C27.6697 30.2528 30.7282 27.2037 30.7282 23.4458V10.2701C30.7282 6.52156 27.679 3.46307 23.9212 3.46307H10.7454Z" fill="#151515"/>
</svg>
