<svg width="37" height="25" viewBox="0 0 37 25" fill="none" xmlns="http://www.w3.org/2000/svg">
<path d="M34.1875 0.0869141H2.1875C1.08293 0.0869141 0.1875 0.982345 0.1875 2.08691V22.0869C0.1875 23.1915 1.08293 24.0869 2.1875 24.0869H34.1875C35.2921 24.0869 36.1875 23.1915 36.1875 22.0869V2.08691C36.1875 0.982345 35.2921 0.0869141 34.1875 0.0869141Z" fill="#0873B9"/>
<path d="M1.67529 1.10059H34.4073V6.66659C23.4973 6.65992 12.5866 6.65892 1.67529 6.66359V1.10059ZM5.29229 1.92459C4.99229 2.51659 4.68629 3.10959 4.41329 3.71459C4.76029 4.12659 5.10029 4.54459 5.44229 4.95959C5.74229 4.97359 6.04229 4.97159 6.34229 4.97059C9.56629 4.96159 12.7903 4.98459 16.0143 4.95959C16.0253 4.24659 16.0213 3.53259 16.0143 2.81959C15.7362 2.80162 15.4573 2.80162 15.1793 2.81959C15.1603 3.08359 15.1483 3.34659 15.1273 3.61059C14.9923 3.61759 14.8563 3.62259 14.7223 3.62659C14.7223 3.35059 14.7223 3.07459 14.7003 2.79959C14.3913 2.79959 14.0843 2.79959 13.7763 2.79959C13.752 3.08627 13.7473 3.37427 13.7623 3.66159C13.5529 3.68216 13.3426 3.69117 13.1323 3.68859C10.6753 3.68159 8.22129 3.71059 5.76729 3.67959C5.99929 3.08959 6.30329 2.52859 6.51029 1.92859C6.10529 1.91759 5.69829 1.92159 5.29229 1.92459ZM27.5753 1.86159C27.5753 2.19159 27.4753 2.57059 27.7183 2.84659C27.8663 3.02459 27.9773 3.33759 28.2653 3.29659C29.1023 3.29659 29.9393 3.29659 30.7763 3.29659C30.8463 3.45859 30.9123 3.62159 30.9763 3.78659C30.0193 3.78659 29.0623 3.78659 28.1053 3.78659C27.9843 3.77459 27.8283 3.81359 27.7513 3.69459C27.4683 3.38559 27.2323 3.03759 26.9393 2.73659C26.3043 2.73659 25.6693 2.73659 25.0343 2.73659C25.0343 3.47659 25.0463 4.21659 25.0343 4.95759C23.9913 4.96559 22.9463 4.97959 21.9023 4.95159C21.8732 4.58232 21.8769 4.2112 21.9133 3.84259C22.8033 3.83359 23.6943 3.85259 24.5833 3.83259C24.5833 3.46559 24.5833 3.09959 24.5833 2.73259C23.2343 2.74059 21.8833 2.73259 20.5363 2.73259C20.5293 3.76259 20.5363 4.79159 20.5363 5.82159C22.4293 5.84659 24.3233 5.83959 26.2163 5.82159C26.2233 5.27359 26.2013 4.72159 26.2323 4.17759C26.5323 4.30859 26.7883 4.57759 27.1323 4.56259C28.4993 4.56259 29.8653 4.56259 31.2323 4.56259C31.3713 4.55659 31.5443 4.58259 31.6323 4.44959C31.8523 4.21159 32.0803 3.97759 32.2773 3.72059C32.1382 3.39635 31.966 3.08737 31.7633 2.79859C30.7913 2.72259 29.8153 2.78959 28.8413 2.75759C28.8473 2.61559 28.8543 2.47259 28.8613 2.33159C29.6813 2.33159 30.5003 2.29559 31.3183 2.26159C31.2603 2.12959 31.2003 1.99759 31.1423 1.86159C29.9463 1.84359 28.7603 1.86259 27.5753 1.86159ZM7.02529 1.97259C7.01829 2.10159 7.01429 2.22959 7.01429 2.35959C7.30829 2.36659 7.60229 2.36659 7.89529 2.35959C7.90229 2.22459 7.90529 2.08959 7.90729 1.95459C7.61343 1.93102 7.31795 1.93705 7.02529 1.97259ZM8.48729 1.96359C8.48729 2.09659 8.48029 2.22859 8.48029 2.36359C8.77029 2.36359 9.06029 2.36959 9.35029 2.36359C9.35029 2.22959 9.35029 2.09459 9.35029 1.96359C9.06191 1.93683 8.77167 1.93683 8.48329 1.96359M15.1093 1.96359C15.1093 2.09659 15.1023 2.22959 15.1013 2.36359C15.3923 2.36359 15.6813 2.36359 15.9713 2.36359C15.9713 2.23259 15.9713 2.10059 15.9713 1.96859C15.6836 1.94061 15.3939 1.94061 15.1063 1.96859M17.3903 3.23359C17.3963 3.67559 17.3903 4.11759 17.3963 4.56059C17.9883 4.58159 18.5813 4.57259 19.1733 4.56659C19.1663 4.11859 19.1803 3.66659 19.1313 3.22359C18.5513 3.22359 17.9703 3.20559 17.3903 3.23359ZM26.9233 5.47159C26.9053 5.60859 26.8873 5.74559 26.8703 5.88359C27.1643 5.89659 27.4583 5.89359 27.7533 5.88359C27.7533 5.75059 27.7533 5.61859 27.7533 5.48359C27.4753 5.46759 27.1973 5.46559 26.9203 5.46959M28.2403 5.47959C28.2403 5.61459 28.2403 5.74859 28.2403 5.87959C28.5283 5.87959 28.8163 5.88559 29.1053 5.88559C29.1053 5.74859 29.1053 5.61059 29.1053 5.47359C28.8204 5.45964 28.5351 5.4603 28.2503 5.47559L28.2403 5.47959Z" fill="#0873B9"/>
<path d="M1.67529 6.90967C12.586 6.90967 23.4966 6.90967 34.4073 6.90967V17.0397C23.4966 17.0397 12.586 17.0397 1.67529 17.0397V6.90967ZM7.68729 7.70467C7.67229 10.5047 7.69629 13.3047 7.68729 16.1047C7.89185 16.1363 8.09833 16.154 8.30529 16.1577C10.0233 16.1577 11.7423 16.1577 13.4603 16.1577C13.6983 16.1577 13.9343 16.1237 14.1703 16.1037C14.1763 15.1037 14.1703 14.1037 14.1703 13.1037C14.2183 12.6012 14.2357 12.0963 14.2223 11.5917C14.6293 11.9287 14.9673 12.3337 15.3413 12.7007C16.2553 13.6197 17.1493 14.5587 18.0673 15.4727C18.2387 15.6758 18.4315 15.8598 18.6423 16.0217C18.7673 16.0332 18.8928 16.0376 19.0183 16.0347C21.9943 16.0217 24.9713 16.0487 27.9473 16.0217C27.8638 15.9016 27.7654 15.7927 27.6543 15.6977C26.7803 14.9807 25.9313 14.2357 25.0653 13.5097C24.3313 12.9247 23.6313 12.3007 22.9123 11.6997C22.8463 11.6147 22.6823 11.5297 22.7593 11.4067C23.0833 11.1577 23.4353 10.9427 23.7493 10.6797C24.5203 10.0417 25.3653 9.49867 26.1413 8.86667C26.6259 8.53563 27.0913 8.1774 27.5353 7.79367C24.7783 7.76167 22.0203 7.79367 19.2623 7.77967C19.1182 7.77229 18.9738 7.7827 18.8323 7.81067C17.6053 8.71067 16.4323 9.67867 15.2083 10.5887C14.9152 10.8443 14.5996 11.0729 14.2653 11.2717C14.2163 10.0857 14.2653 8.89567 14.2403 7.70867C12.0583 7.70967 9.87529 7.69767 7.68729 7.70067V7.70467Z" fill="#0873B9"/>
<path d="M1.67529 17.2754C12.586 17.2827 23.4966 17.2827 34.4073 17.2754V22.9184H1.67529V17.2754ZM29.2813 17.9974C29.2743 18.2464 29.2743 18.4974 29.2623 18.7434C28.9763 18.7434 28.6913 18.7434 28.4063 18.7514C28.4016 18.9514 28.4016 19.1547 28.4063 19.3614C28.6883 19.3744 28.9713 19.3714 29.2553 19.3614C29.3163 19.9314 29.2553 20.5064 29.2893 21.0764C29.2896 21.1775 29.3129 21.2772 29.3574 21.368C29.402 21.4588 29.4665 21.5382 29.5463 21.6004C29.8539 21.7812 30.2117 21.8577 30.5663 21.8184C31.0733 21.8074 31.5823 21.8364 32.0893 21.7984C32.0893 21.5824 32.0893 21.3667 32.0893 21.1514C31.7232 21.1259 31.3561 21.1189 30.9893 21.1304C30.9813 20.5214 30.9823 19.9124 30.9893 19.3034C31.3703 19.2924 31.7513 19.2934 32.1333 19.2964C32.1443 19.1134 32.1503 18.9304 32.1453 18.7474C31.7743 18.7414 31.4043 18.7384 31.0333 18.7474C31.0155 18.4978 31.0109 18.2475 31.0193 17.9974C30.4403 17.9974 29.8633 17.9974 29.2853 17.9974M6.09029 19.1754C6.07929 19.0704 6.06829 18.9654 6.05729 18.8604C5.51929 18.8514 4.98129 18.8604 4.44229 18.8604C4.44229 19.8304 4.41729 20.8024 4.45329 21.7724C5.01629 21.7724 5.57829 21.7724 6.14129 21.7724C6.14829 21.1974 6.12529 20.6204 6.15029 20.0454C6.20029 19.7054 6.56729 19.5334 6.87229 19.4454C7.35319 19.3088 7.86666 19.3442 8.32429 19.5454C8.43249 19.6004 8.52354 19.684 8.58753 19.7872C8.65153 19.8903 8.68604 20.009 8.68729 20.1304C8.70529 20.6684 8.68029 21.2084 8.69529 21.7464C9.26429 21.7524 9.83329 21.7724 10.4013 21.7354C10.3913 21.1244 10.4113 20.5144 10.3903 19.9044C10.3683 19.4044 9.89829 19.0854 9.47229 18.9044C8.92186 18.7039 8.3347 18.6243 7.75076 18.6711C7.16682 18.7179 6.59981 18.8899 6.08829 19.1754M16.5283 19.4474C16.332 19.6292 16.2057 19.8742 16.1718 20.1396C16.1378 20.405 16.1981 20.674 16.3423 20.8994C16.5197 21.1348 16.7422 21.3325 16.9968 21.481C17.2514 21.6296 17.5331 21.7259 17.8253 21.7644C18.6881 21.9365 19.5743 21.9575 20.4443 21.8264C21.1608 21.7621 21.829 21.4381 22.3233 20.9154C21.7953 20.8854 21.2673 20.9044 20.7393 20.8974C20.3223 20.8634 20.0053 21.2114 19.5933 21.2134C19.1663 21.2661 18.7331 21.2026 18.3393 21.0294C18.2446 20.9722 18.1632 20.8954 18.1006 20.8042C18.038 20.7129 17.9956 20.6094 17.9763 20.5004C19.4543 20.4394 20.9373 20.5064 22.4163 20.4674C22.4103 20.1608 22.3146 19.8627 22.141 19.6099C21.9673 19.3572 21.7234 19.1609 21.4393 19.0454C20.5673 18.6995 19.6231 18.5752 18.6913 18.6834C17.9091 18.7073 17.1537 18.9743 16.5303 19.4474H16.5283Z" fill="#0873B9"/>
<path d="M18.0142 19.9387C18.1889 19.7155 18.42 19.5429 18.6837 19.4389C18.9474 19.3348 19.2341 19.303 19.5142 19.3467C19.7356 19.3365 19.9552 19.3908 20.1464 19.5029C20.3376 19.6151 20.4921 19.7804 20.5912 19.9787C19.7342 19.9847 18.8712 20.0037 18.0142 19.9387Z" fill="#0873B9"/>
<path d="M5.29213 1.92499C5.69813 1.92499 6.10513 1.91799 6.51013 1.92499C6.30313 2.52499 5.99913 3.08599 5.76713 3.67599C8.22113 3.70599 10.6761 3.67599 13.1301 3.69099C13.3405 3.69357 13.5508 3.68456 13.7601 3.66399C13.7452 3.37667 13.7499 3.08867 13.7741 2.80199C14.0821 2.80199 14.3891 2.80199 14.6981 2.80199C14.7201 3.07699 14.7231 3.35299 14.7201 3.62799C14.8541 3.62799 14.9901 3.61899 15.1251 3.61199C15.1461 3.34799 15.1591 3.08499 15.1771 2.82099C15.4552 2.80302 15.7341 2.80302 16.0121 2.82099C16.0121 3.53399 16.0221 4.24799 16.0121 4.96099C12.7881 4.98599 9.56413 4.96099 6.34013 4.97199C6.04013 4.97199 5.74013 4.97199 5.44013 4.96099C5.09713 4.54499 4.75813 4.12699 4.41113 3.71599C4.68613 3.10999 4.99013 2.51699 5.29213 1.92499Z" fill="#FDFEFD"/>
<path d="M27.5744 1.86068C28.7604 1.86068 29.9454 1.84268 31.1314 1.87068C31.1894 2.00268 31.2494 2.13468 31.3074 2.27068C30.4894 2.30468 29.6704 2.33568 28.8504 2.34068C28.8434 2.48168 28.8354 2.62468 28.8304 2.76668C29.8044 2.79868 30.7804 2.73168 31.7524 2.80768C31.955 3.09648 32.1273 3.40545 32.2664 3.72968C32.0664 3.98668 31.8414 4.22068 31.6214 4.45868C31.5324 4.59168 31.3594 4.56468 31.2214 4.57168C29.8554 4.57168 28.4894 4.57168 27.1214 4.57168C26.7734 4.58568 26.5214 4.31768 26.2214 4.18668C26.1914 4.73468 26.2124 5.28668 26.2054 5.83068C24.3124 5.84468 22.4184 5.85268 20.5254 5.83068C20.5254 4.80068 20.5254 3.77168 20.5254 2.74168C21.8744 2.74168 23.2254 2.74168 24.5724 2.74168C24.5794 3.10868 24.5784 3.47468 24.5724 3.84168C23.6834 3.86068 22.7924 3.84168 21.9024 3.85168C21.866 4.22029 21.8623 4.59141 21.8914 4.96068C22.9344 4.98968 23.9794 4.97468 25.0234 4.96668C25.0404 4.22668 25.0234 3.48668 25.0234 2.74568C25.6584 2.74568 26.2934 2.74568 26.9234 2.74568C27.2164 3.04568 27.4524 3.39468 27.7354 3.70368C27.8124 3.82268 27.9684 3.78368 28.0894 3.79568C29.0464 3.79568 30.0034 3.79568 30.9604 3.79568C30.9004 3.63068 30.8344 3.46768 30.7604 3.30568C29.9234 3.30568 29.0864 3.30568 28.2494 3.30568C27.9624 3.34668 27.8494 3.03368 27.7024 2.85568C27.4724 2.56968 27.5774 2.19068 27.5744 1.86068Z" fill="#FDFEFD"/>
<path d="M7.02516 1.97288C7.31785 1.93768 7.61334 1.93199 7.90717 1.95588C7.90717 2.09088 7.90116 2.22588 7.89516 2.36088C7.60116 2.36688 7.30716 2.36688 7.01416 2.36088C7.01516 2.22988 7.01916 2.10188 7.02516 1.97288Z" fill="#FDFEFD"/>
<path d="M8.48848 1.96342C8.77686 1.93667 9.0671 1.93667 9.35548 1.96342C9.35548 2.09742 9.35548 2.23242 9.35548 2.36342C9.06548 2.36342 8.77548 2.36342 8.48548 2.36342C8.48048 2.22842 8.48348 2.09642 8.48848 1.96342Z" fill="#FDFEFD"/>
<path d="M15.1131 1.96141C15.4007 1.93344 15.6904 1.93344 15.9781 1.96141C15.9781 2.09341 15.9781 2.22541 15.9781 2.35641C15.6881 2.36441 15.3991 2.36441 15.1081 2.35641C15.1061 2.22841 15.1091 2.09441 15.1131 1.96141Z" fill="#FDFEFD"/>
<path d="M17.3975 3.22761C17.9775 3.19961 18.5585 3.21761 19.1385 3.21761C19.1875 3.66361 19.1725 4.11761 19.1805 4.56061C18.5885 4.56661 17.9945 4.57561 17.4035 4.55461C17.4005 4.11161 17.4035 3.66961 17.3975 3.22761Z" fill="#FDFEFD"/>
<path d="M26.9304 5.46484C27.2074 5.46484 27.4854 5.46484 27.7634 5.47884C27.7634 5.61184 27.7634 5.74385 27.7634 5.87885C27.4684 5.88985 27.1744 5.89285 26.8804 5.87885C26.8974 5.73985 26.9124 5.60284 26.9304 5.46484Z" fill="#FDFEFD"/>
<path d="M28.2513 5.47573C28.5414 5.46056 28.8322 5.46056 29.1223 5.47573C29.1223 5.61273 29.1223 5.75073 29.1223 5.88773C28.8333 5.88773 28.5453 5.88773 28.2573 5.88173C28.2513 5.74473 28.2503 5.61073 28.2513 5.47573Z" fill="#FDFEFD"/>
<path d="M1.67529 6.66455C12.586 6.66455 23.4966 6.66455 34.4073 6.66455V6.90455C23.4966 6.89922 12.586 6.89922 1.67529 6.90455V6.66455Z" fill="#FDFEFD"/>
<path d="M1.67529 17.0356C12.586 17.041 23.4966 17.041 34.4073 17.0356V17.2776C23.4966 17.2776 12.586 17.2776 1.67529 17.2776V17.0356Z" fill="#FDFEFD"/>
<path d="M29.2823 17.9976C29.8603 17.9976 30.4373 17.9976 31.0163 17.9976C31.0078 18.2476 31.0125 18.498 31.0303 18.7476C31.4013 18.7416 31.7713 18.7476 32.1423 18.7476C32.1423 18.9306 32.1423 19.1136 32.1303 19.2966C31.7483 19.2966 31.3663 19.2966 30.9863 19.3036C30.9863 19.9126 30.9863 20.5216 30.9863 21.1306C31.3531 21.1191 31.7202 21.1261 32.0863 21.1516C32.0863 21.3669 32.0863 21.5826 32.0863 21.7986C31.5793 21.8366 31.0703 21.8076 30.5633 21.8186C30.2087 21.8579 29.8509 21.7814 29.5433 21.6006C29.4636 21.5384 29.399 21.4589 29.3545 21.3682C29.3099 21.2774 29.2866 21.1777 29.2863 21.0766C29.2553 20.5056 29.3133 19.9316 29.2523 19.3616C28.9693 19.3686 28.6863 19.3716 28.4033 19.3616C28.4033 19.1576 28.4033 18.9542 28.4033 18.7516C28.6883 18.7446 28.9733 18.7516 29.2593 18.7436C29.2753 18.4946 29.2753 18.2466 29.2823 17.9976Z" fill="#FDFEFD"/>
<path d="M6.09031 19.1745C6.60183 18.889 7.16884 18.717 7.75278 18.6702C8.33672 18.6235 8.92388 18.703 9.47431 18.9035C9.90031 19.0805 10.3743 19.4035 10.3923 19.9035C10.4123 20.5135 10.3923 21.1245 10.4033 21.7345C9.83531 21.7715 9.26631 21.7515 8.69731 21.7455C8.68231 21.2065 8.70731 20.6675 8.68931 20.1295C8.68806 20.0081 8.65355 19.8894 8.58956 19.7863C8.52556 19.6832 8.43451 19.5995 8.32631 19.5445C7.8684 19.343 7.35451 19.3076 6.87331 19.4445C6.57331 19.5295 6.20131 19.7015 6.15131 20.0445C6.12631 20.6205 6.15131 21.1965 6.14231 21.7715C5.57931 21.7775 5.01731 21.7715 4.45431 21.7715C4.41831 20.8015 4.43931 19.8295 4.44331 18.8595C4.98131 18.8595 5.51931 18.8515 6.05831 18.8595C6.06831 18.9645 6.07831 19.0695 6.09031 19.1745Z" fill="#FDFEFD"/>
<path d="M16.5303 19.4464C17.1543 18.9738 17.91 18.7075 18.6923 18.6844C19.6242 18.5762 20.5683 18.7006 21.4403 19.0464C21.7244 19.1619 21.9684 19.3582 22.142 19.6109C22.3157 19.8637 22.4114 20.1618 22.4173 20.4684C20.9383 20.5064 19.4553 20.4404 17.9773 20.5014C17.9966 20.6103 18.039 20.7139 18.1016 20.8051C18.1642 20.8964 18.2456 20.9732 18.3403 21.0304C18.7341 21.2036 19.1674 21.2672 19.5943 21.2144C20.0063 21.2144 20.3223 20.8654 20.7403 20.8984C21.2683 20.9054 21.7963 20.8874 22.3243 20.9164C21.8297 21.4374 21.1619 21.7599 20.4463 21.8234C19.5763 21.9545 18.6902 21.9335 17.8273 21.7614C17.5351 21.7228 17.2535 21.6265 16.9989 21.478C16.7443 21.3295 16.5218 21.1318 16.3443 20.8964C16.2002 20.671 16.1398 20.402 16.1738 20.1366C16.2078 19.8712 16.334 19.6262 16.5303 19.4444M18.0143 19.9354C18.8713 20.0004 19.7343 19.9834 20.5933 19.9754C20.4943 19.7771 20.3398 19.6118 20.1486 19.4996C19.9574 19.3875 19.7378 19.3332 19.5163 19.3434C19.2359 19.2997 18.9489 19.3317 18.685 19.4362C18.4211 19.5406 18.1899 19.7136 18.0153 19.9374L18.0143 19.9354Z" fill="#FDFEFD"/>
<path d="M7.68722 7.70068C9.87222 7.70068 12.0582 7.70068 14.2432 7.70068C14.2702 8.88768 14.2192 10.0767 14.2682 11.2637C14.6025 11.0649 14.9181 10.8363 15.2112 10.5807C16.4322 9.67069 17.6112 8.70269 18.8352 7.80269C18.9767 7.77471 19.1211 7.76429 19.2652 7.77168C22.0232 7.78368 24.7812 7.75368 27.5382 7.78568C27.0942 8.16942 26.6288 8.52766 26.1442 8.85869C25.3682 9.48969 24.5232 10.0337 23.7522 10.6717C23.4382 10.9347 23.0862 11.1497 22.7622 11.3987C22.6852 11.5207 22.8492 11.6067 22.9152 11.6917C23.6332 12.2917 24.3342 12.9167 25.0682 13.5017C25.9342 14.2277 26.7832 14.9727 27.6572 15.6897C27.7683 15.7848 27.8667 15.8937 27.9502 16.0137C24.9742 16.0397 21.9972 16.0137 19.0212 16.0267C18.8957 16.0296 18.7702 16.0253 18.6452 16.0137C18.4344 15.8519 18.2416 15.6678 18.0702 15.4647C17.1522 14.5507 16.2582 13.6117 15.3442 12.6927C14.9692 12.3247 14.6312 11.9197 14.2252 11.5837C14.2386 12.0883 14.2212 12.5932 14.1732 13.0957C14.1642 14.0957 14.1732 15.0957 14.1732 16.0957C13.9372 16.1157 13.7012 16.1487 13.4632 16.1497C11.7452 16.1497 10.0272 16.1497 8.30822 16.1497C8.10126 16.1461 7.89477 16.1283 7.69021 16.0967C7.69621 13.2987 7.67322 10.4997 7.68722 7.70068Z" fill="#FAE80C"/>
</svg>
