<svg width="22" height="22" viewBox="0 0 22 22" fill="none" xmlns="http://www.w3.org/2000/svg">
<path d="M20.999 9.71377C20.9802 9.77429 20.9598 9.83428 20.9426 9.89532C20.7276 10.6539 20.2495 11.1583 19.4928 11.3931C19.4406 11.4103 19.3832 11.4265 19.3185 11.4453C19.3185 12.1261 19.3153 12.8016 19.3185 13.4798C19.3185 13.676 19.2845 13.845 19.0899 13.9347C18.8952 14.0245 18.7433 13.9462 18.5941 13.8179C17.7159 13.0635 16.835 12.3118 15.9512 11.5626C15.9004 11.5155 15.8362 11.4852 15.7675 11.476C15.4883 11.4666 15.2091 11.4719 14.9022 11.4719V11.7071C14.9022 13.2621 14.9022 14.8173 14.9022 16.3726C14.9022 17.6048 14.0056 18.5016 12.7739 18.5021C10.6258 18.5021 8.47826 18.5021 6.33015 18.5079C6.21143 18.5125 6.09745 18.5557 6.00553 18.631C5.12406 19.3718 4.25042 20.122 3.37312 20.868C3.31414 20.9201 3.24682 20.9582 3.18315 21.0031H2.94882C2.74006 20.8987 2.66856 20.7276 2.67221 20.4934C2.68369 19.8236 2.67639 19.1537 2.67639 18.4734C2.22809 18.3691 1.84136 18.1667 1.53762 17.8276C1.18794 17.4519 0.995576 16.9566 1.00008 16.4435C1.00008 14.3279 1.00008 12.2125 1.00008 10.0972C0.999528 9.82666 1.05236 9.55866 1.15556 9.30855C1.25875 9.05843 1.41028 8.83112 1.60147 8.63962C1.79266 8.44812 2.01975 8.29618 2.26975 8.19252C2.51976 8.08886 2.78776 8.0355 3.05841 8.0355C4.32139 8.03185 5.58437 8.0355 6.84734 8.0355H7.09316V7.80492C7.09316 6.24994 7.09316 4.69445 7.09316 3.13843C7.09316 1.90359 7.9882 1.00577 9.21778 1.00473C10.2334 1.00473 11.249 1.00473 12.2646 1.00473C12.4916 1.00473 12.6513 1.14036 12.6758 1.34017C12.6892 1.43137 12.6695 1.52433 12.6203 1.60229C12.5711 1.68025 12.4957 1.73808 12.4076 1.76535C12.3381 1.78099 12.2668 1.78696 12.1957 1.78308C11.2257 1.78308 10.2556 1.78308 9.28563 1.78308C8.41355 1.78308 7.87286 2.32251 7.87286 3.19164C7.87286 5.22239 7.87286 7.25315 7.87286 9.2839C7.87286 10.1431 8.41615 10.6872 9.27414 10.6872C11.4744 10.6872 13.6747 10.6864 15.875 10.6846C16.0517 10.679 16.2236 10.7424 16.3541 10.8615C17.0326 11.4489 17.7189 12.029 18.4025 12.6112C18.4359 12.6399 18.4709 12.666 18.5283 12.7119C18.533 12.6321 18.5388 12.5778 18.5393 12.5231C18.5393 12.0535 18.5393 11.584 18.5393 11.1171C18.5393 10.849 18.676 10.7086 18.9396 10.6909C19.7151 10.6387 20.2182 10.1035 20.2187 9.32251C20.2208 7.26532 20.2208 5.20848 20.2187 3.15199C20.2187 2.33398 19.664 1.78621 18.8409 1.78465C17.8382 1.78465 16.8357 1.78465 15.8333 1.78465C15.66 1.78465 15.5081 1.72518 15.4612 1.56137C15.4272 1.44399 15.4314 1.27965 15.492 1.18158C15.5301 1.13201 15.5785 1.09119 15.6337 1.06185C15.689 1.03252 15.7499 1.01535 15.8124 1.01151C16.8995 1.00003 17.9866 0.992727 19.0737 1.01151C19.9531 1.02559 20.7558 1.73665 20.9572 2.63917C20.9671 2.68143 20.9859 2.7216 21 2.76281L20.999 9.71377ZM14.1241 11.451H8.62491C8.64057 11.4943 8.66144 11.5553 8.68441 11.6148C9.14019 12.823 9.59597 14.0316 10.0518 15.2405C10.1561 15.5139 10.0721 15.7393 9.843 15.8238C9.62276 15.9057 9.4208 15.7914 9.31798 15.5254C9.23344 15.3073 9.15828 15.0856 9.06382 14.8722C9.04755 14.8418 9.02448 14.8156 8.99642 14.7956C8.96836 14.7757 8.93606 14.7624 8.90203 14.7569C8.27124 14.7486 7.63993 14.7486 7.00809 14.7569C6.97401 14.762 6.94158 14.775 6.91333 14.7947C6.88508 14.8144 6.86179 14.8404 6.84526 14.8707C6.7461 15.096 6.66573 15.3297 6.57701 15.5598C6.51647 15.7163 6.41209 15.8248 6.23726 15.8431C5.92099 15.8765 5.72372 15.588 5.84688 15.2619C6.17985 14.3813 6.51751 13.5033 6.85308 12.6237C7.09107 11.9977 7.32801 11.3759 7.57539 10.7264C7.09525 10.2021 7.05349 9.52649 7.10151 8.81438H6.92407C5.66109 8.81438 4.39863 8.81438 3.13565 8.81438C2.33194 8.81438 1.77874 9.37311 1.77874 10.1833C1.77874 12.2398 1.77874 14.2964 1.77874 16.3533C1.77874 17.1322 2.28341 17.6659 3.05946 17.7201C3.3204 17.7378 3.4561 17.8797 3.45871 18.1484C3.45871 18.4672 3.45871 18.7859 3.45871 19.1052V19.751C3.53229 19.6921 3.573 19.6618 3.6111 19.629C4.28955 19.0504 4.96801 18.4745 5.64647 17.8912C5.77682 17.7735 5.94793 17.7112 6.12348 17.7175C8.31751 17.722 10.5114 17.7231 12.7051 17.7206C13.5923 17.7206 14.1262 17.1838 14.1267 16.2985C14.1267 14.7627 14.1267 13.2266 14.1267 11.6904L14.1241 11.451ZM8.72511 13.9655C8.46938 13.2873 8.22357 12.6368 7.95741 11.9309C7.68863 12.6363 7.43917 13.292 7.18345 13.9655H8.72511Z" fill="#567AB8" stroke="#567AB8" stroke-width="0.3"/>
</svg>
