<svg width="8" height="16" viewBox="0 0 8 16" fill="none" xmlns="http://www.w3.org/2000/svg">
<path d="M7.2354 2.18528L1.56933 8.10249C1.54656 8.12622 1.52869 8.1542 1.51675 8.18484C1.50481 8.21548 1.49903 8.24817 1.49974 8.28105C1.50045 8.31392 1.50765 8.34633 1.52091 8.37643C1.53416 8.40652 1.55323 8.4337 1.57701 8.45641L7.49422 14.1225C7.62975 14.2617 7.70594 14.4482 7.70672 14.6425C7.7075 14.8368 7.63283 15.0239 7.49843 15.1643C7.36403 15.3046 7.18039 15.3873 6.98621 15.395C6.79203 15.4026 6.60246 15.3346 6.45745 15.2052L0.540235 9.53914C0.374229 9.3802 0.241157 9.19011 0.148618 8.97973C0.0560795 8.76936 0.005886 8.54282 0.000904005 8.31304C-0.004078 8.08327 0.0362491 7.85476 0.119583 7.64058C0.202916 7.42639 0.327624 7.23071 0.486584 7.06472L6.15267 1.14851C6.29194 1.01298 6.47838 0.936794 6.67271 0.93601C6.86704 0.935225 7.05409 1.0099 7.19445 1.1443C7.3348 1.2787 7.41752 1.46234 7.42516 1.65652C7.4328 1.8507 7.36477 2.04027 7.2354 2.18528Z" fill="black"/>
</svg>
