<svg width="19" height="20" viewBox="0 0 19 20" fill="none" xmlns="http://www.w3.org/2000/svg">
<g clip-path="url(#clip0_5_413)">
<path d="M2.35253 4.21032C3.79594 2.78497 5.71514 2 7.75639 2C9.79768 2 11.7168 2.78494 13.1603 4.21032C14.6037 5.63563 15.3987 7.53063 15.3987 9.54632C15.3987 11.562 14.6037 13.4571 13.1603 14.8824L8.134 19.8456C8.02972 19.9486 7.89304 20 7.75639 20C7.61971 20 7.48304 19.9485 7.37879 19.8456L2.35263 14.8825C0.909189 13.4571 0.114284 11.562 0.114248 9.54635C0.114284 7.53059 0.909154 5.63559 2.35253 4.21032ZM5.35634 11.9162C5.9974 12.5492 6.84973 12.8979 7.75636 12.8979C8.66298 12.8979 9.51532 12.5493 10.1563 11.9162C10.7974 11.2832 11.1505 10.4416 11.1505 9.54632C11.1505 8.6511 10.7974 7.80945 10.1563 7.17639C9.51532 6.54337 8.66298 6.19475 7.75636 6.19475C6.84973 6.19475 5.9974 6.54337 5.35634 7.17639C4.71527 7.80938 4.3622 8.65103 4.3622 9.54628C4.36223 10.4415 4.71531 11.2832 5.35634 11.9162Z" fill="#686868"/>
</g>
<defs>
<clipPath id="clip0_5_413">
<rect width="18.2286" height="20" fill="white" transform="matrix(-1 0 0 1 18.3428 0)"/>
</clipPath>
</defs>
</svg>
