<svg width="43" height="22" viewBox="0 0 43 22" fill="none" xmlns="http://www.w3.org/2000/svg">
<path d="M40.5483 5.17822C40.4048 5.09362 40.2614 5.00055 40.0842 4.87363C40.0505 4.84825 39.9999 4.83979 39.9577 4.86517C39.713 4.99208 39.4514 5.119 39.1224 5.26283C39.0633 5.28822 38.9958 5.26283 38.9705 5.21207C38.7933 4.91594 38.6499 4.64519 38.5318 4.39136C38.5149 4.35751 38.4812 4.33213 38.4474 4.32367C38.4474 4.32367 38.4305 4.32367 38.4221 4.32367C38.2196 4.32367 38.034 4.30675 37.8652 4.28983C38.0593 4.2306 38.2702 4.17983 38.5233 4.12907C38.574 4.12061 38.6246 4.13753 38.6583 4.17983C38.8186 4.39982 38.9789 4.63672 39.1393 4.89055L39.1561 4.91594H39.1814C39.4599 4.79748 39.7299 4.69595 39.9914 4.6198C40.042 4.60288 40.0927 4.6198 40.1264 4.66211C40.3036 4.85671 40.4386 5.02593 40.5567 5.18669L40.5483 5.17822Z" fill="#BD9473"/>
<path d="M39.4691 3.29158C39.1485 3.19005 38.811 3.06313 38.4145 2.89392C38.3301 2.86007 38.2288 2.86853 38.1529 2.93622C37.7311 3.30004 37.2586 3.66386 36.668 4.08691C36.5667 4.16306 36.4233 4.14613 36.3389 4.05306C35.858 3.53695 35.4614 3.0716 35.1071 2.63163C35.0564 2.5724 34.9889 2.53856 34.9046 2.53856C34.8877 2.53856 34.8708 2.53856 34.8539 2.53856C34.449 2.62317 34.0862 2.68239 33.7402 2.71624C34.0946 2.51317 34.4912 2.31857 34.9721 2.10705C35.0649 2.06474 35.183 2.08167 35.2589 2.14935C35.6724 2.51317 36.0858 2.91084 36.5161 3.35927L36.5498 3.40157L36.592 3.36773C37.0898 3.02929 37.5876 2.71624 38.0685 2.43703C38.1613 2.38626 38.2795 2.39472 38.3638 2.45395C38.8026 2.767 39.1485 3.03775 39.4522 3.30004L39.4691 3.29158Z" fill="#BD9473"/>
<path opacity="0.47" d="M34.7521 5.99034C34.5749 6.0411 34.3977 6.10033 34.2121 6.16802C34.1277 5.86342 34.0434 5.56729 33.959 5.2627C34.229 5.4996 34.499 5.74497 34.7521 5.99034Z" fill="#D7A556"/>
<path d="M19.9363 18.1153C19.5904 18.0476 19.2276 17.9715 18.8479 17.9122C16.9495 17.5907 14.7136 17.3792 12.2078 17.4723C7.22136 17.65 3.25586 18.9445 0.75 19.9936C6.45358 18.7076 11.6172 18.4284 16.1733 18.733C16.612 18.7583 17.0423 18.8006 17.4726 18.8345C17.5232 18.8176 17.5654 18.8006 17.616 18.7922C18.1138 18.623 18.6201 18.4707 19.1263 18.3353C19.3963 18.2591 19.6579 18.1915 19.9278 18.1238L19.9363 18.1153ZM17.6667 18.7837H17.6245C17.6245 18.7837 17.5907 18.7922 17.5823 18.8006L17.6751 18.7837H17.6667Z" fill="#839ED0"/>
<path d="M13.33 20.7891C13.33 20.7891 13.3131 20.7891 13.3047 20.806H13.3384V20.7891H13.33ZM17.6161 18.7754C17.6161 18.7754 17.5824 18.7839 17.5739 18.7923L17.6667 18.7754H17.6246H17.6161Z" fill="#839ED0"/>
<path d="M41.9663 19.4178C34.9971 16.7018 27.1842 16.2787 19.9366 18.1063C19.6666 18.174 19.3966 18.2417 19.1351 18.3178C18.6289 18.4532 18.1226 18.6055 17.6248 18.7747H17.667L17.5742 18.7916C17.5742 18.7916 17.6079 18.7832 17.6164 18.7747C17.5658 18.7916 17.5236 18.8001 17.473 18.817C15.9036 19.3162 14.2752 20.0269 12.7059 20.763C12.0309 21.0761 11.3644 21.3976 10.7147 21.7107L13.364 21.0761C15.9121 20.4923 21.8181 18.9439 24.3493 18.6563C30.5338 17.7848 36.8786 18.1825 42.9197 19.807C42.6075 19.6716 42.2869 19.5447 41.9663 19.4178ZM13.305 20.8053C13.305 20.8053 13.3218 20.7969 13.3303 20.7884L13.2965 20.8053H13.305Z" fill="#839ED0"/>
<g opacity="0.53">
<path d="M16.9501 18.4707C16.9501 18.4707 16.9164 18.4792 16.9079 18.4876L17.0007 18.4707H16.9585H16.9501ZM12.664 20.4844C12.664 20.4844 12.6471 20.4929 12.6387 20.5013H12.6724V20.4844H12.664Z" fill="#5679B6"/>
<path d="M19.9365 18.1152C19.5905 18.0475 19.2277 17.9713 18.8481 17.9121C18.7215 17.946 18.5949 17.9798 18.4684 18.0136C17.9621 18.149 17.4559 18.3013 16.9581 18.4705H17.0003L16.9075 18.4875C16.9075 18.4875 16.9412 18.479 16.9497 18.4705C16.6966 18.5467 16.4434 18.6313 16.1819 18.7244C16.6206 18.7497 17.0509 18.792 17.4812 18.8259C17.5318 18.809 17.574 18.792 17.6247 18.7836C18.1224 18.6144 18.6287 18.4621 19.1349 18.3267C19.4049 18.2505 19.6665 18.1829 19.9365 18.1152ZM17.6668 18.7836H17.6247C17.6247 18.7836 17.5909 18.792 17.5825 18.8005L17.6753 18.7836H17.6668Z" fill="#5679B6"/>
</g>
<path d="M39.7637 20.5683C32.9633 19.9592 26.1291 20.1538 19.3624 21.0929C22.2142 20.1876 25.2601 19.773 28.2384 19.5784C32.0942 19.3669 36.0175 19.6207 39.7637 20.5683Z" fill="#839ED0"/>
<path d="M31.8321 0C31.309 6.19341 28.8706 11.8284 25.1076 16.3212C25.057 16.3212 25.0063 16.3296 24.9557 16.3381C23.2767 16.5581 21.6314 16.8796 20.0368 17.3026C19.8681 17.2688 19.6824 17.2434 19.5053 17.218C15.042 16.5665 10.6462 16.7357 6.46973 17.6157C10.7305 12.886 13.4473 6.75183 13.8861 0H31.8321Z" fill="#BD9473"/>
<path d="M39.5279 17.3956C37.6717 16.871 35.7649 16.4988 33.8159 16.2872C33.0397 14.9927 32.5419 13.529 32.3984 11.9468C32.2634 13.4359 31.7994 14.8404 31.1075 16.0757H31.0991C30.3566 16.0419 29.6057 16.0334 28.8464 16.0503C27.9858 16.0673 27.1167 16.118 26.2393 16.1942C29.6395 11.8876 31.85 6.62485 32.39 0.854492C32.5672 2.77513 32.93 4.63653 33.4615 6.42179C34.6765 10.5253 36.7689 14.2566 39.5195 17.3872L39.5279 17.3956Z" fill="#BD9473"/>
<path d="M12.5873 3.67252C12.0642 6.3208 11.1699 8.85908 9.94647 11.2197C8.84962 13.3265 7.49123 15.2979 5.88815 17.0831L5.55066 17.4554C5.09505 17.5569 4.66475 17.6669 4.25977 17.7769C4.27664 17.5231 4.29351 17.2693 4.31883 17.0154C4.89256 11.5243 7.90465 6.64231 12.5873 3.66406V3.67252Z" fill="#F1C679"/>
<path d="M40.0844 16.8373C37.3676 13.7321 35.3596 10.077 34.2121 6.16802C34.1277 5.86342 34.0434 5.56729 33.959 5.2627C34.229 5.4996 34.499 5.74497 34.7521 5.99034C37.722 8.88398 39.6119 12.7168 40.0844 16.8373Z" fill="#F1C679"/>
<path opacity="0.5" d="M33.47 6.43058C32.4153 7.01438 31.3775 7.95355 30.5254 9.53574C29.3695 11.6848 29.0573 14.0623 28.8464 16.0591C27.9858 16.076 27.1167 16.1268 26.2393 16.203C29.6395 11.8963 31.85 6.63364 32.39 0.863281C32.5672 2.78391 32.93 4.64532 33.4615 6.43058H33.47Z" fill="#8A6D52"/>
<path opacity="0.47" d="M9.94647 11.2272C8.84962 13.334 7.49123 15.3054 5.88815 17.0906L5.55066 17.4629C5.09505 17.5645 4.66475 17.6744 4.25977 17.7844C4.27664 17.5306 4.29351 17.2768 4.31883 17.023C5.1963 15.3054 7.39842 13.0802 9.94647 11.2188V11.2272Z" fill="#D7A556"/>
<path opacity="0.23" d="M22.8047 0.863119C21.8091 0.846197 19.1176 0.913885 16.6539 2.6653C16.0718 3.07989 14.7134 4.06135 13.7937 5.872C13.5068 6.43042 13.3297 6.93807 13.22 7.30189C13.5575 6.07506 13.8696 4.68746 14.0721 3.15603C14.1818 2.35224 14.2578 1.59076 14.2999 0.863119C17.1349 0.863119 19.9613 0.863119 22.7962 0.863119H22.8047Z" fill="#DBB9A0"/>
</svg>
