<svg width="38" height="25" viewBox="0 0 38 25" fill="none" xmlns="http://www.w3.org/2000/svg">
<path d="M35.6658 0.0869141H2.27446C1.12186 0.0869141 0.1875 1.02128 0.1875 2.17387V22C0.1875 23.1526 1.12186 24.0869 2.27446 24.0869H35.6658C36.8184 24.0869 37.7527 23.1526 37.7527 22V2.17387C37.7527 1.02128 36.8184 0.0869141 35.6658 0.0869141Z" fill="#212B36"/>
<path d="M22.7934 5.65381H14.8599V18.6023H22.7934V5.65381Z" fill="#F26122"/>
<path d="M15.7144 12.127C15.7109 10.8843 15.9884 9.6569 16.5262 8.53658C17.0639 7.41625 17.848 6.43201 18.8198 5.65745C17.6055 4.7048 16.1477 4.11286 14.6131 3.94922C13.0784 3.78558 11.5286 4.05685 10.1407 4.73203C8.75284 5.40722 7.58283 6.45911 6.7643 7.76757C5.94577 9.07603 5.51172 10.5883 5.51172 12.1317C5.51172 13.6751 5.94577 15.1874 6.7643 16.4958C7.58283 17.8043 8.75284 18.8562 10.1407 19.5314C11.5286 20.2066 13.0784 20.4778 14.6131 20.3142C16.1477 20.1506 17.6055 19.5586 18.8198 18.606C17.8451 17.8319 17.059 16.8465 16.5211 15.7241C15.9831 14.6017 15.7073 13.3717 15.7144 12.127Z" fill="#EA1D25"/>
<path d="M32.1399 12.1304C32.1353 13.6733 31.6978 15.184 30.8772 16.4905C30.0565 17.7971 28.8856 18.8471 27.4978 19.5212C26.1099 20.1952 24.5607 20.4662 23.0264 20.3034C21.4921 20.1405 20.0343 19.5504 18.8188 18.6C19.7969 17.8289 20.5876 16.8462 21.1314 15.7256C21.6752 14.6051 21.9581 13.3759 21.9587 12.1304C21.9593 10.8835 21.6771 9.65269 21.1332 8.53063C20.5894 7.40857 19.7981 6.4245 18.8188 5.65252C20.0333 4.69584 21.4926 4.10061 23.0297 3.93503C24.5668 3.76945 26.1194 4.04022 27.5097 4.71631C28.9 5.39241 30.0717 6.44647 30.8906 7.75775C31.7095 9.06902 32.1425 10.5845 32.1399 12.1304Z" fill="#F69E1E"/>
</svg>
