<svg width="41" height="41" viewBox="0 0 41 41" fill="none" xmlns="http://www.w3.org/2000/svg">
<g clip-path="url(#clip0_329_1335)">
<path d="M20.0586 0.295898C9.04539 0.295898 0.0585938 9.2841 0.0585938 20.2959C0.0585938 31.3091 9.0468 40.2959 20.0586 40.2959C31.0718 40.2959 40.0586 31.3077 40.0586 20.2959C40.0586 9.2827 31.0704 0.295898 20.0586 0.295898ZM20.0586 37.9521C10.3229 37.9521 2.40234 30.0316 2.40234 20.2959C2.40234 10.5602 10.3229 2.63965 20.0586 2.63965C29.7943 2.63965 37.7148 10.5602 37.7148 20.2959C37.7148 30.0316 29.7943 37.9521 20.0586 37.9521Z" fill="#567AB8"/>
<path d="M32.4626 11.4808L31.6589 10.353L10.1156 31.8965C11.7195 33.0396 14.8476 35.5304 20.0586 35.5304C28.4589 35.5304 35.293 28.6963 35.293 20.2961C35.293 17.1275 34.3144 14.0792 32.4626 11.4808ZM20.0586 33.1867C17.8465 33.1867 15.7029 32.6217 13.7846 31.542L31.3045 14.022C32.3843 15.9403 32.9493 18.084 32.9493 20.2961C32.9493 27.404 27.1665 33.1867 20.0586 33.1867Z" fill="#567AB8"/>
<path d="M20.0586 5.06152C11.6584 5.06152 4.82422 11.8957 4.82422 20.2959C4.82422 23.4644 5.80289 26.5127 7.65445 29.1111L8.45812 30.239L30.0017 8.69543C28.3977 7.55238 25.2697 5.06152 20.0586 5.06152ZM7.16797 20.2959C7.16797 13.188 12.9507 7.40527 20.0586 7.40527C22.2707 7.40527 24.4143 7.97027 26.3327 9.04996L8.81266 26.57C7.73289 24.6516 7.16797 22.508 7.16797 20.2959Z" fill="#567AB8"/>
</g>
<defs>
<clipPath id="clip0_329_1335">
<rect width="40" height="40" fill="white" transform="translate(0.0585938 0.295898)"/>
</clipPath>
</defs>
</svg>
