<svg width="121" height="125" viewBox="0 0 121 125" fill="none" xmlns="http://www.w3.org/2000/svg">
<path d="M36.8874 14.5381C32.1023 24.1082 29.2906 36.6211 28.8574 50.0949H50.3651V0.25C45.4539 1.94004 40.6867 6.9394 36.8874 14.5381Z" fill="#567AB8"/>
<path d="M86.5689 50.0946H108.068C106.604 28.339 92.2371 10.0632 72.573 2.87891C74.4381 5.28871 76.1769 8.08471 77.7609 11.252C83.038 21.8069 86.1247 35.4839 86.5689 50.0946Z" fill="#567AB8"/>
<path d="M57.7119 0.25V50.0949H79.2194C78.7859 36.6208 75.9742 24.1082 71.1894 14.5381C67.3898 6.9394 62.6229 1.94004 57.7119 0.25Z" fill="#567AB8"/>
<path d="M69.0304 58.1328C69.1663 57.8974 69.3088 57.6679 69.4548 57.4414H57.7119V77.7366L69.0304 58.1328Z" fill="#567AB8"/>
<path d="M43.3838 102.552L50.3644 90.4615V57.4414H28.8596C29.1954 67.8322 30.9496 77.7009 33.9924 86.1758C36.475 93.0903 39.7368 98.7492 43.3838 102.552Z" fill="#567AB8"/>
<path d="M35.5112 104.661C32.2176 100.419 29.3623 95.0211 27.0779 88.6586C23.7561 79.4063 21.8525 68.6803 21.5106 57.4414H0.00585938C1.46105 78.9048 15.5709 97.4022 35.5112 104.661Z" fill="#567AB8"/>
<path d="M21.5074 50.0946C21.9517 35.4839 25.0386 21.8069 30.3159 11.252C31.8997 8.08447 33.6387 5.28846 35.5036 2.87891C15.8395 10.0632 1.47279 28.3393 0.00830078 50.0946H21.5074Z" fill="#567AB8"/>
<path d="M96.4524 57.4414C96.5981 57.6679 96.7409 57.8974 96.8768 58.1328L104.978 72.164C106.699 67.4335 107.734 62.5108 108.07 57.4416L96.4524 57.4414Z" fill="#567AB8"/>
<path d="M119.439 111.903L90.5142 61.8062C88.9361 59.0732 86.1097 57.4414 82.9537 57.4414C79.7977 57.4414 76.9713 59.0732 75.3932 61.8065L46.4685 111.903C44.8904 114.637 44.8904 117.9 46.4685 120.634C48.0466 123.367 50.873 124.999 54.029 124.999H111.879C115.035 124.999 117.861 123.367 119.439 120.634C121.017 117.9 121.017 114.637 119.439 111.903ZM86.6272 115.816H79.2802V108.469H86.6272V115.816ZM79.2802 99.7503V73.3135H86.6272V99.7503H79.2802Z" fill="#F3C87A"/>
</svg>
