<svg width="25" height="24" viewBox="0 0 25 24" fill="none" xmlns="http://www.w3.org/2000/svg">
<path fill-rule="evenodd" clip-rule="evenodd" d="M20.5757 11.3093C20.9817 11.9204 21.2146 12.6285 21.25 13.3594L21.2234 13.5442C21.254 14.5445 20.9201 15.5223 20.283 16.2983C19.4693 17.1763 18.3569 17.7247 17.16 17.8381C14.2117 18.1617 11.2363 18.1617 8.28799 17.8381C7.10854 17.717 6.01557 17.1687 5.21827 16.2983C4.57062 15.5334 4.22675 14.5603 4.25122 13.5618V13.4386C4.3 12.6858 4.55121 11.9596 4.97873 11.3357L5.0497 11.2477C5.49432 10.7473 5.80006 10.1409 5.9369 9.4879V8.73119V7.67532C6.06271 7.35744 6.3876 7.16252 6.72989 7.19956C7.07218 7.23659 7.34705 7.4964 7.40079 7.8337V8.71359V9.64628C7.40424 9.67845 7.40424 9.7109 7.40079 9.74307C7.21606 10.6508 6.79382 11.4944 6.17645 12.1892C5.9387 12.5648 5.80412 12.9955 5.78608 13.4386V13.6322C5.76638 14.2554 5.97433 14.8647 6.37163 15.348C6.92247 15.9123 7.65907 16.2619 8.44768 16.3335C11.302 16.6415 14.1815 16.6415 17.0358 16.3335C17.846 16.2597 18.6006 15.8934 19.1562 15.304C19.534 14.8322 19.7319 14.2433 19.7151 13.641V13.4386C19.6969 12.994 19.5657 12.5612 19.3336 12.1804C18.6906 11.4935 18.2435 10.6492 18.0383 9.73427C18.0349 9.7021 18.0349 9.66966 18.0383 9.63748V8.696V7.8161C17.781 5.15882 15.1106 3.51342 12.7861 3.51342C11.7979 3.51116 10.8259 3.76277 9.9648 4.24373C9.72637 4.38588 9.42884 4.38806 9.18831 4.24943C8.94779 4.1108 8.80241 3.85333 8.80891 3.5775C8.81541 3.30168 8.97276 3.05122 9.21955 2.92389C10.2865 2.32607 11.4897 2.00808 12.7151 2C15.7848 2 19.2272 4.16454 19.6175 7.64012V8.6784V9.45271C19.7508 10.1069 20.057 10.7142 20.5048 11.2125C20.5313 11.2426 20.555 11.275 20.5757 11.3093ZM13.0018 20.431C13.5232 20.3533 13.9917 20.0725 14.3035 19.6509H14.3123C14.5818 19.3277 15.0645 19.2824 15.3903 19.5497C15.7161 19.817 15.7618 20.2956 15.4923 20.6188C14.828 21.4804 13.8001 21.9901 12.7065 22.0002C11.616 21.9874 10.592 21.478 9.92957 20.6188C9.66008 20.2956 9.70576 19.817 10.0316 19.5497C10.3574 19.2824 10.8401 19.3277 11.1095 19.6509C11.2279 19.8078 11.3683 19.9471 11.5265 20.0644C11.9494 20.3767 12.4804 20.5086 13.0018 20.431Z" fill="#567AB8"/>
</svg>
