<svg width="18" height="20" viewBox="0 0 18 20" fill="none" xmlns="http://www.w3.org/2000/svg">
<path fill-rule="evenodd" clip-rule="evenodd" d="M12.2411 0.244639L17.2916 5.55623C17.4252 5.69717 17.5 5.88443 17.5 6.07973V15.4435C17.5 17.9553 15.4971 20 13.0337 20H5.07002C2.46399 20 0.5 18.0409 0.5 15.4435V12.9206C0.5 12.5038 0.834975 12.1655 1.24771 12.1655C1.66045 12.1655 1.99543 12.5038 1.99543 12.9206V15.4435C1.99543 17.2083 3.28847 18.4899 5.07002 18.4899H13.0337C14.6726 18.4899 16.0046 17.1227 16.0046 15.4435V6.38276L12.1873 2.36887V3.68569C12.1873 4.69647 13.0018 5.51998 14.0027 5.522C14.4154 5.523 14.7494 5.86127 14.7484 6.27907C14.7474 6.69486 14.4134 7.03211 14.0007 7.03211H13.9997C12.1763 7.02809 10.6918 5.52703 10.6918 3.68569V1.5222H5.07002C3.40312 1.5222 1.99543 2.8954 1.99543 4.52129V8.81607C1.99543 9.23286 1.66045 9.57113 1.24771 9.57113C0.834975 9.57113 0.5 9.23286 0.5 8.81607V4.52129C0.5 2.07692 2.5926 0.0120809 5.07002 0.0120809H11.3817C11.3913 0.0111597 11.4 0.00855261 11.4086 0.00599509C11.4188 0.00296268 11.4287 0 11.4395 0C11.4512 0 11.4616 0.0031256 11.472 0.00624198C11.4803 0.00871858 11.4885 0.0111894 11.4974 0.0120809H11.7017C11.9051 0.0120809 12.0995 0.0956408 12.2411 0.244639ZM8.06985 8.52139C8.06985 8.1046 8.40482 7.76633 8.81756 7.76633C9.2303 7.76633 9.56527 8.1046 9.56527 8.52139V10.2339H11.2611C11.6738 10.2339 12.0088 10.5721 12.0088 10.9889C12.0088 11.4057 11.6738 11.744 11.2611 11.744H9.56527V13.4555C9.56527 13.8722 9.2303 14.2105 8.81756 14.2105C8.40482 14.2105 8.06985 13.8722 8.06985 13.4555V11.744H6.37503C5.96229 11.744 5.62732 11.4057 5.62732 10.9889C5.62732 10.5721 5.96229 10.2339 6.37503 10.2339H8.06985V8.52139Z" fill="#200E32"/>
</svg>
