<svg width="32" height="36" viewBox="0 0 32 36" fill="none" xmlns="http://www.w3.org/2000/svg">
<path d="M3.5625 32V33.75C3.5625 34.0981 3.42422 34.4319 3.17808 34.6781C2.93194 34.9242 2.5981 35.0625 2.25 35.0625C1.9019 35.0625 1.56806 34.9242 1.32192 34.6781C1.07578 34.4319 0.9375 34.0981 0.9375 33.75L0.9375 32C0.9375 29.3313 1.99765 26.7718 3.88474 24.8847C5.77182 22.9977 8.33126 21.9375 11 21.9375H21.5C24.1687 21.9375 26.7282 22.9977 28.6153 24.8847C30.5023 26.7718 31.5625 29.3313 31.5625 32V33.75C31.5625 34.0981 31.4242 34.4319 31.1781 34.6781C30.9319 34.9242 30.5981 35.0625 30.25 35.0625C29.9019 35.0625 29.5681 34.9242 29.3219 34.6781C29.0758 34.4319 28.9375 34.0981 28.9375 33.75V32C28.9375 30.0275 28.1539 28.1357 26.7591 26.7409C25.3643 25.3461 23.4725 24.5625 21.5 24.5625H11C9.02745 24.5625 7.13569 25.3461 5.74089 26.7409C4.34609 28.1357 3.5625 30.0275 3.5625 32Z" fill="#B4B4B4"/>
<path d="M16.25 18C14.5194 18 12.8277 17.4868 11.3888 16.5254C9.94983 15.5639 8.82832 14.1973 8.16606 12.5985C7.50379 10.9996 7.33051 9.2403 7.66813 7.54296C8.00575 5.84563 8.83911 4.28653 10.0628 3.06282C11.2865 1.83911 12.8456 1.00575 14.543 0.668133C16.2403 0.330512 17.9996 0.503791 19.5985 1.16606C21.1973 1.82832 22.5639 2.94983 23.5254 4.38876C24.4868 5.82769 25 7.51942 25 9.25C24.9972 11.5698 24.0745 13.7938 22.4341 15.4341C20.7938 17.0745 18.5698 17.9972 16.25 18ZM16.25 3.125C15.0386 3.125 13.8544 3.48423 12.8471 4.15725C11.8399 4.83028 11.0548 5.78687 10.5912 6.90607C10.1277 8.02527 10.0064 9.2568 10.2427 10.4449C10.479 11.6331 11.0624 12.7244 11.919 13.581C12.7756 14.4376 13.8669 15.021 15.0551 15.2573C16.2432 15.4936 17.4747 15.3724 18.5939 14.9088C19.7131 14.4452 20.6697 13.6601 21.3428 12.6529C22.0158 11.6456 22.375 10.4614 22.375 9.25C22.375 7.62555 21.7297 6.06764 20.581 4.91897C19.4324 3.77031 17.8745 3.125 16.25 3.125Z" fill="#B4B4B4"/>
</svg>
