<svg width="21" height="20" viewBox="0 0 21 20" fill="none" xmlns="http://www.w3.org/2000/svg">
<path fill-rule="evenodd" clip-rule="evenodd" d="M14.7751 0H5.83564C2.36417 0 0.0509033 2.4199 0.0509033 5.89317V14.1068C0.0509033 17.5833 2.35807 20 5.83564 20H14.7751C18.2526 20 20.5598 17.5833 20.5598 14.1068V5.89317C20.5598 2.41665 18.2526 0 14.7751 0ZM5.83565 1.39453H14.7751C17.4386 1.39453 19.129 3.16506 19.129 5.89235V14.106C19.129 16.8333 17.4386 18.6038 14.7751 18.6038H5.83565C3.17208 18.6038 1.48176 16.8333 1.48176 14.106V5.89235C1.48176 3.16868 3.17773 1.39453 5.83565 1.39453ZM10.3054 5.88672C10.6675 5.88672 10.9669 6.14919 11.0142 6.48972L11.0208 6.58439V9.29297H13.803C14.1981 9.29297 14.5184 9.60533 14.5184 9.99064C14.5184 10.3438 14.2493 10.6358 13.9001 10.6819L13.803 10.6883H11.0208V13.3996C11.0208 13.7849 10.7005 14.0973 10.3054 14.0973C9.94316 14.0973 9.64383 13.8348 9.59646 13.4943L9.58993 13.3996V10.6883H6.80772C6.4126 10.6883 6.09229 10.376 6.09229 9.99064C6.09229 9.63744 6.36144 9.34554 6.71064 9.29934L6.80772 9.29297H9.58993V6.58439C9.58993 6.19908 9.91023 5.88672 10.3054 5.88672Z" fill="black"/>
</svg>
