<svg width="24" height="24" viewBox="0 0 24 24" fill="none" xmlns="http://www.w3.org/2000/svg">
<path d="M18.4186 18.2746C18.2682 18.1808 18.0692 18.2246 17.9738 18.3725C17.169 19.6206 15.793 20.3658 14.293 20.3658H6.00015C3.59843 20.3658 1.64453 18.4431 1.64453 16.0798V8.48037C1.64453 8.3053 1.50018 8.16327 1.32227 8.16327C1.14435 8.16327 1 8.3053 1 8.48037V16.0798C1 18.7929 3.2431 21 6.00015 21H14.293C16.0149 21 17.5945 20.1447 18.518 18.7123C18.6133 18.5644 18.5688 18.3684 18.4186 18.2746ZM15.5854 9.84802L13.1283 12.2659C13.0024 12.3898 13.0024 12.5906 13.1283 12.7143C13.191 12.7762 13.2736 12.8073 13.356 12.8073C13.4384 12.8073 13.521 12.7762 13.584 12.7143L16.0411 10.2966C16.167 10.1727 16.167 9.97189 16.0411 9.84802C15.9154 9.72432 15.7113 9.72432 15.5854 9.84802ZM22.5337 4.56485L21.4105 3.45963C20.7888 2.84773 19.777 2.84773 19.1553 3.45963L17.9893 4.60697C17.0419 3.58168 15.7143 3 14.293 3H6.00015C4.8499 3 3.72684 3.3939 2.83775 4.10902C1.96126 4.81391 1.34811 5.79873 1.11162 6.88182C1.07419 7.05309 1.18497 7.22171 1.35902 7.25854C1.38185 7.26317 1.40468 7.26564 1.427 7.26564C1.57571 7.26564 1.70932 7.16391 1.74171 7.0151C1.94783 6.07206 2.48175 5.21441 3.24562 4.60003C4.0199 3.97723 4.99811 3.6342 6.00015 3.6342H14.293C15.5411 3.6342 16.7064 4.14915 17.5329 5.05602L14.1058 8.42818H5.11913C4.94104 8.42818 4.79669 8.57004 4.79669 8.74528C4.79669 8.92034 4.94104 9.06237 5.11913 9.06237H13.4613L11.9161 10.5826H5.11913C4.94104 10.5826 4.79669 10.7247 4.79669 10.8999C4.79669 11.075 4.94104 11.217 5.11913 11.217H11.2715L9.27249 13.184C8.69325 13.754 8.21925 14.4113 7.86392 15.1376L6.94664 17.0126C6.69286 17.5317 6.79625 18.1303 7.21016 18.5375C7.47334 18.7965 7.81525 18.9319 8.16504 18.9319C8.36511 18.9319 8.56787 18.8875 8.75972 18.7967L9.68422 18.3588L10.6655 17.8942C11.4035 17.5446 12.0715 17.0782 12.6509 16.5083L18.6487 10.6066V16.0798C18.6487 16.4272 18.6064 16.7725 18.523 17.1065C18.4806 17.2766 18.5863 17.4482 18.7592 17.4899C18.785 17.4962 18.8109 17.4992 18.8362 17.4992C18.9812 17.4992 19.1128 17.4024 19.1489 17.2577C19.2448 16.8744 19.2933 16.478 19.2933 16.0798V9.97238L20.1891 9.09095L22.5337 6.78388C23.1554 6.17198 23.1554 5.17659 22.5337 4.56485ZM8.48026 18.2252C8.14389 18.3846 7.83908 18.2594 7.66586 18.0891C7.49281 17.9187 7.36559 17.6188 7.52756 17.2878L7.79947 16.7317C8.0264 16.9102 8.24661 17.1038 8.45692 17.3108C8.66724 17.5177 8.86395 17.7344 9.04539 17.9577L8.48026 18.2252ZM10.3858 17.3228L9.64008 17.6759C9.41902 17.3938 9.17548 17.1208 8.91263 16.8624C8.64978 16.6037 8.37233 16.3639 8.08582 16.1466L8.44467 15.4128C8.69241 14.9066 9.00327 14.4374 9.37202 14.0123L11.8092 16.4103C11.3771 16.773 10.9003 17.079 10.3858 17.3228ZM12.2798 15.9765L9.81296 13.5492L17.0388 6.43904L19.5056 8.86633L12.2798 15.9765ZM19.9615 8.41794L17.4946 5.99064L18.2902 5.2078L20.7572 7.6351L19.9615 8.41794ZM22.078 6.33532L21.2129 7.18653L18.7461 4.75924L19.611 3.90803C19.7963 3.72569 20.0395 3.63469 20.2829 3.63469C20.5261 3.63469 20.7695 3.72569 20.9546 3.90803L22.0779 5.01325C22.4483 5.37775 22.4483 5.97082 22.078 6.33532ZM5.11913 6.90775H15.1741C15.3521 6.90775 15.4964 6.76588 15.4964 6.59065C15.4964 6.41542 15.3521 6.27355 15.1741 6.27355H5.11913C4.94104 6.27355 4.79669 6.41542 4.79669 6.59065C4.79669 6.76588 4.94104 6.90775 5.11913 6.90775Z" fill="#567AB8"/>
<path d="M9.68422 18.3588L8.75972 18.7967C8.56787 18.8875 8.36511 18.9319 8.16504 18.9319C7.81525 18.9319 7.47334 18.7965 7.21016 18.5375C6.79625 18.1303 6.69286 17.5317 6.94664 17.0126L7.86392 15.1376C8.21925 14.4113 8.69325 13.754 9.27249 13.184L11.2715 11.217H5.11913C4.94104 11.217 4.79669 11.075 4.79669 10.8999C4.79669 10.7247 4.94104 10.5826 5.11913 10.5826H11.9161L13.4613 9.06237H5.11913C4.94104 9.06237 4.79669 8.92034 4.79669 8.74527C4.79669 8.57004 4.94104 8.42818 5.11913 8.42818H14.1058L17.5329 5.05602C16.7064 4.14915 15.5411 3.6342 14.293 3.6342H6.00015C4.99811 3.6342 4.0199 3.97723 3.24562 4.60003C2.48175 5.21441 1.94783 6.07206 1.74171 7.0151C1.70932 7.16391 1.57571 7.26564 1.427 7.26564C1.40468 7.26564 1.38185 7.26317 1.35902 7.25854C1.18497 7.22171 1.07419 7.05309 1.11162 6.88182C1.34811 5.79873 1.96126 4.81391 2.83775 4.10902C3.72684 3.3939 4.8499 3 6.00015 3H14.293C15.7143 3 17.0419 3.58168 17.9893 4.60697L19.1553 3.45963C19.777 2.84773 20.7888 2.84773 21.4105 3.45963L22.5337 4.56485C23.1554 5.17659 23.1554 6.17198 22.5337 6.78388L20.1891 9.09095M9.68422 18.3588V18.3588ZM9.68422 18.3588L10.6655 17.8942C11.4035 17.5446 12.0715 17.0782 12.6509 16.5083L18.6487 10.6066V16.0798C18.6487 16.4272 18.6064 16.7725 18.523 17.1065C18.4806 17.2766 18.5863 17.4482 18.7592 17.4899C18.785 17.4962 18.8109 17.4992 18.8362 17.4992C18.9812 17.4992 19.1128 17.4024 19.1489 17.2577C19.2448 16.8744 19.2933 16.478 19.2933 16.0798V9.97238L20.1891 9.09095M20.1891 9.09095V9.09095ZM18.4186 18.2746C18.2682 18.1808 18.0692 18.2246 17.9738 18.3725C17.169 19.6206 15.793 20.3658 14.293 20.3658H6.00015C3.59843 20.3658 1.64453 18.4431 1.64453 16.0798V8.48037C1.64453 8.3053 1.50018 8.16327 1.32227 8.16327C1.14435 8.16327 1 8.3053 1 8.48037V16.0798C1 18.7929 3.2431 21 6.00015 21H14.293C16.0149 21 17.5945 20.1447 18.518 18.7123C18.6133 18.5644 18.5688 18.3684 18.4186 18.2746ZM15.5854 9.84802L13.1283 12.2659C13.0024 12.3898 13.0024 12.5906 13.1283 12.7143C13.191 12.7762 13.2736 12.8073 13.356 12.8073C13.4384 12.8073 13.521 12.7762 13.584 12.7143L16.0411 10.2966C16.167 10.1727 16.167 9.97189 16.0411 9.84802C15.9154 9.72432 15.7113 9.72432 15.5854 9.84802ZM8.48026 18.2252C8.14389 18.3846 7.83908 18.2594 7.66586 18.0891C7.49281 17.9187 7.36559 17.6188 7.52756 17.2878L7.79947 16.7317C8.0264 16.9102 8.24661 17.1038 8.45692 17.3108C8.66724 17.5177 8.86395 17.7344 9.04539 17.9577L8.48026 18.2252ZM10.3858 17.3228L9.64008 17.6759C9.41902 17.3938 9.17548 17.1208 8.91263 16.8624C8.64978 16.6037 8.37233 16.3639 8.08582 16.1466L8.44467 15.4128C8.69241 14.9066 9.00327 14.4374 9.37202 14.0123L11.8092 16.4103C11.3771 16.773 10.9003 17.079 10.3858 17.3228ZM12.2798 15.9765L9.81296 13.5492L17.0388 6.43904L19.5056 8.86633L12.2798 15.9765ZM19.9615 8.41794L17.4946 5.99064L18.2902 5.2078L20.7572 7.6351L19.9615 8.41794ZM22.078 6.33532L21.2129 7.18653L18.7461 4.75924L19.611 3.90803C19.7963 3.72569 20.0395 3.63469 20.2829 3.63469C20.5261 3.63469 20.7695 3.72569 20.9546 3.90803L22.0779 5.01325C22.4483 5.37775 22.4483 5.97082 22.078 6.33532ZM5.11913 6.90775H15.1741C15.3521 6.90775 15.4964 6.76588 15.4964 6.59065C15.4964 6.41542 15.3521 6.27355 15.1741 6.27355H5.11913C4.94104 6.27355 4.79669 6.41542 4.79669 6.59065C4.79669 6.76588 4.94104 6.90775 5.11913 6.90775Z" stroke="#567AB8" stroke-width="0.4"/>
</svg>
