<svg width="25" height="24" viewBox="0 0 25 24" fill="none" xmlns="http://www.w3.org/2000/svg">
<path fill-rule="evenodd" clip-rule="evenodd" d="M13.3654 2.1005L20.0079 4.36744C20.7509 4.62143 21.25 5.30542 21.25 6.0714V12.7122C21.25 14.7252 20.5019 16.6741 19.1446 18.1951C18.523 18.8921 17.7255 19.4911 16.7067 20.0271L13.1163 21.912C13.0042 21.97 12.8807 22 12.7562 22C12.6327 22 12.5092 21.97 12.397 21.912L8.79946 20.026C7.77863 19.4891 6.98008 18.8901 6.35956 18.1961C5.00018 16.6731 4.25 14.7232 4.25 12.7082C4.25 12.3022 4.58959 11.9723 5.00739 11.9723C5.42518 11.9723 5.76477 12.3022 5.76477 12.7082C5.76477 14.3702 6.3822 15.9762 7.50285 17.2321C8.00194 17.7911 8.66156 18.2811 9.51876 18.7311L12.7562 20.428L15.9864 18.7321C16.8415 18.2831 17.5012 17.7931 18.0013 17.2321C19.1199 15.9772 19.7363 14.3732 19.7363 12.7122V6.0714C19.7363 5.9294 19.6436 5.8034 19.5068 5.75641L12.8642 3.48946C12.7912 3.46446 12.7099 3.46446 12.6358 3.48946L5.99425 5.75641C5.85738 5.8034 5.76477 5.9294 5.76477 6.0714V7.97135C5.76477 8.37834 5.42518 8.70833 5.00739 8.70833C4.58959 8.70833 4.25 8.37834 4.25 7.97135V6.0714C4.25 5.30542 4.75012 4.62143 5.4931 4.36744L12.1346 2.1005C12.5318 1.9665 12.9692 1.9665 13.3654 2.1005ZM12.0367 14.3175C11.835 14.3175 11.6436 14.2395 11.5015 14.1015L9.59162 12.2456C9.29628 11.9576 9.29628 11.4936 9.59162 11.2056C9.88799 10.9176 10.3665 10.9176 10.6618 11.2056L12.0367 12.5406L15.4346 9.23966C15.7299 8.95267 16.2095 8.95267 16.5048 9.23966C16.8002 9.52665 16.8002 9.99264 16.5048 10.2796L12.5718 14.1015C12.4298 14.2395 12.2373 14.3175 12.0367 14.3175Z" fill="#567AB8"/>
</svg>
