<svg width="74" height="76" viewBox="0 0 74 76" fill="none" xmlns="http://www.w3.org/2000/svg">
<path d="M55.1432 27.7518C55.8018 27.7518 56.4272 27.4785 56.8596 27.0029C57.2907 26.5265 57.5039 25.8776 57.4397 25.223L55.925 9.22354C55.8016 7.93513 54.6932 6.92506 53.3985 6.92506H47.4557V3.40185C47.4559 2.06751 46.3693 0.982422 45.0366 0.982422H43.71C42.376 0.982422 41.29 2.06751 41.29 3.40185V6.92519H18.6211C17.3204 6.92519 16.2145 7.94113 16.1045 9.23956L14.7577 25.2332C14.7026 25.8877 14.9191 26.5339 15.353 27.0067C15.7873 27.48 16.4141 27.7519 17.0711 27.7519H18.2808V46.2247C18.2808 46.8932 18.0163 47.9062 17.6881 48.4882L16.1192 51.2646C15.7914 51.8464 15.5235 52.8595 15.5235 53.5281V74.2204C15.5235 74.8903 16.065 75.4304 16.7338 75.4304H55.75C56.4191 75.4304 56.9593 74.8901 56.9593 74.2204V53.5279C56.9593 52.8594 56.6746 51.8569 56.3226 51.2899L54.571 48.4613C54.2197 47.8937 53.9337 46.8924 53.9337 46.2232V27.7518H55.1432ZM55.1432 25.3321H55.1437L55.1432 26.542V25.3321ZM26.1494 61.2901C26.1494 61.9586 25.6086 62.5 24.9398 62.5H21.0298C20.3603 62.5 19.8202 61.9585 19.8202 61.2901V52.0851C19.8202 51.4158 20.3603 50.8745 21.0298 50.8745H24.9398C25.6086 50.8745 26.1494 51.416 26.1494 52.0851V61.2901ZM25.2629 42.6886V33.4824C25.2629 32.8149 25.8037 32.2728 26.4725 32.2728H30.3825C31.052 32.2728 31.5928 32.8149 31.5928 33.4824V42.6886C31.5928 43.3572 31.052 43.8981 30.3825 43.8981H26.4725C25.8049 43.898 25.2629 43.3572 25.2629 42.6886ZM40.6788 65.4302C40.6788 66.0994 40.1374 66.6395 39.4683 66.6395H32.6632C31.9944 66.6395 31.4536 66.0994 31.4536 65.4302V52.0851C31.4536 51.4158 31.9944 50.8745 32.6632 50.8745H39.4683C40.1375 50.8745 40.6788 51.416 40.6788 52.0851V65.4302ZM41.7368 69.2863C41.7368 69.9124 41.196 70.4215 40.5274 70.4215H31.6047C30.9356 70.4215 30.3948 69.9137 30.3948 69.2863C30.3948 68.6595 30.9356 68.1524 31.6047 68.1524H40.5274C41.196 68.1524 41.7368 68.6595 41.7368 69.2863ZM42.0391 73.8988H30.0925C29.4237 73.8988 28.8829 73.424 28.8829 72.8402C28.8829 72.2558 29.4237 71.7809 30.0925 71.7809H42.0391C42.7083 71.7809 43.2497 72.2558 43.2497 72.8402C43.2497 73.424 42.7082 73.8988 42.0391 73.8988ZM41.7805 43.898C41.1112 43.898 40.5704 43.3571 40.5704 42.6885V33.4823C40.5704 32.8148 41.1114 32.2727 41.7805 32.2727H45.6907C46.3599 32.2727 46.9001 32.8148 46.9001 33.4823V42.6885C46.9001 43.3571 46.3599 43.898 45.6907 43.898H41.7805ZM52.1605 61.2901C52.1605 61.9586 51.6197 62.5 50.9512 62.5H47.0403C46.3717 62.5 45.8314 61.9585 45.8314 61.2901V52.0851C45.8314 51.4158 46.3717 50.8745 47.0403 50.8745H50.9512C51.6197 50.8745 52.1605 51.416 52.1605 52.0851V61.2901ZM44.3561 25.3321C44.2733 25.1704 44.2142 24.9935 44.2117 24.8001C44.1922 23.6736 44.1655 21.8652 44.135 19.8265C44.0802 16.4121 41.1226 13.6443 37.5256 13.6443H35.4324C31.8358 13.6443 28.9198 16.4121 28.9198 19.8265V24.7989C28.9198 24.9935 28.8643 25.1706 28.7834 25.3322H17.1789L18.5144 9.44395C18.5182 9.40283 18.5812 9.34462 18.621 9.34462H41.2899C42.6233 9.34462 43.7098 8.25953 43.7098 6.92519V3.40185H45.0364V6.92519C45.0364 8.25953 46.1211 9.34462 47.4557 9.34462H53.3985C53.4433 9.34462 53.513 9.41004 53.5176 9.45356L55.0204 25.3321H44.3561Z" fill="#2E2E2E"/>
<path d="M6.99347 53.6097C4.85119 56.9543 3.88198 60.244 3.56972 63.2173C3.15133 62.6808 2.43416 62.7088 2.05195 63.3045C-1.93718 69.5301 1.36349 75.4298 1.36349 75.4298H2.89834C2.91917 73.9487 2.92638 72.4821 2.90796 71.0109C2.89487 69.1555 2.84294 67.3025 2.88646 65.4183C3.36907 67.2453 3.54689 69.125 3.5796 71.0034C3.58587 72.482 3.49736 73.9773 3.18484 75.4297H4.83664C4.97307 75.0178 5.08802 74.6178 5.18828 74.2228C5.51389 74.9954 5.75365 75.4297 5.75365 75.4297H8.51911C8.55276 72.7647 8.57024 70.1255 8.535 67.4769C8.51284 64.1373 8.41752 60.8008 8.49482 57.4115C9.36471 60.6988 9.68431 64.0838 9.74345 67.4653C9.75466 70.1245 9.59326 72.8167 9.03322 75.4298H12.0045C15.6002 64.6415 12.0482 56.9531 9.84998 53.5665C9.12053 52.4477 7.71491 52.4839 6.99347 53.6097Z" fill="#2E2E2E"/>
<path d="M71.0845 63.2833C70.679 62.6596 69.8989 62.6801 69.497 63.3057C69.3607 63.5182 69.2528 63.7308 69.1326 63.942C68.9076 60.7844 67.963 57.2273 65.6435 53.6097C64.9214 52.4832 63.5169 52.4465 62.7886 53.568C60.5903 56.9543 57.039 64.6428 60.634 75.4306H63.6053C63.0446 72.8175 62.8839 70.1258 62.8951 67.4666C62.9549 64.0841 63.274 60.6991 64.1432 57.4125C64.221 60.8038 64.1257 64.139 64.1039 67.4785C64.069 70.1265 64.0839 72.767 64.1194 75.4306H66.8852C66.8852 75.4306 67.383 74.5352 67.917 72.995C68.2945 74.4966 68.8073 75.4306 68.8073 75.4306H70.3431C70.363 73.9496 70.3706 72.4834 70.3524 71.0124C70.3387 69.1564 70.287 67.3047 70.33 65.4193C70.8129 67.2461 70.9904 69.1259 71.0234 71.0051C71.0297 72.4834 70.9418 73.9783 70.6297 75.4306H72.2802C74.2797 69.436 72.3063 65.1638 71.0845 63.2833Z" fill="#2E2E2E"/>
</svg>
