<svg width="133" height="78" viewBox="0 0 133 78" fill="none" xmlns="http://www.w3.org/2000/svg">
<path d="M58.0553 20.683C58.2282 22.6195 57.8824 24.7583 57.0181 27.0705C56.1249 29.5851 54.8572 31.5505 53.2726 32.9667C48.0865 37.5912 38.3482 40.4236 24.0865 41.4352C22.2714 41.5797 20.5139 41.6376 18.8716 41.6376C7.03009 41.6376 0.864429 38.3715 0.432256 31.8106C0.201764 28.5735 1.90164 25.163 5.56071 21.6079C8.2978 18.9778 11.2366 17.0413 14.4347 15.8273C18.0361 14.44 22.9052 13.544 29.0421 13.1105C31.1742 12.9371 32.2402 13.1105 32.269 13.6596C32.269 13.862 32.1537 14.1221 31.8656 14.44C31.5775 14.7579 31.347 14.9025 31.203 14.9314C23.8272 16.8389 17.7768 18.8043 13.0805 20.7986C8.00969 22.9663 5.5319 24.7872 5.64714 26.2324C5.76239 27.7353 7.00128 29.2383 9.42145 30.6545C12.6772 32.5621 17.1141 33.5159 22.7324 33.5159C24.2306 33.5159 25.7576 33.458 27.3422 33.3424C36.1009 32.5621 42.8716 31.3193 47.6543 29.614C51.3422 28.3134 53.3014 27.0127 53.5031 25.741C53.5031 25.6543 53.0709 24.9895 52.2354 23.6889C51.2846 22.2727 50.7372 20.7408 50.5931 19.0645C50.5067 17.8794 50.8236 16.6655 51.5439 15.4805C52.1778 14.4111 52.754 13.862 53.3014 13.833C53.9353 13.7752 54.8284 14.4978 56.0097 16.0008C57.3062 17.6482 57.9977 19.209 58.0841 20.6541L58.0553 20.683ZM37.5415 50.4818C37.5415 51.6668 37.1958 52.9674 36.5331 54.3837C35.7264 56.06 34.8044 56.8982 33.7096 56.8982C32.4131 56.8982 31.347 56.4936 30.5403 55.6554C29.9641 55.0195 29.676 54.4415 29.676 53.9501C29.676 53.3143 30.1081 52.1871 30.9437 50.5974C31.9233 48.8054 32.8164 47.9384 33.6519 47.9384C34.4299 47.9384 35.2654 48.2274 36.1874 48.8343C37.1093 49.4413 37.5703 49.9905 37.5703 50.4818H37.5415Z" fill="#5679B6"/>
<path d="M75.5438 33.4869C76.2929 33.4869 76.6674 34.1227 76.6674 35.3945C76.6674 36.6662 76.3505 37.8512 75.7455 39.0362C75.0828 40.3657 74.3049 41.0305 73.4405 41.0305C71.1356 41.0305 69.6374 40.597 68.9459 39.701C68.3409 38.9206 67.9087 37.1575 67.6782 34.354C66.9579 27.6196 66.1512 18.9488 65.2581 8.34143C65.1716 6.78068 65.575 5.04651 66.4105 3.16783C67.2461 1.28915 68.024 0.364258 68.6866 0.364258C69.5222 0.364258 70.2136 3.11002 70.7034 8.57265C71.1932 14.0353 71.8559 21.1743 72.6626 29.9607C72.8067 31.3481 72.9796 32.244 73.2677 32.6487C73.6422 33.1978 74.4201 33.4869 75.5726 33.4869H75.5438Z" fill="#5679B6"/>
<path d="M100.091 25.6252C100.091 26.7524 99.5726 28.1108 98.5354 29.7872C97.4982 31.4346 96.2305 32.9087 94.7035 34.1804C92.1104 36.377 88.7971 38.1112 84.7923 39.3251C81.0468 40.4812 77.2725 41.0304 73.4694 41.0304C72.6914 41.0304 72.3169 40.3656 72.3169 39.065C72.3169 37.7643 72.6338 36.5793 73.2389 35.3943C73.9303 34.0648 74.7082 33.4 75.5438 33.4C77.9928 33.4 80.8163 33.0821 84.0144 32.4751C87.7311 31.7237 90.2089 30.8566 91.4477 29.845C91.7935 29.5559 91.9664 29.2958 91.9664 29.0935C91.9664 28.8045 91.6782 28.6021 91.102 28.5443C89.1428 28.342 87.1836 28.1108 85.2245 27.9085C83.6974 27.6773 82.9195 27.0125 82.9195 25.9142C82.9195 24.3534 83.7551 22.5326 85.4549 20.4805L90.9291 21.2319C92.7731 21.4921 94.617 21.7522 96.4609 22.0412C98.8811 22.5904 100.091 23.8043 100.091 25.6252Z" fill="#5679B6"/>
<path d="M132.187 9.84454C132.187 13.1395 130.862 16.0586 128.183 18.5732C125.993 20.6542 123.573 21.6947 120.951 21.6947C119.798 21.6947 119.136 21.3768 118.934 20.6831C118.444 21.0588 117.292 21.5213 115.448 22.0704C113.489 22.6196 111.904 22.9375 110.665 22.9953C109.369 22.9953 108.245 22.6774 107.294 21.9837C106.343 21.2901 105.796 20.4808 105.652 19.5848C105.335 17.8506 104.183 16.9257 102.195 16.7812C100.639 16.6945 98.3914 17.446 95.4815 18.9778C91.88 20.8854 89.2006 23.2843 87.4431 26.1457L85.5415 20.4519C88.3938 16.7234 91.8512 13.7753 95.8848 11.6076C99.3422 9.75783 102.454 8.80404 105.22 8.80404C107.467 8.80404 108.821 9.98905 109.282 12.388C109.484 13.5441 109.801 14.3245 110.233 14.7291C110.78 15.2494 111.789 15.4806 113.258 15.4517C116.399 15.3361 118.934 14.2089 120.893 12.0701C121.441 11.0874 122.219 10.0758 123.198 9.06416C123.688 9.06416 123.947 9.41099 123.947 10.1336C123.947 10.7405 123.803 11.4631 123.486 12.3302C123.169 13.1684 123.025 13.6597 123.025 13.7753C123.025 13.9487 123.112 14.0643 123.313 14.0643C125.129 13.9776 126.656 13.4574 127.837 12.4747C128.586 11.8677 129.306 10.9428 130.026 9.72893C130.574 8.77513 130.977 8.28379 131.208 8.25488C131.87 8.25488 132.216 8.77514 132.216 9.84454H132.187Z" fill="#5679B6"/>
<path d="M17.9783 76.0612L18.9002 75.0207C19.7646 75.9167 20.9747 76.5237 22.2136 76.5237C23.7982 76.5237 24.7202 75.7433 24.7202 74.5583C24.7202 73.3155 23.8558 72.9397 22.7034 72.4484L20.9747 71.6969C19.851 71.2055 18.5257 70.3674 18.5257 68.5754C18.5257 66.7834 20.1391 65.3672 22.3 65.3672C23.7118 65.3672 25.0083 65.9741 25.8438 66.8701L25.0371 67.8528C24.288 67.1592 23.4237 66.7256 22.3 66.7256C20.9459 66.7256 20.0527 67.4193 20.0527 68.4887C20.0527 69.6448 21.0899 70.0783 22.0407 70.483L23.7694 71.2345C25.1523 71.8414 26.2472 72.6796 26.2472 74.4716C26.2472 76.3792 24.6625 77.911 22.1559 77.911C20.4561 77.911 18.9867 77.2173 17.9495 76.119L17.9783 76.0612Z" fill="#5679B6"/>
<path d="M40.2785 65.5703H42.0072L46.0696 77.6517H44.4562L42.3529 70.9173C41.9207 69.5589 41.5462 68.2294 41.1428 66.842H41.0564C40.6819 68.2294 40.3073 69.5589 39.8751 70.9173L37.7431 77.6517H36.1873L40.2497 65.5703H40.2785ZM38.3481 72.7382H43.8799V73.9521H38.3481V72.7382Z" fill="#5679B6"/>
<path d="M56.8452 65.5703H58.3722V70.6283H63.9617V65.5703H65.4887V77.6517H63.9617V71.9867H58.3722V77.6517H56.8452V65.5703Z" fill="#5679B6"/>
<path d="M80.4418 65.5703H82.1705L86.2329 77.6517H84.6195L82.5163 70.9173C82.0841 69.5589 81.7095 68.2294 81.3062 66.842H81.2197C80.8452 68.2294 80.4706 69.5589 80.0385 70.9173L77.9064 77.6517H76.3506L80.413 65.5703H80.4418ZM78.5115 72.7382H84.0433V73.9521H78.5115V72.7382Z" fill="#5679B6"/>
<path d="M97.0083 65.5703H100.581C103.03 65.5703 104.73 66.4085 104.73 68.5184C104.73 69.7034 104.096 70.7728 102.972 71.1486V71.2353C104.413 71.5243 105.421 72.4781 105.421 74.1255C105.421 76.4956 103.549 77.6517 100.869 77.6517H97.0371V65.5703H97.0083ZM100.322 70.715C102.367 70.715 103.203 69.9635 103.203 68.7207C103.203 67.3045 102.252 66.7842 100.379 66.7842H98.5353V70.715H100.322ZM100.639 76.4378C102.684 76.4378 103.894 75.6863 103.894 74.0677C103.894 72.5937 102.742 71.9 100.639 71.9H98.5353V76.4378H100.639Z" fill="#5679B6"/>
</svg>
