<svg width="25" height="25" viewBox="0 0 25 25" fill="none" xmlns="http://www.w3.org/2000/svg">
<path fill-rule="evenodd" clip-rule="evenodd" d="M13.1161 2.85742H11.8811C11.1855 2.85742 10.5186 3.12897 10.028 3.612C9.59307 4.04012 9.32704 4.60459 9.27575 5.20523L9.26724 5.39923C9.25775 6.03094 8.74742 6.52377 8.12101 6.5237C7.97895 6.52222 7.83141 6.4898 7.69559 6.42872L7.56235 6.35914C6.33155 5.66759 4.73128 6.09118 4.00918 7.31908L3.35989 8.36438C2.66949 9.53791 3.01001 11.0122 4.12449 11.7715L4.27948 11.8689C4.66149 12.0858 4.87987 12.4564 4.87987 12.8574C4.87987 13.2262 4.69491 13.5711 4.38645 13.7803L4.28115 13.8449C3.12651 14.4987 2.67157 15.9416 3.25197 17.1419L3.33679 17.3016L3.97412 18.3798C4.30539 18.9657 4.87306 19.4071 5.54445 19.594C6.13953 19.7598 6.7746 19.7139 7.33762 19.4658L7.51565 19.3787C7.81529 19.209 8.12484 19.1683 8.41538 19.2445C8.70591 19.3207 8.95336 19.5074 9.1027 19.7632C9.18504 19.8993 9.23337 20.0396 9.25063 20.1851L9.25912 20.3328C9.25765 21.7067 10.4322 22.8574 11.8811 22.8574H13.1164C14.4845 22.8574 15.62 21.8277 15.731 20.4988L15.7391 20.3272C15.7383 19.9953 15.8582 19.7098 16.0727 19.4996C16.2872 19.2895 16.5786 19.172 16.882 19.1735C17.0214 19.1773 17.1746 19.2115 17.3166 19.2737L17.4527 19.3424C18.6011 19.9918 20.1058 19.6582 20.8808 18.5663L20.9803 18.4144L21.6399 17.3378C21.995 16.7407 22.0912 16.0392 21.9119 15.3804C21.753 14.7965 21.3887 14.2871 20.8843 13.9415L20.7174 13.8367C20.4272 13.6724 20.236 13.4282 20.158 13.1418C20.08 12.8554 20.1218 12.5503 20.2742 12.2942C20.3585 12.15 20.4706 12.03 20.6051 11.9381L20.8624 11.7797C21.9043 11.0867 22.2945 9.72261 21.7461 8.57584L21.6892 8.46417C21.6769 8.43504 21.6627 8.40664 21.6465 8.37916L21.0333 7.3367C20.3511 6.1766 18.8759 5.7264 17.646 6.29292L17.4821 6.37581C17.1882 6.5443 16.8779 6.58689 16.5857 6.51256C16.2935 6.43823 16.0435 6.25309 15.8908 5.99797C15.8124 5.86858 15.7641 5.72822 15.7468 5.58277L15.7383 5.43508C15.7599 4.8071 15.4925 4.13423 14.9983 3.63613C14.5041 3.13804 13.8251 2.85714 13.1161 2.85742ZM11.881 4.30469H13.1163C13.4263 4.30456 13.7228 4.42724 13.9387 4.64478C14.1545 4.86231 14.2713 5.15618 14.2624 5.45944L14.2755 5.71149C14.3202 6.09679 14.4356 6.43199 14.618 6.73311C14.9673 7.3166 15.5423 7.74241 16.2143 7.91336C16.8863 8.08431 17.6001 7.98636 18.1983 7.6411L18.3014 7.5896L18.4124 7.54605C18.9008 7.38548 19.4764 7.5887 19.753 8.05903L20.3378 9.05421L20.3504 9.08224L20.4211 9.21578C20.6578 9.71199 20.46 10.3397 19.948 10.6331L19.7872 10.7323C19.4463 10.9643 19.1848 11.2441 18.9946 11.5696C18.647 12.154 18.5509 12.8556 18.7302 13.5143C18.8932 14.1132 19.2716 14.6317 19.7922 14.9765L20.0645 15.1451C20.2566 15.2776 20.415 15.4991 20.4841 15.753C20.562 16.0394 20.5202 16.3444 20.3679 16.6006L19.7235 17.6527L19.651 17.7637C19.3529 18.1828 18.7646 18.3384 18.2687 18.1251L17.9527 17.967C17.6003 17.8116 17.2556 17.7347 16.9053 17.7255C16.1913 17.722 15.5212 17.9921 15.0278 18.4755C14.5344 18.9589 14.2587 19.6154 14.2621 20.299L14.2564 20.4081C14.2098 20.9593 13.7137 21.4092 13.1163 21.4092H11.881C11.2904 21.4092 10.8042 20.9714 10.742 20.409L10.7218 20.0554C10.6772 19.6701 10.5617 19.3349 10.3793 19.0338C10.0402 18.4529 9.46856 18.0215 8.79732 17.8455C8.12608 17.6695 7.4109 17.7635 6.81075 18.1066L6.70203 18.1588C6.48563 18.2533 6.20826 18.2734 5.94837 18.201C5.65515 18.1193 5.40723 17.9266 5.25947 17.6654L4.63022 16.6018L4.57393 16.4953C4.33557 16.0009 4.53348 15.3732 5.04633 15.0825L5.20214 14.9866C5.93407 14.491 6.35749 13.7015 6.35749 12.8569C6.35749 11.9999 5.92191 11.2036 5.2039 10.728L4.94318 10.5662C4.48251 10.2516 4.33372 9.60739 4.63123 9.1015L5.28052 8.05619C5.60485 7.5051 6.30374 7.3201 6.85185 7.6278L7.04421 7.7272C7.4035 7.88987 7.75582 7.96729 8.11321 7.97093C9.49964 7.97111 10.6333 6.92782 10.7368 5.59845L10.7502 5.29356C10.7705 5.06435 10.8862 4.81891 11.0753 4.63277C11.2886 4.42276 11.5786 4.30469 11.881 4.30469ZM12.5032 9.58984C10.661 9.58984 9.16748 11.0531 9.16748 12.858C9.16748 14.663 10.661 16.1262 12.5032 16.1262C14.3455 16.1262 15.839 14.663 15.839 12.858C15.839 11.0531 14.3455 9.58984 12.5032 9.58984ZM12.5033 11.0371C13.5295 11.0371 14.3614 11.8521 14.3614 12.8575C14.3614 13.863 13.5295 14.678 12.5033 14.678C11.4772 14.678 10.6453 13.863 10.6453 12.8575C10.6453 11.8521 11.4772 11.0371 12.5033 11.0371Z" fill="white"/>
</svg>
