<svg width="100" height="100" viewBox="0 0 100 100" fill="none" xmlns="http://www.w3.org/2000/svg">
<path d="M49.9849 100C43.2553 100 36.7254 98.6771 30.5763 96.0699C24.639 93.5519 19.3064 89.9465 14.7289 85.3561C10.1514 80.7658 6.55613 75.4182 4.04514 69.4642C1.44415 63.2968 0.125 56.7485 0.125 50C0.125 43.2515 1.44415 36.7032 4.04404 30.5368C6.55503 24.5829 10.1503 19.2353 14.7278 14.645C19.3053 10.0546 24.6379 6.4492 30.5752 3.93115C36.7254 1.32286 43.2553 0 49.9849 0C56.7146 0 63.2444 1.32286 69.3935 3.93005C75.3308 6.4481 80.6634 10.0535 85.2409 14.6439C89.8184 19.2342 93.4137 24.5818 95.9247 30.5357C98.5257 36.7021 99.8437 43.2504 99.8437 49.9989C99.8437 56.7474 98.5246 63.2957 95.9247 69.462C93.4137 75.416 89.8184 80.7636 85.2409 85.3539C80.6634 89.9443 75.3308 93.5497 69.3935 96.0677C63.2444 98.676 56.7146 99.9978 49.9849 99.9978V100Z" fill="#44AA55"/>
<path d="M23.8836 56.5076C26.5735 60.891 31.2202 67.8047 34.8144 72.3455C36.51 74.4883 39.5203 74.6875 41.499 72.8033C52.8797 61.9718 63.4428 48.3063 76.091 29.3846C76.8241 28.2874 76.4554 26.795 75.2954 26.1699C74.4086 25.6934 73.3134 25.8717 72.622 26.6046C58.5898 41.5027 51.3948 48.5847 37.4329 60.2329C37.4329 60.2329 33.031 57.4287 27.716 53.1256C26.5757 52.2022 24.8988 52.4102 24.0186 53.5856C23.3788 54.4396 23.3272 55.5974 23.8847 56.5076H23.8836Z" fill="white"/>
</svg>
