<svg width="226" height="92" viewBox="0 0 226 92" fill="none" xmlns="http://www.w3.org/2000/svg">
<path d="M48.8348 89.0649C48.8348 90.3906 49.9121 91.4675 51.2382 91.4675C52.5643 91.4675 53.6416 90.3906 53.6416 89.0649C53.6416 87.7392 52.5643 86.6624 51.2382 86.6624C49.9121 86.6624 48.8348 87.7392 48.8348 89.0649Z" fill="#F0D1DA"/>
<path d="M120.819 1.60999C119.867 3.68557 118.843 5.73626 117.979 7.84738C116.845 10.6124 115.703 13.3811 115.209 16.3665C114.69 19.5012 115.042 22.5186 116.425 25.3725C117.15 26.8687 118.153 28.1766 119.739 28.9017C119.835 28.9443 119.93 28.9941 119.966 29.1576C119.539 29.7795 118.878 30.1811 118.281 30.6538C118.004 30.8742 117.776 30.629 117.588 30.4619C116.727 29.7084 115.899 28.9194 115.237 27.9812C111.963 23.3289 110.982 18.2395 112.315 12.6987C112.731 10.9679 113.321 9.30455 113.943 7.63769C114.925 5.0219 116.197 2.54116 117.342 0C118.501 0.536664 119.66 1.07333 120.819 1.60644V1.60999Z" fill="#F0D1DA"/>
<path d="M7.19947 31.2295C6.34975 31.2437 5.52137 31.4818 4.67165 31.5742C4.54366 31.5885 4.41566 31.6382 4.28767 31.6347C3.36684 31.6062 2.8691 32.0363 2.55624 32.9212C1.72074 35.2953 0.792807 37.641 0.341283 40.1289C0.0106382 41.9486 -0.096015 43.7825 0.191965 45.6235C0.572384 48.0473 1.74207 50.0589 3.42017 51.804C4.64676 53.0799 6.0049 54.2101 7.30259 55.4043C8.92381 56.897 10.2784 58.5851 11.2525 60.5719C11.5014 61.0801 11.5156 61.073 12.0667 60.8917C12.7813 60.6536 13.4924 60.4084 14.207 60.1703C14.719 59.9997 14.8316 59.6715 14.5448 59.1858C13.695 57.7428 12.6284 56.4776 11.4161 55.3261C10.0793 54.0573 8.65361 52.8844 7.34525 51.5836C4.81742 49.0638 3.87525 45.9966 4.08857 42.5065C4.24501 39.9441 4.93474 37.506 5.82001 35.1105C6.2502 33.9448 6.67329 32.772 7.16393 31.6311C7.2137 31.5138 7.25635 31.3859 7.19591 31.2295H7.19947Z" fill="#F1CE27"/>
<path d="M87.0818 31.1897C88.9198 28.7871 90.726 26.3633 92.4858 23.9003C92.692 23.6124 92.852 23.5769 93.1471 23.7404C94.0359 24.2344 94.9425 24.6964 95.8278 25.194C96.6029 25.6276 96.5922 25.6453 96.0589 26.3526C94.8323 27.9733 93.6129 29.5975 92.3792 31.211C90.8291 33.2368 89.2256 35.22 87.6222 37.2032C87.3875 37.4946 87.2062 37.388 87 37.2281C86.3209 36.7056 85.6347 36.1903 84.9699 35.6465C84.6961 35.4226 84.337 35.284 84.1664 34.9179C85.1405 33.6775 86.1254 32.4443 87.0853 31.1897H87.0818Z" fill="#FBAF6F"/>
<path d="M179.905 53.5632L172.162 55.1199L176.467 60.7673L179.905 53.5632Z" fill="#E9F462"/>
<path d="M212.707 42.6238L200.754 50.7057L211.992 57.1919L212.707 42.6238Z" fill="#F0D1DA"/>
<path d="M115.114 47.6032L124.34 54.1853L126.039 44.1379L115.114 47.6032Z" fill="#FF8B98"/>
<path d="M60.5542 39.5889C60.6324 39.5284 60.7142 39.468 60.796 39.4112C60.8778 39.3507 60.9596 39.2939 61.0413 39.237C61.2084 39.1233 61.3755 39.0131 61.5462 38.91C61.5853 38.8852 61.6208 38.8638 61.6635 38.8425C61.6777 38.8318 61.6955 38.8247 61.7133 38.8141C61.7275 38.807 61.7382 38.7999 61.7524 38.7927C61.8093 38.7608 61.8662 38.7288 61.923 38.6968C61.9657 38.6719 62.0119 38.6506 62.0546 38.6293C62.0972 38.6079 62.1363 38.5902 62.179 38.5688C62.2608 38.5297 62.3426 38.4942 62.4279 38.4551C62.4528 38.4444 62.4741 38.4338 62.499 38.4231C62.531 38.4125 62.563 38.3982 62.5985 38.3876C62.6305 38.3769 62.6625 38.3663 62.691 38.352C62.7372 38.3378 62.7799 38.3236 62.8225 38.3094C62.8225 38.3094 62.8261 38.3094 62.8296 38.3094C62.8759 38.2952 62.9185 38.281 62.9647 38.2703C62.9896 38.2632 63.0145 38.2596 63.0394 38.2561C63.0501 38.2561 63.0607 38.2525 63.0678 38.249C63.2172 38.217 63.3629 38.1992 63.5087 38.1992C63.53 38.1992 63.5478 38.1992 63.5656 38.1992C63.6118 38.1992 63.6545 38.2028 63.7007 38.2099C63.7434 38.2134 63.786 38.217 63.8287 38.2277C63.8785 38.2383 63.9318 38.2525 63.9816 38.2632C65.0695 38.6079 65.5672 40.1042 65.8837 41.3623C66.5485 44.0066 66.0756 46.6615 65.8232 49.9703C65.8232 49.9703 65.8232 49.9738 65.8232 49.9774C64.4153 62.5197 70.0078 62.8396 70.0078 62.8396C69.8194 63.0599 68.9412 64.2932 68.9412 64.2932C68.8666 64.8547 69.8372 65.5975 69.9438 65.6864C67.8782 65.3096 65.8268 64.4567 64.49 62.7401C62.9541 60.7675 62.307 58.7062 61.7239 54.9602C61.1835 52.0317 61.3933 48.57 61.1871 45.414C61.1053 44.1807 61.0804 42.9297 60.9204 41.7462C60.8067 40.9323 60.4974 40.4027 60.1276 39.9123C60.1276 39.9123 60.1311 39.9087 60.1347 39.9087C60.2698 39.8021 60.4085 39.6955 60.5507 39.5924L60.5542 39.5889Z" fill="#9E7B96"/>
<path d="M46.8312 62.9179C46.817 62.8717 46.8063 62.8184 46.7992 62.7651C46.785 62.6727 46.7779 62.5767 46.7779 62.4666C46.7779 62.3315 46.7921 62.1822 46.8099 62.0223C46.8099 62.0117 46.8099 62.0045 46.8099 61.9974C46.8276 61.8588 46.8525 61.7167 46.8845 61.5638C46.8845 61.5425 46.8916 61.5212 46.8952 61.4999C46.8952 61.4928 46.8952 61.4856 46.8987 61.4821C46.9201 61.3826 46.945 61.2795 46.9699 61.1729C46.977 61.1409 46.9841 61.1054 46.9947 61.0698C47.0125 60.9952 47.0338 60.917 47.0552 60.8388C47.0623 60.8104 47.073 60.7784 47.0801 60.75C47.0978 60.686 47.1156 60.622 47.1334 60.558C47.1583 60.4727 47.1832 60.3874 47.2116 60.3021C47.3183 59.9538 47.4392 59.5878 47.5743 59.2146C47.6383 59.0405 47.7022 58.8627 47.7662 58.685C47.7911 58.6175 47.816 58.5535 47.8409 58.486C47.9049 58.3154 47.9725 58.1448 48.04 57.9742C48.1467 57.7077 48.2498 57.4447 48.36 57.1817C48.36 57.1817 48.36 57.1817 48.36 57.1746C48.3742 57.1426 48.3849 57.1106 48.3991 57.0786C48.4346 56.9933 48.4702 56.9116 48.5058 56.8263C48.5235 56.7801 48.5413 56.7374 48.5626 56.6948C48.5946 56.6166 48.6302 56.5348 48.6622 56.4602C48.7368 56.2825 48.8115 56.1119 48.8862 55.9449C48.9253 55.856 48.9644 55.7672 49.0035 55.6783C49.0141 55.657 49.0213 55.6392 49.0284 55.6214C49.0533 55.5646 49.0782 55.5113 49.103 55.4544C49.1279 55.3975 49.1528 55.3407 49.1777 55.2874C49.2346 55.1594 49.2915 55.035 49.3484 54.9142C49.3661 54.8751 49.3875 54.8324 49.4052 54.7898C49.4337 54.7294 49.4586 54.6725 49.487 54.6156C49.5119 54.5659 49.5332 54.5197 49.5546 54.4699C49.583 54.4059 49.6114 54.3455 49.6434 54.2851C49.6968 54.1714 49.7466 54.0648 49.7963 53.9617C49.8319 53.8871 49.8674 53.816 49.8994 53.7484C49.9208 53.7058 49.9421 53.6631 49.9599 53.6276C49.9847 53.5779 50.0096 53.5281 50.031 53.4854C50.0701 53.4073 50.1056 53.3326 50.1412 53.2686C50.1732 53.2047 50.2016 53.1478 50.2265 53.1052C50.2265 53.1052 50.2265 53.0981 50.2301 53.0981C50.319 52.9346 50.4078 52.7711 50.4967 52.6076C50.5536 52.5045 50.6069 52.4015 50.6638 52.2984C50.7172 52.2024 50.7705 52.1065 50.8238 52.0105C50.9305 51.8186 51.0371 51.6231 51.1438 51.4312C51.158 51.4063 51.1722 51.3814 51.1864 51.353C51.2469 51.2464 51.3038 51.1398 51.3642 51.0367C51.382 51.0083 51.3998 50.9763 51.414 50.9478C51.4495 50.8839 51.4851 50.8235 51.5206 50.763C51.5491 50.7133 51.5811 50.6635 51.6095 50.6138C51.6486 50.5462 51.6878 50.4787 51.7269 50.4112C51.8086 50.2655 51.8975 50.1197 51.9793 49.974C51.9971 49.942 52.0184 49.9065 52.0362 49.8745C52.1748 49.6364 52.317 49.4018 52.4593 49.1673C52.4664 49.153 52.4735 49.1424 52.4841 49.1282C52.5908 48.9505 52.701 48.7728 52.8077 48.5986C52.8859 48.4707 52.9641 48.3427 53.0459 48.2183C53.2236 47.934 53.405 47.6497 53.5898 47.3689C53.5898 47.4222 53.5792 47.472 53.5756 47.5217C53.5543 47.7776 53.5258 48.0335 53.4938 48.2894C53.4938 48.3214 53.4867 48.3498 53.4832 48.3818C53.4761 48.4245 53.4725 48.4671 53.4654 48.5097C53.4583 48.5595 53.4512 48.6093 53.4441 48.659C53.4227 48.8154 53.4014 48.9682 53.3765 49.121C53.3623 49.2135 53.3481 49.3059 53.3338 49.3983C53.3303 49.4303 53.3232 49.4587 53.3196 49.4871C53.309 49.5546 53.2948 49.6222 53.2841 49.6861C53.2734 49.7395 53.2663 49.7892 53.2556 49.8425C53.2521 49.871 53.245 49.8994 53.2379 49.9314C53.1881 50.2086 53.1276 50.4858 53.0708 50.7666C53.0636 50.8021 53.0565 50.8377 53.0459 50.8768C53.0388 50.9159 53.0281 50.9549 53.021 50.9976C52.9783 51.186 52.9321 51.3779 52.8894 51.5662C52.8574 51.6977 52.8219 51.8328 52.7899 51.9643C52.7543 52.1029 52.7188 52.2415 52.6797 52.3801C52.6548 52.4654 52.6335 52.5543 52.6086 52.6431C52.5872 52.7249 52.5624 52.8031 52.541 52.8848C52.477 53.1229 52.4059 53.3611 52.3348 53.6027C52.2388 53.919 52.1428 54.2354 52.0362 54.5552C52.0291 54.5801 52.022 54.605 52.0148 54.6299C51.9864 54.7152 51.958 54.8004 51.9295 54.8857C51.9117 54.9355 51.894 54.9853 51.8797 55.035C51.8549 55.1097 51.83 55.1843 51.8051 55.2625C51.7731 55.3513 51.7446 55.4402 51.7162 55.529C51.6735 55.6534 51.6309 55.7778 51.5882 55.9058C51.5882 55.9058 51.5882 55.9129 51.5882 55.9164C51.5633 55.9875 51.5384 56.0621 51.5135 56.1332C51.5029 56.1617 51.4922 56.1901 51.4851 56.2185C51.4602 56.2896 51.4318 56.3607 51.4104 56.4318C51.3927 56.4744 51.3784 56.5135 51.3642 56.5562C51.35 56.5953 51.3358 56.6343 51.3216 56.6699C51.318 56.6806 51.3144 56.6912 51.3109 56.7019C51.286 56.7658 51.2611 56.8334 51.2398 56.8974C51.222 56.94 51.2078 56.9826 51.19 57.0253C51.1651 57.0999 51.1367 57.171 51.1082 57.2456C51.0585 57.3771 51.0051 57.5086 50.9518 57.6401C50.8807 57.8179 50.8096 57.992 50.7349 58.1661C50.6603 58.3403 50.5821 58.518 50.5074 58.6922C50.4612 58.7952 50.415 58.8947 50.3687 58.9942C50.351 59.0298 50.3367 59.0582 50.3225 59.0902C50.1021 59.5593 49.8639 60.0214 49.6008 60.4763C49.5226 60.6149 49.4443 60.75 49.359 60.885C49.3306 60.9312 49.3021 60.981 49.2701 61.0343C49.2381 61.0876 49.2061 61.1445 49.1706 61.2049C49.1564 61.2298 49.1386 61.2582 49.1244 61.2866C49.1066 61.3151 49.0888 61.3435 49.0746 61.3719C49.0462 61.4217 49.0177 61.4679 48.9857 61.5176C48.9466 61.5816 48.911 61.6456 48.8684 61.7096C48.8008 61.8197 48.7297 61.9299 48.6622 62.0401C48.5911 62.1503 48.5306 62.2356 48.488 62.3031C48.4702 62.3315 48.4524 62.3528 48.4382 62.3742C48.4275 62.3919 48.4169 62.4026 48.4098 62.4097C48.4026 62.4239 48.3991 62.431 48.3991 62.431C48.1111 62.8397 47.8196 63.1774 47.5885 63.2485C47.3538 63.3267 47.1761 63.3124 47.0516 63.2271L46.9876 63.1738C46.9663 63.1525 46.9485 63.1276 46.9308 63.1027C46.8988 63.053 46.8703 62.989 46.8525 62.9215L46.8312 62.9179Z" fill="#9E7B96"/>
<path d="M31.4109 38.9384C31.3113 38.6577 31.29 38.2952 31.3113 37.9398C31.3327 37.5595 31.4038 37.1579 31.4891 36.7527C31.6633 35.9424 31.9157 35.1214 32.1859 34.3004C32.2962 33.9628 32.417 33.6251 32.5237 33.291C32.5521 33.2022 32.6624 32.7437 32.7441 32.6904C34.2765 31.7557 35.8337 30.9063 37.3056 30.5615C39.5028 30.0426 41.6075 29.7583 43.5736 29.9147C43.6732 29.9218 43.7691 29.9289 43.8687 29.9396C43.8794 29.9396 43.8936 29.9395 43.9043 29.9431C43.9576 29.9502 44.0109 29.9573 44.0607 29.9644C44.274 29.9893 44.4838 30.0213 44.6935 30.0568C44.7397 30.0639 44.7824 30.071 44.8286 30.0817C44.8535 30.0853 44.8784 30.0888 44.9033 30.0924C44.946 30.0995 44.9851 30.1066 45.0277 30.1137C45.0597 30.1208 45.0917 30.1315 45.1273 30.1386C45.1593 30.1457 45.1877 30.1528 45.2197 30.1599C45.2304 30.1599 45.2375 30.1599 45.2446 30.167C45.273 30.1741 45.3015 30.1812 45.3264 30.1883C45.3762 30.199 45.4259 30.2097 45.4793 30.2239C45.5397 30.2381 45.6037 30.2559 45.6712 30.2736C45.6748 30.2736 45.6819 30.2736 45.6855 30.2736C45.6997 30.2772 45.7139 30.2807 45.7246 30.2843C45.7779 30.2985 45.8312 30.3163 45.8846 30.3305C45.9735 30.3554 46.0623 30.3803 46.1512 30.4087C46.233 30.4336 46.3112 30.4656 46.393 30.494C46.4748 30.5224 46.5565 30.5544 46.6419 30.5864C46.6596 30.5935 46.6774 30.6006 46.6987 30.6077C46.7414 30.6255 46.7805 30.6397 46.8232 30.6575C46.88 30.6823 46.9369 30.7072 46.9938 30.7357C47.04 30.757 47.0898 30.7783 47.136 30.7996C47.2569 30.8565 47.3707 30.9134 47.488 30.9773C47.488 30.9773 47.4916 30.9773 47.4951 30.9809C45.1948 31.6597 41.0422 33.4545 34.6675 38.1708C34.184 38.5297 33.6934 38.8603 33.2028 39.109C32.8294 39.2974 32.3993 39.4787 32.0615 39.4644C31.9442 39.4609 31.834 39.4289 31.7415 39.3756C31.5922 39.2867 31.4856 39.1304 31.418 38.9384H31.4109Z" fill="#9E7B96"/>
<path d="M53.5781 47.365C52.3337 49.2736 51.196 51.2603 50.133 53.2683C49.5677 54.3914 49.0522 55.5501 48.558 56.6945C47.8042 58.7594 46.3181 61.5955 46.9581 63.17L46.8905 63.1131C46.8408 63.074 46.7412 62.9887 46.6914 62.9496C45.4897 61.9474 44.2774 60.938 43.0757 59.9358C44.7396 53.2932 48.7677 46.5512 53.3825 41.2556C52.6821 36.6993 50.8049 32.9035 47.6585 31.0803C46.951 30.668 46.1759 30.3837 45.3582 30.1882C50.0903 30.9701 55.5833 31.9795 55.434 39.013C56.8205 37.6269 58.3778 36.2657 59.8603 35.9103C60.7491 37.2253 61.6629 37.3994 62.8823 38.0356C62.9641 38.0783 63.7285 38.192 63.8174 38.2204C61.7589 38.1138 60.1021 40.033 57.4818 42.496C56.6534 43.2743 55.8641 44.1486 55.1424 45.1118C55.1246 45.1331 55.1069 45.158 55.0926 45.1793C54.6553 48.0972 53.834 51.1466 52.643 54.1569C52.1524 55.4043 51.6013 56.6483 50.9934 57.8673C50.2681 59.3209 49.4895 60.7177 48.6291 62.0362C51.5444 57.4159 53.0519 52.028 53.571 47.3615L53.5781 47.365ZM51.6155 56.3853C51.6155 56.3853 51.6155 56.3853 51.6155 56.3817V56.3853Z" fill="#B89BAF"/>
<path d="M35.7204 14.3514C35.6849 14.3834 35.6458 14.4083 35.6138 14.4331C35.564 14.4687 35.4965 14.4865 35.4431 14.5078C35.212 14.6144 34.9418 14.753 34.6289 14.9307C34.2556 15.1404 33.8254 15.407 33.3206 15.7375C32.6273 16.1924 31.8025 16.7717 30.8141 17.511C28.0196 19.5972 25.6731 20.3684 23.9132 20.5781C22.5089 20.7452 21.4814 20.5497 20.9019 20.3791C20.9872 20.3045 21.8227 18.1365 21.8227 18.1365C21.7089 17.3724 19.6006 15.6273 19.4691 15.5562C20.685 15.4994 21.7481 15.5242 23.0849 15.016C25.89 13.9498 28.7378 11.9808 31.5429 10.8044C32.6202 10.3531 33.9534 9.7631 35.0022 9.75244C35.0165 9.75244 35.0307 9.75244 35.0485 9.75244C36.3177 10.5912 36.2928 12.3291 35.724 14.3585L35.7204 14.3514Z" fill="#9E7B96"/>
<path d="M28.1299 35.0893C28.7521 30.9843 30.6933 26.5737 32.4212 22.3977C33.3278 20.116 34.981 16.9884 35.7169 14.3549C36.2858 12.3255 36.3143 10.5911 35.0415 9.74878C35.0521 9.74878 35.0628 9.74878 35.0699 9.74878C36.6769 10.1042 39.7416 11.3694 39.6918 13.7436C38.6856 20.3008 34.9206 27.0073 32.4567 33.6748C31.7599 35.5584 31.0666 37.4421 31.6888 39.4004C30.448 38.7535 29.2783 36.4363 28.1264 35.0857L28.1299 35.0893Z" fill="#B89BAF"/>
<path d="M165.509 14.0218C166.437 9.36239 165.392 5.05486 165.392 5.05486L168.435 6.95984L169.445 4.98022C169.445 4.98022 169.932 6.65419 170.152 8.18955C170.373 9.72846 170.647 13.7872 168.296 19.7154C166.252 24.8723 163.347 28.2416 162.626 29.0342C161.058 28.2451 159.156 27.5805 156.877 27.2216C161.904 23.0704 164.873 17.224 165.513 14.0253L165.509 14.0218Z" fill="#C6D3A1"/>
<path d="M167.912 40.8123C167.731 42.3725 166.817 43.9967 165.75 45.0097C163.216 47.4158 161.292 48.8267 158.423 50.7175C158.423 50.7175 158.419 50.721 158.416 50.721C147.444 57.2676 150.807 63.9031 150.807 63.9031L147.864 63.1176C147.864 63.1176 146.452 66.4407 146.399 66.6468C145.549 63.7183 145.681 60.1891 146.836 57.2499C148.166 53.8735 149.72 51.5918 153.257 48.5957C155.973 46.2962 158.594 44.5227 161.225 42.1273C162.256 41.1926 163.319 39.9878 164.3 38.6443C164.41 38.495 164.513 38.3493 164.616 38.2036C165.715 38.9571 166.814 39.842 167.894 40.8727C167.894 40.8727 167.901 40.8478 167.912 40.8087V40.8123Z" fill="#C6D3A1"/>
<path d="M155.97 34.5998C155.97 34.5998 155.935 34.6176 155.917 34.6282C155.888 34.6425 155.863 34.6567 155.839 34.6673C155.778 34.6958 155.721 34.7242 155.661 34.7526C155.615 34.774 155.568 34.7988 155.522 34.8202C155.497 34.8344 155.469 34.845 155.444 34.8557C155.195 34.973 154.946 35.0832 154.697 35.1898C154.665 35.204 154.633 35.2182 154.598 35.2324C154.562 35.2502 154.527 35.2644 154.491 35.2786C154.32 35.3497 154.15 35.4172 153.976 35.4848C153.855 35.531 153.734 35.5736 153.616 35.6198C153.492 35.666 153.364 35.7087 153.24 35.7549C153.161 35.7798 153.08 35.8117 153.001 35.8366C152.927 35.8651 152.852 35.8864 152.777 35.9113C152.561 35.9823 152.34 36.0499 152.123 36.1174C151.832 36.2027 151.54 36.2844 151.245 36.3626C151.224 36.3697 151.199 36.3768 151.174 36.3804C151.096 36.4017 151.018 36.423 150.939 36.4408C150.893 36.4515 150.847 36.4621 150.801 36.4764C150.73 36.4941 150.662 36.5119 150.591 36.5261C150.509 36.5474 150.427 36.5652 150.346 36.5865C150.232 36.6114 150.114 36.6398 149.997 36.6683H149.99C149.922 36.6825 149.855 36.6967 149.787 36.7145C149.759 36.718 149.734 36.7251 149.709 36.7322C149.642 36.7465 149.578 36.7607 149.51 36.7749C149.471 36.782 149.432 36.7927 149.393 36.7962C149.357 36.8033 149.322 36.8104 149.286 36.8175C149.275 36.8175 149.265 36.8211 149.254 36.8247C149.194 36.8353 149.133 36.8495 149.073 36.8602C149.034 36.8673 148.995 36.8744 148.955 36.8815C148.888 36.8957 148.82 36.9064 148.749 36.9171C148.628 36.9384 148.504 36.9597 148.379 36.9739C148.216 36.9988 148.049 37.0201 147.885 37.0379C147.718 37.0592 147.551 37.0734 147.388 37.0841C147.292 37.0912 147.192 37.0983 147.1 37.1019C147.068 37.1019 147.036 37.1019 147.007 37.1054C146.559 37.1232 146.111 37.1161 145.667 37.0734C145.532 37.0628 145.397 37.045 145.265 37.0272C145.222 37.0201 145.169 37.0166 145.116 37.0095C145.062 37.0024 145.009 36.9952 144.949 36.9881C144.924 36.9881 144.895 36.981 144.87 36.9775C144.842 36.9775 144.814 36.9704 144.785 36.9668C144.735 36.9597 144.689 36.9562 144.639 36.949C144.575 36.9419 144.515 36.9313 144.447 36.9242C144.341 36.9064 144.227 36.8886 144.12 36.8709C144.01 36.8495 143.921 36.8282 143.857 36.814C143.829 36.8069 143.804 36.7998 143.786 36.7998C143.768 36.7962 143.758 36.7927 143.75 36.7856C143.736 36.7856 143.729 36.7856 143.729 36.7856C143.317 36.6718 142.965 36.5119 142.851 36.2524C142.808 36.1565 142.78 36.0605 142.759 35.9681C143.327 35.7158 148.98 33.3061 155.974 34.5998H155.97Z" fill="#C6D3A1"/>
<path d="M144.714 28.0746C149.613 26.8094 153.627 26.7063 156.877 27.2217C159.156 27.5842 161.058 28.2488 162.626 29.0342C167.052 31.2591 168.809 34.4506 168.809 34.4506C168.794 37.5178 168.037 40.3788 167.916 40.816C167.906 40.8551 167.898 40.8799 167.898 40.8799C166.818 39.8457 165.719 38.9643 164.62 38.2108C161.684 36.1957 158.726 35.1153 155.974 34.6035C148.981 33.3098 143.328 35.7194 142.759 35.9718C142.727 35.986 142.709 35.9931 142.709 35.9931C142.208 30.1929 144.714 28.0746 144.714 28.0746Z" fill="#E8EDD5"/>
<path d="M101.973 77.2902C99.3611 77.2902 97.2441 75.1739 97.2441 72.5633C97.2441 69.9527 99.3611 67.8364 101.973 67.8364C104.584 67.8364 106.701 69.9527 106.701 72.5633C106.701 75.1739 104.584 77.2902 101.973 77.2902Z" fill="#F0D1DA"/>
<path d="M22.2625 77.4644C20.4168 77.4644 18.9205 75.9686 18.9205 74.1235C18.9205 72.2785 20.4168 70.7827 22.2625 70.7827C24.1082 70.7827 25.6045 72.2785 25.6045 74.1235C25.6045 75.9686 24.1082 77.4644 22.2625 77.4644Z" fill="#FF8B98"/>
<path d="M190.134 80.4072C188.822 80.4072 187.759 79.3442 187.759 78.0331C187.759 76.7219 188.822 75.6589 190.134 75.6589C191.445 75.6589 192.509 76.7219 192.509 78.0331C192.509 79.3442 191.445 80.4072 190.134 80.4072Z" fill="#FBAF6F"/>
<path d="M222.868 19.6611C221.557 19.6611 220.493 18.5981 220.493 17.287C220.493 15.9758 221.557 14.9128 222.868 14.9128C224.18 14.9128 225.243 15.9758 225.243 17.287C225.243 18.5981 224.18 19.6611 222.868 19.6611Z" fill="#F8FDFF"/>
<path d="M188.766 28.8812C186.578 27.9753 185.539 25.468 186.445 23.281C187.352 21.094 189.86 20.0554 192.047 20.9613C194.235 21.8672 195.274 24.3745 194.368 26.5615C193.462 28.7485 190.954 29.7871 188.766 28.8812Z" fill="#FBAF6F"/>
</svg>
