<svg width="27" height="25" viewBox="0 0 27 25" fill="none" xmlns="http://www.w3.org/2000/svg">
<path d="M17.4131 23.849C17.4112 22.0238 16.6851 20.274 15.3945 18.9834C14.1039 17.6928 12.3545 16.9668 10.5293 16.965H9.07227C7.24709 16.9668 5.49665 17.6928 4.20606 18.9834C2.91546 20.274 2.18935 22.0238 2.1875 23.849C2.18803 23.9763 2.1636 24.1026 2.11523 24.2203C2.06687 24.3381 1.9961 24.4452 1.90625 24.5354C1.8164 24.6256 1.70938 24.6972 1.5918 24.7461C1.47421 24.7949 1.34803 24.8201 1.2207 24.8201C1.09315 24.8202 0.967476 24.7951 0.84961 24.7463C0.731743 24.6976 0.624372 24.6261 0.53418 24.5359C0.443988 24.4457 0.371993 24.3387 0.323243 24.2208C0.274492 24.103 0.249869 23.9765 0.250001 23.849C0.252383 21.5102 1.18222 19.2678 2.83594 17.6139C4.48965 15.96 6.73245 15.0296 9.07129 15.027H10.5283C12.8672 15.0296 15.109 15.96 16.7627 17.6139C18.4164 19.2678 19.3463 21.5102 19.3486 23.849C19.3488 23.9765 19.3241 24.103 19.2754 24.2208C19.2266 24.3387 19.1546 24.4457 19.0645 24.5359C18.9743 24.6261 18.8679 24.6976 18.75 24.7463C18.6321 24.7951 18.5055 24.8202 18.3779 24.8201C18.2508 24.8197 18.1251 24.7943 18.0078 24.7452C17.8905 24.6962 17.7839 24.6246 17.6943 24.5344C17.6047 24.4443 17.5336 24.3373 17.4854 24.2197C17.4371 24.1021 17.4127 23.9761 17.4131 23.849ZM25.0771 15.667L23.209 13.8L21.3428 15.667C21.2464 15.764 21.1321 15.8409 21.0059 15.8934C20.8796 15.9459 20.7441 15.973 20.6074 15.973C20.4707 15.973 20.3352 15.9459 20.209 15.8934C20.0828 15.8409 19.9684 15.764 19.8721 15.667C19.7752 15.5705 19.6979 15.4559 19.6455 15.3297C19.5931 15.2035 19.5664 15.0682 19.5664 14.9315C19.5664 14.7948 19.5931 14.6595 19.6455 14.5333C19.6979 14.4071 19.7752 14.2925 19.8721 14.196L21.7393 12.329L19.8721 10.462C19.7752 10.3656 19.6979 10.251 19.6455 10.1248C19.5931 9.99854 19.5664 9.86324 19.5664 9.72656C19.5664 9.58989 19.5931 9.45446 19.6455 9.32825C19.6979 9.20203 19.7752 9.08741 19.8721 8.99097C19.9684 8.894 20.0828 8.81716 20.209 8.76465C20.3352 8.71214 20.4707 8.68506 20.6074 8.68506C20.7441 8.68506 20.8796 8.71214 21.0059 8.76465C21.1321 8.81716 21.2464 8.894 21.3428 8.99097L23.209 10.858L25.0771 8.99097C25.1734 8.89391 25.2879 8.81698 25.4141 8.7644C25.5402 8.71183 25.6749 8.68469 25.8115 8.68469C25.9482 8.68469 26.0838 8.71183 26.21 8.7644C26.3361 8.81698 26.4507 8.89391 26.5469 8.99097C26.644 9.08727 26.7209 9.20189 26.7734 9.32812C26.826 9.45436 26.8535 9.58981 26.8535 9.72656C26.8535 9.86331 26.826 9.99864 26.7734 10.1249C26.7209 10.2511 26.644 10.3657 26.5469 10.462L24.6807 12.329L26.5469 14.196C26.644 14.2924 26.7209 14.4068 26.7734 14.5331C26.826 14.6593 26.8535 14.7948 26.8535 14.9315C26.8535 15.0683 26.826 15.2037 26.7734 15.33C26.7209 15.4562 26.644 15.5707 26.5469 15.667C26.4506 15.7639 26.3361 15.8409 26.21 15.8934C26.0838 15.9459 25.9482 15.973 25.8115 15.973C25.6748 15.9733 25.5403 15.9465 25.4141 15.8939C25.2879 15.8414 25.1732 15.7642 25.0771 15.667ZM3.15918 6.54407C3.1613 4.80897 3.85113 3.14551 5.07813 1.9187C6.30512 0.691893 7.969 0.00185245 9.7041 0C11.4391 0.00185294 13.1023 0.691987 14.3291 1.91882C15.5559 3.14566 16.2462 4.80906 16.248 6.54407C16.2462 8.27908 15.5559 9.94247 14.3291 11.1693C13.1023 12.3961 11.4391 13.0862 9.7041 13.088C7.969 13.0862 6.30512 12.3961 5.07813 11.1693C3.85113 9.9425 3.1613 8.27917 3.15918 6.54407ZM5.09766 6.54407C5.09898 7.76508 5.58495 8.93572 6.44824 9.79919C7.31153 10.6627 8.48212 11.1484 9.70313 11.15C10.9242 11.1484 12.0946 10.6626 12.958 9.79919C13.8215 8.93575 14.307 7.76517 14.3086 6.54407C14.307 5.32297 13.8215 4.15227 12.958 3.28882C12.0946 2.42537 10.9242 1.93958 9.70313 1.93799C8.48229 1.93984 7.31229 2.42586 6.44922 3.28931C5.58615 4.15276 5.09898 5.32323 5.09766 6.54407Z" fill="#FF5555"/>
</svg>
