<svg width="25" height="24" viewBox="0 0 25 24" fill="none" xmlns="http://www.w3.org/2000/svg">
<path fill-rule="evenodd" clip-rule="evenodd" d="M21.0416 7.55651L15.9921 2.24465C15.8505 2.09565 15.6561 2.01208 15.4527 2.01208H15.2474C15.2384 2.01118 15.23 2.00864 15.2217 2.00613L15.2217 2.00613C15.2116 2.00305 15.2015 2 15.1905 2C15.1789 2 15.1684 2.00313 15.158 2.00624C15.1498 2.00872 15.1415 2.01119 15.1327 2.01208H8.82002C6.3426 2.01208 4.25 4.07702 4.25 6.52152V10.6806C4.25 11.0974 4.58498 11.4357 4.99771 11.4357C5.41045 11.4357 5.74543 11.0974 5.74543 10.6806V6.52152C5.74543 4.89554 7.15312 3.52228 8.82002 3.52228H14.4428V5.68487C14.4428 7.52731 15.9263 9.02844 17.7497 9.03247H17.7507C18.1634 9.03247 18.4974 8.69519 18.4984 8.27939C18.4994 7.86157 18.1654 7.52328 17.7527 7.52228C16.7518 7.52026 15.9382 6.6957 15.9382 5.68487V4.36899L19.7546 8.38309V17.3083C19.7546 19.0028 18.3668 20.4898 16.7847 20.4898H8.82002C7.09629 20.4898 5.74543 19.0924 5.74543 17.3083V14.7853C5.74543 14.3685 5.41045 14.0302 4.99771 14.0302C4.58498 14.0302 4.25 14.3685 4.25 14.7853V17.3083C4.25 19.9391 6.25786 22 8.82002 22H16.7847C19.2053 22 21.25 19.8515 21.25 17.3083V8.08004C21.25 7.88472 21.1752 7.69746 21.0416 7.55651ZM9.62007 16.4053H15.0016C15.4144 16.4053 15.7493 16.0671 15.7493 15.6502C15.7493 15.2334 15.4144 14.8951 15.0016 14.8951H9.62007C9.20734 14.8951 8.87236 15.2334 8.87236 15.6502C8.87236 16.0671 9.20734 16.4053 9.62007 16.4053ZM12.9658 11.4195H9.62007C9.20734 11.4195 8.87236 11.0812 8.87236 10.6644C8.87236 10.2476 9.20734 9.90929 9.62007 9.90929H12.9658C13.3786 9.90929 13.7136 10.2476 13.7136 10.6644C13.7136 11.0812 13.3786 11.4195 12.9658 11.4195Z" fill="#567AB8"/>
</svg>
