<svg width="21" height="21" viewBox="0 0 21 21" fill="none" xmlns="http://www.w3.org/2000/svg">
<path d="M10.3667 0.271484C8.38889 0.271484 6.45549 0.857974 4.811 1.95679C3.16651 3.0556 1.88478 4.61739 1.12791 6.44465C0.371032 8.27191 0.172999 10.2826 0.558851 12.2224C0.944703 14.1622 1.89711 15.944 3.29564 17.3426C4.69416 18.7411 6.47599 19.6935 8.4158 20.0793C10.3556 20.4652 12.3663 20.2672 14.1935 19.5103C16.0208 18.7534 17.5826 17.4717 18.6814 15.8272C19.7802 14.1827 20.3667 12.2493 20.3667 10.2715C20.3636 7.62028 19.309 5.07856 17.4343 3.20387C15.5596 1.32918 13.0179 0.274612 10.3667 0.271484ZM13.7367 13.6415C13.5662 13.8119 13.335 13.9077 13.094 13.9077C12.8529 13.9077 12.6217 13.8119 12.4512 13.6415L9.72398 10.9142C9.55348 10.7438 9.45766 10.5126 9.45761 10.2715V4.81694C9.45761 4.57583 9.55339 4.3446 9.72388 4.17411C9.89437 4.00363 10.1256 3.90785 10.3667 3.90785C10.6078 3.90785 10.839 4.00363 11.0095 4.17411C11.18 4.3446 11.2758 4.57583 11.2758 4.81694V9.89512L13.7367 12.356C13.9071 12.5265 14.0029 12.7577 14.0029 12.9988C14.0029 13.2398 13.9071 13.471 13.7367 13.6415Z" fill="#F3C87A"/>
</svg>
