<svg width="21" height="22" viewBox="0 0 21 22" fill="none" xmlns="http://www.w3.org/2000/svg">
<path d="M20.749 9.71377C20.7302 9.77429 20.7098 9.83428 20.6926 9.89532C20.4776 10.6539 19.9995 11.1583 19.2428 11.3931C19.1906 11.4103 19.1332 11.4265 19.0685 11.4453C19.0685 12.1261 19.0653 12.8016 19.0685 13.4798C19.0685 13.676 19.0345 13.845 18.8399 13.9347C18.6452 14.0245 18.4933 13.9462 18.3441 13.8179C17.4659 13.0635 16.585 12.3118 15.7012 11.5626C15.6504 11.5155 15.5862 11.4852 15.5175 11.476C15.2383 11.4666 14.9591 11.4719 14.6522 11.4719V11.7071C14.6522 13.2621 14.6522 14.8173 14.6522 16.3726C14.6522 17.6048 13.7556 18.5016 12.5239 18.5021C10.3758 18.5021 8.22826 18.5021 6.08015 18.5079C5.96143 18.5125 5.84745 18.5557 5.75553 18.631C4.87406 19.3718 4.00042 20.122 3.12312 20.868C3.06414 20.9201 2.99682 20.9582 2.93315 21.0031H2.69882C2.49006 20.8987 2.41856 20.7276 2.42221 20.4934C2.43369 19.8236 2.42639 19.1537 2.42639 18.4734C1.97809 18.3691 1.59136 18.1667 1.28762 17.8276C0.937945 17.4519 0.745576 16.9566 0.750077 16.4435C0.750077 14.3279 0.750077 12.2125 0.750077 10.0972C0.749528 9.82666 0.80236 9.55866 0.905555 9.30855C1.00875 9.05843 1.16028 8.83112 1.35147 8.63962C1.54266 8.44812 1.76975 8.29618 2.01975 8.19252C2.26976 8.08886 2.53776 8.0355 2.80841 8.0355C4.07139 8.03185 5.33437 8.0355 6.59734 8.0355H6.84316V7.80492C6.84316 6.24994 6.84316 4.69445 6.84316 3.13843C6.84316 1.90359 7.7382 1.00577 8.96778 1.00473C9.98338 1.00473 10.999 1.00473 12.0146 1.00473C12.2416 1.00473 12.4013 1.14036 12.4258 1.34017C12.4392 1.43137 12.4195 1.52433 12.3703 1.60229C12.3211 1.68025 12.2457 1.73808 12.1576 1.76535C12.0881 1.78099 12.0168 1.78696 11.9457 1.78308C10.9757 1.78308 10.0056 1.78308 9.03563 1.78308C8.16355 1.78308 7.62286 2.32251 7.62286 3.19164C7.62286 5.22239 7.62286 7.25315 7.62286 9.2839C7.62286 10.1431 8.16615 10.6872 9.02414 10.6872C11.2244 10.6872 13.4247 10.6864 15.625 10.6846C15.8017 10.679 15.9736 10.7424 16.1041 10.8615C16.7826 11.4489 17.4689 12.029 18.1525 12.6112C18.1859 12.6399 18.2209 12.666 18.2783 12.7119C18.283 12.6321 18.2888 12.5778 18.2893 12.5231C18.2893 12.0535 18.2893 11.584 18.2893 11.1171C18.2893 10.849 18.426 10.7086 18.6896 10.6909C19.4651 10.6387 19.9682 10.1035 19.9687 9.32251C19.9708 7.26532 19.9708 5.20848 19.9687 3.15199C19.9687 2.33398 19.414 1.78621 18.5909 1.78465C17.5882 1.78465 16.5857 1.78465 15.5833 1.78465C15.41 1.78465 15.2581 1.72518 15.2112 1.56137C15.1772 1.44399 15.1814 1.27965 15.242 1.18158C15.2801 1.13201 15.3285 1.09119 15.3837 1.06185C15.439 1.03252 15.4999 1.01535 15.5624 1.01151C16.6495 1.00003 17.7366 0.992727 18.8237 1.01151C19.7031 1.02559 20.5058 1.73665 20.7072 2.63917C20.7171 2.68143 20.7359 2.7216 20.75 2.76281L20.749 9.71377ZM13.8741 11.451H8.37491C8.39057 11.4943 8.41144 11.5553 8.43441 11.6148C8.89019 12.823 9.34597 14.0316 9.80176 15.2405C9.90614 15.5139 9.82211 15.7393 9.593 15.8238C9.37276 15.9057 9.1708 15.7914 9.06798 15.5254C8.98344 15.3073 8.90828 15.0856 8.81382 14.8722C8.79755 14.8418 8.77448 14.8156 8.74642 14.7956C8.71836 14.7757 8.68606 14.7624 8.65203 14.7569C8.02124 14.7486 7.38993 14.7486 6.75809 14.7569C6.72401 14.762 6.69158 14.775 6.66333 14.7947C6.63508 14.8144 6.61179 14.8404 6.59526 14.8707C6.4961 15.096 6.41573 15.3297 6.32701 15.5598C6.26647 15.7163 6.16209 15.8248 5.98726 15.8431C5.67099 15.8765 5.47372 15.588 5.59688 15.2619C5.92985 14.3813 6.26751 13.5033 6.60308 12.6237C6.84107 11.9977 7.07801 11.3759 7.32539 10.7264C6.84525 10.2021 6.80349 9.52649 6.85151 8.81438H6.67407C5.41109 8.81438 4.14863 8.81438 2.88565 8.81438C2.08194 8.81438 1.52874 9.37311 1.52874 10.1833C1.52874 12.2398 1.52874 14.2964 1.52874 16.3533C1.52874 17.1322 2.03341 17.6659 2.80946 17.7201C3.0704 17.7378 3.2061 17.8797 3.20871 18.1484C3.20871 18.4672 3.20871 18.7859 3.20871 19.1052V19.751C3.28229 19.6921 3.323 19.6618 3.3611 19.629C4.03955 19.0504 4.71801 18.4745 5.39647 17.8912C5.52682 17.7735 5.69793 17.7112 5.87348 17.7175C8.06751 17.722 10.2614 17.7231 12.4551 17.7206C13.3423 17.7206 13.8762 17.1838 13.8767 16.2985C13.8767 14.7627 13.8767 13.2266 13.8767 11.6904L13.8741 11.451ZM8.47511 13.9655C8.21938 13.2873 7.97357 12.6368 7.70741 11.9309C7.43863 12.6363 7.18917 13.292 6.93345 13.9655H8.47511Z" fill="#567AB8" stroke="#567AB8" stroke-width="0.3"/>
</svg>
