<svg width="37" height="25" viewBox="0 0 37 25" fill="none" xmlns="http://www.w3.org/2000/svg">
<path d="M34.1875 0.0869141H2.1875C1.08293 0.0869141 0.1875 0.982345 0.1875 2.08691V22.0869C0.1875 23.1915 1.08293 24.0869 2.1875 24.0869H34.1875C35.2921 24.0869 36.1875 23.1915 36.1875 22.0869V2.08691C36.1875 0.982345 35.2921 0.0869141 34.1875 0.0869141Z" fill="#2A2A6C"/>
<path d="M19.6923 15.5158C19.017 15.5108 18.3476 15.3897 17.7133 15.1578L18.0403 13.6698C18.5595 13.9354 19.1341 14.0745 19.7173 14.0758C19.7733 14.0758 19.8293 14.0758 19.8853 14.0758C20.3793 14.0758 20.9423 13.7188 20.9423 13.4058C20.9423 13.0928 20.6763 12.9378 20.0193 12.5578L19.9993 12.5458C19.3483 12.1698 18.4573 11.6548 18.4573 10.6828C18.4563 9.33981 19.6803 8.40381 21.4303 8.40381C21.9939 8.40632 22.5528 8.50786 23.0813 8.70381L22.7693 10.1918C22.3191 9.98656 21.8301 9.88017 21.3353 9.87981C21.2283 9.87981 21.1193 9.88481 21.0123 9.89481C20.4993 9.95581 20.2693 10.2298 20.2693 10.4748C20.2633 10.7968 20.6693 11.0108 21.1393 11.2588C21.8583 11.6378 22.7533 12.1098 22.7533 13.1988L22.7843 13.1688C22.7873 14.5938 21.5713 15.5158 19.6923 15.5158ZM24.4673 15.4578H22.5923L25.2713 9.07381C25.333 8.92336 25.4382 8.79475 25.5734 8.70443C25.7086 8.61411 25.8677 8.56619 26.0303 8.56681H27.5213L29.0083 15.4548H27.3723L27.1193 14.4278H24.8393L24.4673 15.4548V15.4578ZM26.3133 10.4278L25.3763 13.0158L26.9673 13.0038L26.3133 10.4278ZM16.4483 15.4418H14.6773L16.1653 8.55281H17.9353L16.4483 15.4418ZM12.5063 15.4418H10.6063L9.11427 9.95181C9.09981 9.82357 9.05414 9.70083 8.98127 9.59432C8.90841 9.4878 8.81055 9.40076 8.69627 9.34081C8.16457 9.08555 7.60568 8.89132 7.03027 8.76181L7.03027 8.55281H10.0053C10.2048 8.55332 10.3974 8.62583 10.5476 8.75701C10.6979 8.88819 10.7958 9.06922 10.8233 9.26681L11.5823 13.2398L13.5773 8.55281H15.3913L12.5063 15.4418Z" fill="white"/>
</svg>
