<svg width="34" height="34" viewBox="0 0 34 34" fill="none" xmlns="http://www.w3.org/2000/svg">
<path d="M0.75 33.729L3.1245 24.9078C1.77833 22.4927 1.0772 19.7886 1.0772 17.0378C1.06785 8.04882 8.39703 0.738281 17.4089 0.738281C26.4208 0.738281 33.75 8.04882 33.75 17.0378C33.75 26.0268 26.4208 33.3373 17.4089 33.3373C14.7072 33.3373 12.0336 32.6566 9.64037 31.3605L0.75 33.7383L0.75 33.729ZM10.0891 28.0409L10.65 28.3766C12.7067 29.5981 15.0438 30.2415 17.4089 30.2415C24.7101 30.2415 30.6557 24.311 30.6557 17.0285C30.6557 9.74591 24.7101 3.81542 17.4089 3.81542C10.1078 3.81542 4.16218 9.74591 4.16218 17.0378C4.16218 19.4436 4.83527 21.812 6.09731 23.8914L6.4432 24.4509L5.11572 29.3743L10.0797 28.0502L10.0891 28.0409Z" fill="#151515"/>
<path fill-rule="evenodd" clip-rule="evenodd" d="M23.8605 19.6497C23.1814 19.2409 22.2948 18.7846 21.5025 19.1173C20.8894 19.374 20.4933 20.3342 20.0971 20.8285C19.8896 21.0852 19.6538 21.1232 19.3331 20.9901C17.0317 20.068 15.2679 18.5184 13.9946 16.3793C13.7776 16.0466 13.8154 15.7899 14.0795 15.4762C14.4662 15.0198 14.9472 14.5065 15.051 13.8885C15.1547 13.2706 14.8718 12.5575 14.6171 12.0157C14.2964 11.3217 13.938 10.3234 13.24 9.92415C12.5986 9.56288 11.7592 9.76253 11.1932 10.2284C10.2123 11.0365 9.74071 12.2914 9.75014 13.5463C9.75014 13.898 9.7973 14.2593 9.88219 14.6015C10.0803 15.4286 10.4575 16.1987 10.882 16.9307C11.2027 17.4821 11.5517 18.0145 11.9289 18.5374C13.1646 20.2201 14.6925 21.6842 16.4658 22.787C17.3524 23.3383 18.305 23.8137 19.2954 24.1464C20.399 24.5172 21.3893 24.8975 22.5872 24.6693C23.8417 24.4316 25.0773 23.6521 25.5772 22.4352C25.7281 22.0739 25.7941 21.6746 25.7186 21.2944C25.5489 20.5053 24.4925 20.0395 23.8605 19.6592V19.6497Z" fill="#151515"/>
</svg>
